<?xml version="1.0" encoding="utf-8" standalone="no"?>
<!DOCTYPE svg PUBLIC "-//W3C//DTD SVG 1.1//EN"
  "http://www.w3.org/Graphics/SVG/1.1/DTD/svg11.dtd">
<!-- Created with matplotlib (http://matplotlib.org/) -->
<svg height="389pt" version="1.1" viewBox="0 0 490 389" width="490pt" xmlns="http://www.w3.org/2000/svg" xmlns:xlink="http://www.w3.org/1999/xlink">
 <defs>
  <style type="text/css">
*{stroke-linecap:butt;stroke-linejoin:round;}
  </style>
 </defs>
 <g id="figure_1">
  <g id="patch_1">
   <path d="
M0 389.017
L490.213 389.017
L490.213 0
L0 0
z
" style="fill:none;"/>
  </g>
  <g id="axes_1">
   <g id="patch_2">
    <path d="
M36.6131 352.8
L483.013 352.8
L483.013 7.2
L36.6131 7.2
z
" style="fill:none;"/>
   </g>
   <g id="line2d_1">
    <path clip-path="url(#p7d72018917)" d="
M61.4131 329.76
L86.2131 314.251
L111.013 306.428
L135.813 298.041
L160.613 290.611
L185.413 284.517
L210.213 281.421
L235.013 275.829
L259.813 274.025
L284.613 271.797
L309.413 273.816
L334.213 272.11
L359.013 267.423
L383.813 256.086" style="fill:none;stroke:#0000ff;stroke-linecap:square;stroke-width:2;"/>
    <defs>
     <path d="
M0 3
C0.795609 3 1.55874 2.6839 2.12132 2.12132
C2.6839 1.55874 3 0.795609 3 0
C3 -0.795609 2.6839 -1.55874 2.12132 -2.12132
C1.55874 -2.6839 0.795609 -3 0 -3
C-0.795609 -3 -1.55874 -2.6839 -2.12132 -2.12132
C-2.6839 -1.55874 -3 -0.795609 -3 0
C-3 0.795609 -2.6839 1.55874 -2.12132 2.12132
C-1.55874 2.6839 -0.795609 3 0 3
z
" id="mf1e9a9e4ae" style="stroke:#000000;stroke-width:0.5;"/>
    </defs>
    <g clip-path="url(#p7d72018917)">
     <use style="fill:#0000ff;stroke:#000000;stroke-width:0.5;" x="61.413125" xlink:href="#mf1e9a9e4ae" y="329.76"/>
     <use style="fill:#0000ff;stroke:#000000;stroke-width:0.5;" x="86.213125" xlink:href="#mf1e9a9e4ae" y="314.2514978"/>
     <use style="fill:#0000ff;stroke:#000000;stroke-width:0.5;" x="111.013125" xlink:href="#mf1e9a9e4ae" y="306.428499145"/>
     <use style="fill:#0000ff;stroke:#000000;stroke-width:0.5;" x="135.813125" xlink:href="#mf1e9a9e4ae" y="298.040666436"/>
     <use style="fill:#0000ff;stroke:#000000;stroke-width:0.5;" x="160.613125" xlink:href="#mf1e9a9e4ae" y="290.611340288"/>
     <use style="fill:#0000ff;stroke:#000000;stroke-width:0.5;" x="185.413125" xlink:href="#mf1e9a9e4ae" y="284.516645883"/>
     <use style="fill:#0000ff;stroke:#000000;stroke-width:0.5;" x="210.213125" xlink:href="#mf1e9a9e4ae" y="281.420644274"/>
     <use style="fill:#0000ff;stroke:#000000;stroke-width:0.5;" x="235.013125" xlink:href="#mf1e9a9e4ae" y="275.828536093"/>
     <use style="fill:#0000ff;stroke:#000000;stroke-width:0.5;" x="259.813125" xlink:href="#mf1e9a9e4ae" y="274.025092727"/>
     <use style="fill:#0000ff;stroke:#000000;stroke-width:0.5;" x="284.613125" xlink:href="#mf1e9a9e4ae" y="271.796778845"/>
     <use style="fill:#0000ff;stroke:#000000;stroke-width:0.5;" x="309.413125" xlink:href="#mf1e9a9e4ae" y="273.816439752"/>
     <use style="fill:#0000ff;stroke:#000000;stroke-width:0.5;" x="334.213125" xlink:href="#mf1e9a9e4ae" y="272.109548808"/>
     <use style="fill:#0000ff;stroke:#000000;stroke-width:0.5;" x="359.013125" xlink:href="#mf1e9a9e4ae" y="267.423271579"/>
     <use style="fill:#0000ff;stroke:#000000;stroke-width:0.5;" x="383.813125" xlink:href="#mf1e9a9e4ae" y="256.085706191"/>
    </g>
   </g>
   <g id="line2d_2">
    <path clip-path="url(#p7d72018917)" d="
M61.4131 329.76
L86.2131 310.378
L111.013 288.105
L135.813 272.875
L160.613 251.134
L185.413 247.217
L210.213 239.052
L235.013 219.723
L259.813 216.812
L284.613 212.227
L309.413 203.99
L334.213 203.816
L359.013 203.471
L383.813 182.333
L408.613 144.067" style="fill:none;stroke:#008000;stroke-linecap:square;stroke-width:2;"/>
    <defs>
     <path d="
M0 3
C0.795609 3 1.55874 2.6839 2.12132 2.12132
C2.6839 1.55874 3 0.795609 3 0
C3 -0.795609 2.6839 -1.55874 2.12132 -2.12132
C1.55874 -2.6839 0.795609 -3 0 -3
C-0.795609 -3 -1.55874 -2.6839 -2.12132 -2.12132
C-2.6839 -1.55874 -3 -0.795609 -3 0
C-3 0.795609 -2.6839 1.55874 -2.12132 2.12132
C-1.55874 2.6839 -0.795609 3 0 3
z
" id="mbbe02196b1" style="stroke:#000000;stroke-width:0.5;"/>
    </defs>
    <g clip-path="url(#p7d72018917)">
     <use style="fill:#008000;stroke:#000000;stroke-width:0.5;" x="61.413125" xlink:href="#mbbe02196b1" y="329.76"/>
     <use style="fill:#008000;stroke:#000000;stroke-width:0.5;" x="86.213125" xlink:href="#mbbe02196b1" y="310.377908802"/>
     <use style="fill:#008000;stroke:#000000;stroke-width:0.5;" x="111.013125" xlink:href="#mbbe02196b1" y="288.104662069"/>
     <use style="fill:#008000;stroke:#000000;stroke-width:0.5;" x="135.813125" xlink:href="#mbbe02196b1" y="272.874868574"/>
     <use style="fill:#008000;stroke:#000000;stroke-width:0.5;" x="160.613125" xlink:href="#mbbe02196b1" y="251.133745774"/>
     <use style="fill:#008000;stroke:#000000;stroke-width:0.5;" x="185.413125" xlink:href="#mbbe02196b1" y="247.217339518"/>
     <use style="fill:#008000;stroke:#000000;stroke-width:0.5;" x="210.213125" xlink:href="#mbbe02196b1" y="239.052010917"/>
     <use style="fill:#008000;stroke:#000000;stroke-width:0.5;" x="235.013125" xlink:href="#mbbe02196b1" y="219.723050834"/>
     <use style="fill:#008000;stroke:#000000;stroke-width:0.5;" x="259.813125" xlink:href="#mbbe02196b1" y="216.811656122"/>
     <use style="fill:#008000;stroke:#000000;stroke-width:0.5;" x="284.613125" xlink:href="#mbbe02196b1" y="212.226849252"/>
     <use style="fill:#008000;stroke:#000000;stroke-width:0.5;" x="309.413125" xlink:href="#mbbe02196b1" y="203.989846026"/>
     <use style="fill:#008000;stroke:#000000;stroke-width:0.5;" x="334.213125" xlink:href="#mbbe02196b1" y="203.815645328"/>
     <use style="fill:#008000;stroke:#000000;stroke-width:0.5;" x="359.013125" xlink:href="#mbbe02196b1" y="203.470961069"/>
     <use style="fill:#008000;stroke:#000000;stroke-width:0.5;" x="383.813125" xlink:href="#mbbe02196b1" y="182.332846984"/>
     <use style="fill:#008000;stroke:#000000;stroke-width:0.5;" x="408.613125" xlink:href="#mbbe02196b1" y="144.066759062"/>
    </g>
   </g>
   <g id="line2d_3">
    <path clip-path="url(#p7d72018917)" d="
M61.4131 329.76
L86.2131 306.554
L111.013 289.358
L135.813 261.684
L160.613 253.624
L185.413 229.972
L210.213 222.062
L235.013 186.158
L259.813 178.788
L284.613 173.507
L309.413 165.796
L334.213 162.304
L359.013 155.904
L383.813 146.127
L408.613 131.487
L433.413 95.0582" style="fill:none;stroke:#ff0000;stroke-linecap:square;stroke-width:2;"/>
    <defs>
     <path d="
M0 3
C0.795609 3 1.55874 2.6839 2.12132 2.12132
C2.6839 1.55874 3 0.795609 3 0
C3 -0.795609 2.6839 -1.55874 2.12132 -2.12132
C1.55874 -2.6839 0.795609 -3 0 -3
C-0.795609 -3 -1.55874 -2.6839 -2.12132 -2.12132
C-2.6839 -1.55874 -3 -0.795609 -3 0
C-3 0.795609 -2.6839 1.55874 -2.12132 2.12132
C-1.55874 2.6839 -0.795609 3 0 3
z
" id="md175be6dbf" style="stroke:#000000;stroke-width:0.5;"/>
    </defs>
    <g clip-path="url(#p7d72018917)">
     <use style="fill:#ff0000;stroke:#000000;stroke-width:0.5;" x="61.413125" xlink:href="#md175be6dbf" y="329.76"/>
     <use style="fill:#ff0000;stroke:#000000;stroke-width:0.5;" x="86.213125" xlink:href="#md175be6dbf" y="306.553771816"/>
     <use style="fill:#ff0000;stroke:#000000;stroke-width:0.5;" x="111.013125" xlink:href="#md175be6dbf" y="289.357797203"/>
     <use style="fill:#ff0000;stroke:#000000;stroke-width:0.5;" x="135.813125" xlink:href="#md175be6dbf" y="261.683728509"/>
     <use style="fill:#ff0000;stroke:#000000;stroke-width:0.5;" x="160.613125" xlink:href="#md175be6dbf" y="253.624052337"/>
     <use style="fill:#ff0000;stroke:#000000;stroke-width:0.5;" x="185.413125" xlink:href="#md175be6dbf" y="229.971799325"/>
     <use style="fill:#ff0000;stroke:#000000;stroke-width:0.5;" x="210.213125" xlink:href="#md175be6dbf" y="222.061988664"/>
     <use style="fill:#ff0000;stroke:#000000;stroke-width:0.5;" x="235.013125" xlink:href="#md175be6dbf" y="186.158379519"/>
     <use style="fill:#ff0000;stroke:#000000;stroke-width:0.5;" x="259.813125" xlink:href="#md175be6dbf" y="178.78773255"/>
     <use style="fill:#ff0000;stroke:#000000;stroke-width:0.5;" x="284.613125" xlink:href="#md175be6dbf" y="173.506976849"/>
     <use style="fill:#ff0000;stroke:#000000;stroke-width:0.5;" x="309.413125" xlink:href="#md175be6dbf" y="165.796009697"/>
     <use style="fill:#ff0000;stroke:#000000;stroke-width:0.5;" x="334.213125" xlink:href="#md175be6dbf" y="162.30401517"/>
     <use style="fill:#ff0000;stroke:#000000;stroke-width:0.5;" x="359.013125" xlink:href="#md175be6dbf" y="155.903643514"/>
     <use style="fill:#ff0000;stroke:#000000;stroke-width:0.5;" x="383.813125" xlink:href="#md175be6dbf" y="146.127013237"/>
     <use style="fill:#ff0000;stroke:#000000;stroke-width:0.5;" x="408.613125" xlink:href="#md175be6dbf" y="131.486990273"/>
     <use style="fill:#ff0000;stroke:#000000;stroke-width:0.5;" x="433.413125" xlink:href="#md175be6dbf" y="95.058177533"/>
    </g>
   </g>
   <g id="line2d_4">
    <path clip-path="url(#p7d72018917)" d="
M61.4131 329.76
L86.2131 309.111
L111.013 286.762
L135.813 270.135
L160.613 249.974
L185.413 223.328
L210.213 215.518
L235.013 204.689
L259.813 170.273
L284.613 160.009
L309.413 154.148
L334.213 149.486
L359.013 139.401
L383.813 131.137
L408.613 115.142
L433.413 105.671
L458.213 26.9552" style="fill:none;stroke:#00bfbf;stroke-linecap:square;stroke-width:2;"/>
    <defs>
     <path d="
M0 3
C0.795609 3 1.55874 2.6839 2.12132 2.12132
C2.6839 1.55874 3 0.795609 3 0
C3 -0.795609 2.6839 -1.55874 2.12132 -2.12132
C1.55874 -2.6839 0.795609 -3 0 -3
C-0.795609 -3 -1.55874 -2.6839 -2.12132 -2.12132
C-2.6839 -1.55874 -3 -0.795609 -3 0
C-3 0.795609 -2.6839 1.55874 -2.12132 2.12132
C-1.55874 2.6839 -0.795609 3 0 3
z
" id="m251ff29c8c" style="stroke:#000000;stroke-width:0.5;"/>
    </defs>
    <g clip-path="url(#p7d72018917)">
     <use style="fill:#00bfbf;stroke:#000000;stroke-width:0.5;" x="61.413125" xlink:href="#m251ff29c8c" y="329.76"/>
     <use style="fill:#00bfbf;stroke:#000000;stroke-width:0.5;" x="86.213125" xlink:href="#m251ff29c8c" y="309.110949319"/>
     <use style="fill:#00bfbf;stroke:#000000;stroke-width:0.5;" x="111.013125" xlink:href="#m251ff29c8c" y="286.761634225"/>
     <use style="fill:#00bfbf;stroke:#000000;stroke-width:0.5;" x="135.813125" xlink:href="#m251ff29c8c" y="270.135385415"/>
     <use style="fill:#00bfbf;stroke:#000000;stroke-width:0.5;" x="160.613125" xlink:href="#m251ff29c8c" y="249.974388748"/>
     <use style="fill:#00bfbf;stroke:#000000;stroke-width:0.5;" x="185.413125" xlink:href="#m251ff29c8c" y="223.328178968"/>
     <use style="fill:#00bfbf;stroke:#000000;stroke-width:0.5;" x="210.213125" xlink:href="#m251ff29c8c" y="215.518109276"/>
     <use style="fill:#00bfbf;stroke:#000000;stroke-width:0.5;" x="235.013125" xlink:href="#m251ff29c8c" y="204.688620993"/>
     <use style="fill:#00bfbf;stroke:#000000;stroke-width:0.5;" x="259.813125" xlink:href="#m251ff29c8c" y="170.272754792"/>
     <use style="fill:#00bfbf;stroke:#000000;stroke-width:0.5;" x="284.613125" xlink:href="#m251ff29c8c" y="160.009323227"/>
     <use style="fill:#00bfbf;stroke:#000000;stroke-width:0.5;" x="309.413125" xlink:href="#m251ff29c8c" y="154.148214364"/>
     <use style="fill:#00bfbf;stroke:#000000;stroke-width:0.5;" x="334.213125" xlink:href="#m251ff29c8c" y="149.485532854"/>
     <use style="fill:#00bfbf;stroke:#000000;stroke-width:0.5;" x="359.013125" xlink:href="#m251ff29c8c" y="139.400662231"/>
     <use style="fill:#00bfbf;stroke:#000000;stroke-width:0.5;" x="383.813125" xlink:href="#m251ff29c8c" y="131.136727487"/>
     <use style="fill:#00bfbf;stroke:#000000;stroke-width:0.5;" x="408.613125" xlink:href="#m251ff29c8c" y="115.141991294"/>
     <use style="fill:#00bfbf;stroke:#000000;stroke-width:0.5;" x="433.413125" xlink:href="#m251ff29c8c" y="105.670954003"/>
     <use style="fill:#00bfbf;stroke:#000000;stroke-width:0.5;" x="458.213125" xlink:href="#m251ff29c8c" y="26.9552016989"/>
    </g>
   </g>
   <g id="matplotlib.axis_1">
    <g id="xtick_1">
     <g id="line2d_5">
      <path clip-path="url(#p7d72018917)" d="
M61.4131 352.8
L61.4131 7.2" style="fill:none;stroke:#000000;stroke-dasharray:1.000000,3.000000;stroke-dashoffset:0.0;stroke-width:0.5;"/>
     </g>
     <g id="line2d_6">
      <defs>
       <path d="
M0 0
L0 -4" id="m93b0483c22" style="stroke:#000000;stroke-width:0.5;"/>
      </defs>
      <g>
       <use style="stroke:#000000;stroke-width:0.5;" x="61.413125" xlink:href="#m93b0483c22" y="352.8"/>
      </g>
     </g>
     <g id="line2d_7">
      <defs>
       <path d="
M0 0
L0 4" id="m741efc42ff" style="stroke:#000000;stroke-width:0.5;"/>
      </defs>
      <g>
       <use style="stroke:#000000;stroke-width:0.5;" x="61.413125" xlink:href="#m741efc42ff" y="7.2"/>
      </g>
     </g>
     <g id="text_1">
      <!-- 1 -->
      <defs>
       <path d="
M29.9062 62.2969
L25.0938 62.2969
L8.79688 53.7969
L10.4062 49.9062
L22.9062 53.5938
L22.9062 -0.09375
L29.9062 -0.09375
z
" id="Inconsolata-31"/>
      </defs>
      <g transform="translate(60.1465625 364.76875)scale(0.12 -0.12)">
       <use xlink:href="#Inconsolata-31"/>
      </g>
     </g>
    </g>
    <g id="xtick_2">
     <g id="line2d_8">
      <path clip-path="url(#p7d72018917)" d="
M86.2131 352.8
L86.2131 7.2" style="fill:none;stroke:#000000;stroke-dasharray:1.000000,3.000000;stroke-dashoffset:0.0;stroke-width:0.5;"/>
     </g>
     <g id="line2d_9">
      <g>
       <use style="stroke:#000000;stroke-width:0.5;" x="86.213125" xlink:href="#m93b0483c22" y="352.8"/>
      </g>
     </g>
     <g id="line2d_10">
      <g>
       <use style="stroke:#000000;stroke-width:0.5;" x="86.213125" xlink:href="#m741efc42ff" y="7.2"/>
      </g>
     </g>
     <g id="text_2">
      <!-- 2 -->
      <defs>
       <path d="
M7.70312 52.5938
L12.7969 48.5
C13.4062 49.4062 13.0938 50 13.7031 50.7969
C15.2031 53.0938 18.9062 56.5 24.2969 56.5
C31 56.5 36.2969 51.4062 36.2969 44.7031
C36.2969 37.0938 29.9062 31.5938 25.4062 27.5
C18.2969 21.0938 12.5 14.7031 7.29688 4.40625
L7.29688 0
L43.9062 0
L43.9062 6.90625
C43.2031 7.20312 42.7031 6.70312 42.5 6.5
C42.0938 6.09375 41.9062 6.09375 41.5 6.09375
L15.2969 6.09375
C20.5 15.0938 27.7969 21.2969 32.2969 25.5
C36.7969 29.7969 43.2031 36.2031 43.2031 45.2031
C43.2031 54.9062 35.2969 62.7031 25.2031 62.7031
C18.0938 62.7031 11.4062 58.9062 7.70312 52.5938" id="Inconsolata-32"/>
      </defs>
      <g transform="translate(84.0165625 364.76875)scale(0.12 -0.12)">
       <use xlink:href="#Inconsolata-32"/>
      </g>
     </g>
    </g>
    <g id="xtick_3">
     <g id="line2d_11">
      <path clip-path="url(#p7d72018917)" d="
M111.013 352.8
L111.013 7.2" style="fill:none;stroke:#000000;stroke-dasharray:1.000000,3.000000;stroke-dashoffset:0.0;stroke-width:0.5;"/>
     </g>
     <g id="line2d_12">
      <g>
       <use style="stroke:#000000;stroke-width:0.5;" x="111.013125" xlink:href="#m93b0483c22" y="352.8"/>
      </g>
     </g>
     <g id="line2d_13">
      <g>
       <use style="stroke:#000000;stroke-width:0.5;" x="111.013125" xlink:href="#m741efc42ff" y="7.2"/>
      </g>
     </g>
     <g id="text_3">
      <!-- 3 -->
      <defs>
       <path d="
M41 46.7031
C41 55.2031 33.7969 62.5 23.9062 62.5
C18.2969 62.5 12.7969 60.0938 8.90625 55.7969
L12.7969 51.5
C15.7031 54.5938 19.7031 56.2969 23.5938 56.2969
C30 56.2969 34.4062 51.7969 34.4062 46.5
C34.4062 42.7969 32.0938 38.5938 27.7031 36.7031
C26.5938 36.2969 23.7969 35.2031 17.9062 35.2031
L17.9062 29.5938
C18.9062 29.7031 20 29.7969 21.0938 29.7969
C29.5 29.7969 35.7031 25.4062 35.7031 17.9062
C35.7031 11.0938 30.5 5.20312 23.2031 5.20312
C17.4062 5.20312 13.9062 9 13.4062 9.5
C12.5938 10.4062 13 11.4062 12.0938 12.2969
L6.90625 6
C11 1.29688 17 -1.09375 23.2031 -1.09375
C35.2031 -1.09375 42.4062 7.40625 42.4062 17.0938
C42.4062 24.5 38.2031 30.7969 31.7031 33.2031
C37.2969 35.2969 41 40.5938 41 46.7031" id="Inconsolata-33"/>
      </defs>
      <g transform="translate(108.883125 364.76875)scale(0.12 -0.12)">
       <use xlink:href="#Inconsolata-33"/>
      </g>
     </g>
    </g>
    <g id="xtick_4">
     <g id="line2d_14">
      <path clip-path="url(#p7d72018917)" d="
M135.813 352.8
L135.813 7.2" style="fill:none;stroke:#000000;stroke-dasharray:1.000000,3.000000;stroke-dashoffset:0.0;stroke-width:0.5;"/>
     </g>
     <g id="line2d_15">
      <g>
       <use style="stroke:#000000;stroke-width:0.5;" x="135.813125" xlink:href="#m93b0483c22" y="352.8"/>
      </g>
     </g>
     <g id="line2d_16">
      <g>
       <use style="stroke:#000000;stroke-width:0.5;" x="135.813125" xlink:href="#m741efc42ff" y="7.2"/>
      </g>
     </g>
     <g id="text_4">
      <!-- 4 -->
      <defs>
       <path d="
M31.2969 62.2969
L4.79688 22.4062
L4.79688 17.2031
L29.9062 17.2031
L29.9062 0
L37.0938 0
L37.0938 17.0938
L45.2031 17.0938
L45.2031 23.2969
L37.0938 23.2969
L37.0938 62.2969
z

M30 51.2031
L30 23.2969
L11.7031 23.2969
z
" id="Inconsolata-34"/>
      </defs>
      <g transform="translate(133.38875 364.76875)scale(0.12 -0.12)">
       <use xlink:href="#Inconsolata-34"/>
      </g>
     </g>
    </g>
    <g id="xtick_5">
     <g id="line2d_17">
      <path clip-path="url(#p7d72018917)" d="
M160.613 352.8
L160.613 7.2" style="fill:none;stroke:#000000;stroke-dasharray:1.000000,3.000000;stroke-dashoffset:0.0;stroke-width:0.5;"/>
     </g>
     <g id="line2d_18">
      <g>
       <use style="stroke:#000000;stroke-width:0.5;" x="160.613125" xlink:href="#m93b0483c22" y="352.8"/>
      </g>
     </g>
     <g id="line2d_19">
      <g>
       <use style="stroke:#000000;stroke-width:0.5;" x="160.613125" xlink:href="#m741efc42ff" y="7.2"/>
      </g>
     </g>
     <g id="text_5">
      <!-- 5 -->
      <defs>
       <path d="
M10.5938 62.2969
L8.40625 30.5938
L12.9062 28.7969
C15.9062 32.5938 20.2969 34.7031 24.5938 34.7031
C31.0938 34.7031 37.2969 29.7031 37.2969 19.7969
C37.2969 10.2031 31.4062 5 24.7031 5
C18 5 13.5938 10.0938 13.2969 10.7031
C12.9062 11.5 13.4062 12.5 12.5 13.0938
L6.29688 8.40625
C10.5 2.29688 17.4062 -1.20312 24.7969 -1.20312
C35.5938 -1.20312 44.5 6.09375 44.5 19.5938
C44.5 33 36.0938 40.4062 25.5938 40.4062
C22.2031 40.4062 18.7031 39.5938 15.5 38
L16.4062 56
L42.2031 56
L42.2031 62.2969
z
" id="Inconsolata-35"/>
      </defs>
      <g transform="translate(158.3209375 364.76875)scale(0.12 -0.12)">
       <use xlink:href="#Inconsolata-35"/>
      </g>
     </g>
    </g>
    <g id="xtick_6">
     <g id="line2d_20">
      <path clip-path="url(#p7d72018917)" d="
M185.413 352.8
L185.413 7.2" style="fill:none;stroke:#000000;stroke-dasharray:1.000000,3.000000;stroke-dashoffset:0.0;stroke-width:0.5;"/>
     </g>
     <g id="line2d_21">
      <g>
       <use style="stroke:#000000;stroke-width:0.5;" x="185.413125" xlink:href="#m93b0483c22" y="352.8"/>
      </g>
     </g>
     <g id="line2d_22">
      <g>
       <use style="stroke:#000000;stroke-width:0.5;" x="185.413125" xlink:href="#m741efc42ff" y="7.2"/>
      </g>
     </g>
     <g id="text_6">
      <!-- 6 -->
      <defs>
       <path d="
M28.7031 63
C21.2031 63 13.2031 58.4062 9.29688 47.5
C7.20312 41.5938 6.70312 34.2969 6.70312 28.2969
C6.70312 21 7.40625 13.2031 11.4062 7.20312
C15 1.70312 20.5938 -1.09375 26.0938 -1.09375
C35.5938 -1.09375 43.9062 6.90625 43.9062 19.7969
C43.9062 32.7031 35.5938 40.2031 26.7969 40.2031
C21.4062 40.2031 16.2969 37.2969 13.5938 32.7031
C14 54 24.2031 56.7969 28.7031 56.7969
C32.7969 56.7969 35.5938 54.5938 36 54.2031
C36.5938 53.5 36.5938 52.5938 37.5 51.9062
L42.2969 57.2969
C38.7031 60.9062 33.7031 63 28.7031 63
M26.0938 34
C31.0938 34 37.0938 30.0938 37.0938 19.4062
C37.0938 9.70312 31.7031 5.09375 26.4062 5.09375
C18.7969 5.09375 13.0938 14 13.9062 25.7031
C16.7031 30.7969 21.5 34 26.0938 34" id="Inconsolata-36"/>
      </defs>
      <g transform="translate(183.1809375 364.76875)scale(0.12 -0.12)">
       <use xlink:href="#Inconsolata-36"/>
      </g>
     </g>
    </g>
    <g id="xtick_7">
     <g id="line2d_23">
      <path clip-path="url(#p7d72018917)" d="
M210.213 352.8
L210.213 7.2" style="fill:none;stroke:#000000;stroke-dasharray:1.000000,3.000000;stroke-dashoffset:0.0;stroke-width:0.5;"/>
     </g>
     <g id="line2d_24">
      <g>
       <use style="stroke:#000000;stroke-width:0.5;" x="210.213125" xlink:href="#m93b0483c22" y="352.8"/>
      </g>
     </g>
     <g id="line2d_25">
      <g>
       <use style="stroke:#000000;stroke-width:0.5;" x="210.213125" xlink:href="#m741efc42ff" y="7.2"/>
      </g>
     </g>
     <g id="text_7">
      <!-- 7 -->
      <defs>
       <path d="
M7.79688 62.2969
L7.79688 55.5938
L34.5 55.5938
C31.2969 48.2031 28.2969 40.7969 25.4062 33.2969
C21.2031 22.2969 17.2031 11.2031 13.5 0
L21.4062 0
C24.4062 9.79688 27.7031 19.5 31.2969 29.0938
C34.9062 39 38.9062 48.7031 43.0938 58.4062
L43.0938 62.2969
z
" id="Inconsolata-37"/>
      </defs>
      <g transform="translate(208.0953125 364.76875)scale(0.12 -0.12)">
       <use xlink:href="#Inconsolata-37"/>
      </g>
     </g>
    </g>
    <g id="xtick_8">
     <g id="line2d_26">
      <path clip-path="url(#p7d72018917)" d="
M235.013 352.8
L235.013 7.2" style="fill:none;stroke:#000000;stroke-dasharray:1.000000,3.000000;stroke-dashoffset:0.0;stroke-width:0.5;"/>
     </g>
     <g id="line2d_27">
      <g>
       <use style="stroke:#000000;stroke-width:0.5;" x="235.013125" xlink:href="#m93b0483c22" y="352.8"/>
      </g>
     </g>
     <g id="line2d_28">
      <g>
       <use style="stroke:#000000;stroke-width:0.5;" x="235.013125" xlink:href="#m741efc42ff" y="7.2"/>
      </g>
     </g>
     <g id="text_8">
      <!-- 8 -->
      <defs>
       <path d="
M25.7969 63
C16.2031 63 8.90625 56.0938 8.90625 47.7031
C8.90625 41.5938 12.7969 36 18.4062 33.0938
C11 29.5938 6 22.7969 6 15.5938
C6 6.29688 14.2031 -1.09375 24.9062 -1.09375
C35.7969 -1.09375 44.0938 6.5 44.0938 16
C44.0938 23.4062 39.0938 30 32.0938 33.2969
C38.0938 36.4062 42 42.2969 42 48.2969
C42 56.5 34.9062 63 25.7969 63
M23.7031 30.2031
C31.7031 27.7031 37 22.2031 37 16.0938
C37 10.0938 31.9062 5.20312 25.2031 5.20312
C18.4062 5.20312 13.2031 10.2969 13.2031 16.5
C13.2031 22.4062 17.7969 27.7969 23.7031 30.2031
M25.2031 57.2031
C30.7969 57.2031 35.2031 53 35.2031 47.7969
C35.2031 43 31.5 38.4062 26.5938 35.7969
C26.5938 35.7969 15.5938 40 15.5938 48.2969
C15.5938 53.2031 19.7969 57.2031 25.2031 57.2031" id="Inconsolata-38"/>
      </defs>
      <g transform="translate(232.7275 364.76875)scale(0.12 -0.12)">
       <use xlink:href="#Inconsolata-38"/>
      </g>
     </g>
    </g>
    <g id="xtick_9">
     <g id="line2d_29">
      <path clip-path="url(#p7d72018917)" d="
M259.813 352.8
L259.813 7.2" style="fill:none;stroke:#000000;stroke-dasharray:1.000000,3.000000;stroke-dashoffset:0.0;stroke-width:0.5;"/>
     </g>
     <g id="line2d_30">
      <g>
       <use style="stroke:#000000;stroke-width:0.5;" x="259.813125" xlink:href="#m93b0483c22" y="352.8"/>
      </g>
     </g>
     <g id="line2d_31">
      <g>
       <use style="stroke:#000000;stroke-width:0.5;" x="259.813125" xlink:href="#m741efc42ff" y="7.2"/>
      </g>
     </g>
     <g id="text_9">
      <!-- 9 -->
      <defs>
       <path d="
M21.7031 -1.09375
C29.2969 -1.09375 37.2031 3.5 41 13.4062
C42.0938 16.2969 43.7031 21.7031 43.7031 31.9062
C43.7031 39.7031 43 45.0938 41.5 49.2969
C38.2969 58.9062 31.0938 62.9062 24.5938 62.9062
C14.9062 62.9062 6.79688 54.2969 6.79688 42.2031
C6.79688 30.2969 14.7969 22.5938 23.9062 22.5938
C29 22.5938 33.7969 25.0938 36.7031 29.2969
C36.4062 19.5938 34.7969 15.4062 34.2031 13.9062
C31.5 7.59375 26.2969 5.29688 21.9062 5.29688
C17.4062 5.29688 14.4062 7.5 14.4062 7.59375
C13.5 8.20312 13.7969 9.29688 12.7031 10
L7.90625 4.59375
C11.5938 1 16.5 -1.09375 21.7031 -1.09375
M24.5 28.7031
C19 28.7031 13.5938 33.2031 13.5938 42.5
C13.5938 51.5938 18.7969 56.7031 24.5 56.7031
C31.5 56.7031 37.5 48.9062 36.4062 36.2969
C33.5938 31.5938 29 28.7031 24.5 28.7031" id="Inconsolata-39"/>
      </defs>
      <g transform="translate(257.59875 364.76875)scale(0.12 -0.12)">
       <use xlink:href="#Inconsolata-39"/>
      </g>
     </g>
    </g>
    <g id="xtick_10">
     <g id="line2d_32">
      <path clip-path="url(#p7d72018917)" d="
M284.613 352.8
L284.613 7.2" style="fill:none;stroke:#000000;stroke-dasharray:1.000000,3.000000;stroke-dashoffset:0.0;stroke-width:0.5;"/>
     </g>
     <g id="line2d_33">
      <g>
       <use style="stroke:#000000;stroke-width:0.5;" x="284.613125" xlink:href="#m93b0483c22" y="352.8"/>
      </g>
     </g>
     <g id="line2d_34">
      <g>
       <use style="stroke:#000000;stroke-width:0.5;" x="284.613125" xlink:href="#m741efc42ff" y="7.2"/>
      </g>
     </g>
     <g id="text_10">
      <!-- 10 -->
      <defs>
       <path d="
M25.0938 62.7031
C15.2031 62.7031 5 50.5 5 30.5938
C5 10.4062 15.2969 -1.20312 25.2031 -1.20312
C34.2031 -1.20312 44.9062 8.59375 44.9062 30.0938
C44.9062 51.2969 34.7031 62.7031 25.0938 62.7031
M34.7969 48.4062
L12.9062 20
C12 23.5 11.5 27.4062 11.5 31.7969
C11.5 47.7969 18.7969 56.5938 25 56.5938
C28.4062 56.5938 32.0938 53.9062 34.7969 48.4062
M37.0938 41.7969
C38 38.2969 38.4062 34.0938 38.4062 29.2031
C38.4062 11.7969 30.9062 5.20312 25.4062 5.20312
C21.7031 5.20312 17.9062 8.20312 15.2031 13.7031
z
" id="Inconsolata-30"/>
      </defs>
      <g transform="translate(279.4465625 364.76875)scale(0.12 -0.12)">
       <use xlink:href="#Inconsolata-31"/>
       <use x="49.9999847412" xlink:href="#Inconsolata-30"/>
      </g>
     </g>
    </g>
    <g id="xtick_11">
     <g id="line2d_35">
      <path clip-path="url(#p7d72018917)" d="
M309.413 352.8
L309.413 7.2" style="fill:none;stroke:#000000;stroke-dasharray:1.000000,3.000000;stroke-dashoffset:0.0;stroke-width:0.5;"/>
     </g>
     <g id="line2d_36">
      <g>
       <use style="stroke:#000000;stroke-width:0.5;" x="309.413125" xlink:href="#m93b0483c22" y="352.8"/>
      </g>
     </g>
     <g id="line2d_37">
      <g>
       <use style="stroke:#000000;stroke-width:0.5;" x="309.413125" xlink:href="#m741efc42ff" y="7.2"/>
      </g>
     </g>
     <g id="text_11">
      <!-- 11 -->
      <g transform="translate(305.1465625 364.76875)scale(0.12 -0.12)">
       <use xlink:href="#Inconsolata-31"/>
       <use x="49.9999847412" xlink:href="#Inconsolata-31"/>
      </g>
     </g>
    </g>
    <g id="xtick_12">
     <g id="line2d_38">
      <path clip-path="url(#p7d72018917)" d="
M334.213 352.8
L334.213 7.2" style="fill:none;stroke:#000000;stroke-dasharray:1.000000,3.000000;stroke-dashoffset:0.0;stroke-width:0.5;"/>
     </g>
     <g id="line2d_39">
      <g>
       <use style="stroke:#000000;stroke-width:0.5;" x="334.213125" xlink:href="#m93b0483c22" y="352.8"/>
      </g>
     </g>
     <g id="line2d_40">
      <g>
       <use style="stroke:#000000;stroke-width:0.5;" x="334.213125" xlink:href="#m741efc42ff" y="7.2"/>
      </g>
     </g>
     <g id="text_12">
      <!-- 12 -->
      <g transform="translate(329.1065625 364.76875)scale(0.12 -0.12)">
       <use xlink:href="#Inconsolata-31"/>
       <use x="49.9999847412" xlink:href="#Inconsolata-32"/>
      </g>
     </g>
    </g>
    <g id="xtick_13">
     <g id="line2d_41">
      <path clip-path="url(#p7d72018917)" d="
M359.013 352.8
L359.013 7.2" style="fill:none;stroke:#000000;stroke-dasharray:1.000000,3.000000;stroke-dashoffset:0.0;stroke-width:0.5;"/>
     </g>
     <g id="line2d_42">
      <g>
       <use style="stroke:#000000;stroke-width:0.5;" x="359.013125" xlink:href="#m93b0483c22" y="352.8"/>
      </g>
     </g>
     <g id="line2d_43">
      <g>
       <use style="stroke:#000000;stroke-width:0.5;" x="359.013125" xlink:href="#m741efc42ff" y="7.2"/>
      </g>
     </g>
     <g id="text_13">
      <!-- 13 -->
      <g transform="translate(353.9965625 364.76875)scale(0.12 -0.12)">
       <use xlink:href="#Inconsolata-31"/>
       <use x="49.9999847412" xlink:href="#Inconsolata-33"/>
      </g>
     </g>
    </g>
    <g id="xtick_14">
     <g id="line2d_44">
      <path clip-path="url(#p7d72018917)" d="
M383.813 352.8
L383.813 7.2" style="fill:none;stroke:#000000;stroke-dasharray:1.000000,3.000000;stroke-dashoffset:0.0;stroke-width:0.5;"/>
     </g>
     <g id="line2d_45">
      <g>
       <use style="stroke:#000000;stroke-width:0.5;" x="383.813125" xlink:href="#m93b0483c22" y="352.8"/>
      </g>
     </g>
     <g id="line2d_46">
      <g>
       <use style="stroke:#000000;stroke-width:0.5;" x="383.813125" xlink:href="#m741efc42ff" y="7.2"/>
      </g>
     </g>
     <g id="text_14">
      <!-- 14 -->
      <g transform="translate(378.62875 364.76875)scale(0.12 -0.12)">
       <use xlink:href="#Inconsolata-31"/>
       <use x="49.9999847412" xlink:href="#Inconsolata-34"/>
      </g>
     </g>
    </g>
    <g id="xtick_15">
     <g id="line2d_47">
      <path clip-path="url(#p7d72018917)" d="
M408.613 352.8
L408.613 7.2" style="fill:none;stroke:#000000;stroke-dasharray:1.000000,3.000000;stroke-dashoffset:0.0;stroke-width:0.5;"/>
     </g>
     <g id="line2d_48">
      <g>
       <use style="stroke:#000000;stroke-width:0.5;" x="408.613125" xlink:href="#m93b0483c22" y="352.8"/>
      </g>
     </g>
     <g id="line2d_49">
      <g>
       <use style="stroke:#000000;stroke-width:0.5;" x="408.613125" xlink:href="#m741efc42ff" y="7.2"/>
      </g>
     </g>
     <g id="text_15">
      <!-- 15 -->
      <g transform="translate(403.4709375 364.76875)scale(0.12 -0.12)">
       <use xlink:href="#Inconsolata-31"/>
       <use x="49.9999847412" xlink:href="#Inconsolata-35"/>
      </g>
     </g>
    </g>
    <g id="xtick_16">
     <g id="line2d_50">
      <path clip-path="url(#p7d72018917)" d="
M433.413 352.8
L433.413 7.2" style="fill:none;stroke:#000000;stroke-dasharray:1.000000,3.000000;stroke-dashoffset:0.0;stroke-width:0.5;"/>
     </g>
     <g id="line2d_51">
      <g>
       <use style="stroke:#000000;stroke-width:0.5;" x="433.413125" xlink:href="#m93b0483c22" y="352.8"/>
      </g>
     </g>
     <g id="line2d_52">
      <g>
       <use style="stroke:#000000;stroke-width:0.5;" x="433.413125" xlink:href="#m741efc42ff" y="7.2"/>
      </g>
     </g>
     <g id="text_16">
      <!-- 16 -->
      <g transform="translate(428.3065625 364.76875)scale(0.12 -0.12)">
       <use xlink:href="#Inconsolata-31"/>
       <use x="49.9999847412" xlink:href="#Inconsolata-36"/>
      </g>
     </g>
    </g>
    <g id="xtick_17">
     <g id="line2d_53">
      <path clip-path="url(#p7d72018917)" d="
M458.213 352.8
L458.213 7.2" style="fill:none;stroke:#000000;stroke-dasharray:1.000000,3.000000;stroke-dashoffset:0.0;stroke-width:0.5;"/>
     </g>
     <g id="line2d_54">
      <g>
       <use style="stroke:#000000;stroke-width:0.5;" x="458.213125" xlink:href="#m93b0483c22" y="352.8"/>
      </g>
     </g>
     <g id="line2d_55">
      <g>
       <use style="stroke:#000000;stroke-width:0.5;" x="458.213125" xlink:href="#m741efc42ff" y="7.2"/>
      </g>
     </g>
     <g id="text_17">
      <!-- 17 -->
      <g transform="translate(453.1553125 364.76875)scale(0.12 -0.12)">
       <use xlink:href="#Inconsolata-31"/>
       <use x="49.9999847412" xlink:href="#Inconsolata-37"/>
      </g>
     </g>
    </g>
    <g id="text_18">
     <!-- number of parallel processes -->
     <defs>
      <path id="Inconsolata-20"/>
      <path d="
M6.20312 45.5938
L6.20312 20.0938
C6.20312 16.2031 6.20312 12.2031 8 8.09375
C10.5938 2.09375 16.2031 -1.20312 22.2031 -1.20312
C27.9062 -1.20312 33.2969 1.90625 36.2969 6.90625
L36.2031 3.5
C36.2031 2.29688 36.2031 1.09375 36.4062 0
L44 0
C43.5 1.29688 43.4062 2.79688 43.4062 4.09375
L43.4062 45.5938
L36.2031 45.5938
L36.2031 20.5
C36.2031 17 35.9062 14.2969 34.4062 11.5
C32.2969 7.59375 28.2031 4.70312 23.7969 4.70312
C20.2969 4.70312 16.9062 6.70312 15.0938 10.2969
C13.5 13.5 13.5 17.0938 13.5 20.0938
L13.5 45.5938
z
" id="Inconsolata-75"/>
      <path d="
M25.7969 46.7031
C14.9062 46.7031 4.79688 38.9062 4.79688 22.2969
C4.79688 7 14.2969 -1.09375 26.7031 -1.09375
C33.2969 -1.09375 39.2031 1.29688 43.0938 6
L39.0938 9.90625
C36.2031 6.5 31.7969 4.70312 27.2969 4.70312
C21.2031 4.70312 12.2969 8.09375 11.7969 21.7969
L44.2031 21.7969
C44.5 24.9062 44.4062 27.9062 43.9062 30.5
C41.7969 42.7969 33.2969 46.7031 25.7969 46.7031
M12 27.2969
C13.5 38.0938 20.4062 41.2031 25.2969 41.2031
C32.7031 41.2031 38 34.7031 37.0938 27.2969
z
" id="Inconsolata-65"/>
      <path d="
M5.90625 66.5
L5.90625 0
L10.5938 0
L13.0938 6
C16.0938 1.5 21.0938 -1.20312 26.5938 -1.20312
C36 -1.20312 45.7031 6.79688 45.7031 23.4062
C45.7031 39.2969 36.2969 46.7031 27.2969 46.7031
C21.5 46.7031 16.0938 43.5938 13.2031 38.5938
L13.2031 64.2031
C13.2031 64.7969 13.2969 65 13.7969 65.4062
C14 65.5 14.5 65.9062 14.4062 66.5
z

M24.7969 40.5
C29.0938 40.5 38.2031 38 38.2031 21.7969
C38.2031 7.90625 29.2031 5.29688 24.7031 5.29688
C21.5938 5.29688 14.7031 6.5 13.5 15.2969
C13.2031 17.5938 13.2031 20.2969 13.2031 24.2969
C13.2031 28.4062 13.4062 31.4062 14.4062 33.9062
C16.0938 38 20.2969 40.5 24.7969 40.5" id="Inconsolata-62"/>
      <path d="
M5.90625 45.5938
L6 -16.7031
L13.2969 -16.7031
L13.2969 6
C16.4062 1.5 21.5 -1.29688 27 -1.29688
C36.4062 -1.29688 46.2031 6.59375 46.2031 23.2969
C46.2031 39.4062 36.7031 46.5938 27.7031 46.5938
C21.7969 46.5938 16.2969 43.5938 13.2031 38.5938
L13.2031 45.5938
z

M25 40.5
C29 40.5 38.7031 38.4062 38.7031 21.7969
C38.7031 7.40625 29.2969 5.09375 25 5.09375
C20.7031 5.09375 16.2969 7.29688 14.5 11.4062
C13.2031 14.5 13.2031 18.2969 13.2031 24.9062
C13.2031 28.7031 13.4062 31.5 14.4062 33.9062
C16.2031 38 20.4062 40.5 25 40.5" id="Inconsolata-70"/>
      <path d="
M43.2031 39.5938
C39 44.2031 32.9062 46.7031 26.0938 46.7031
C15.5 46.7031 8.59375 40.7969 8.59375 34
C8.59375 26 17.2031 23.0938 19.7031 22.2031
C23.5938 20.7969 28.5938 19.5938 32 18
C35.7969 16.2031 36.5 13.7969 36.5 12.2031
C36.5 7.90625 31.2969 5 24.7969 5
C17 5 12 9.70312 10.5 11.2969
C10.2031 11.7031 10.2031 12 10.2031 12.4062
C10.2031 12.5 10.2969 13.0938 9.79688 13.2969
L5.59375 6.20312
C11 1.20312 18 -1.09375 24.9062 -1.09375
C37.4062 -1.09375 43.9062 6.29688 43.9062 13.2031
C43.9062 16.2969 42.5938 20.5 37.2031 23.5
C32.0938 26.4062 24.7031 27.4062 20.4062 29.5
C16.7031 31.2969 15.9062 33.5 15.9062 35.0938
C15.9062 38.7031 20.4062 41.2969 25.5 41.2969
C32.0938 41.2969 36.5 37.2969 38.2031 35
C38.5 34.7031 38.4062 34.4062 38.4062 34.0938
C38.4062 33.5 38.7969 33.2969 39 33.2969
z
" id="Inconsolata-73"/>
      <path d="
M9.90625 45.5938
L9.90625 -0.09375
L17.0938 -0.09375
L17.0938 22.0938
C17.0938 24.9062 17.2031 27.9062 20.2969 32.7969
C24.5 39.4062 29.9062 40.5 33.2031 40.5
C37 40.5 39.4062 38.7031 40.7031 37.0938
C41.2969 36.2969 41.5938 35.5 42.4062 34.7969
L45.7969 41.7031
C42.9062 44.7031 38.7031 46.7031 33.5938 46.7031
C26.9062 46.7031 20.0938 43.2969 17.0938 36.7969
L17.4062 45.5938
z
" id="Inconsolata-72"/>
      <path d="
M9 40.2969
L12.5 35.7031
C16.2969 39.5938 21.4062 40.7969 25.7031 40.7969
C31.0938 40.7969 33.7969 38.5 35.0938 36.4062
C36.5938 33.9062 36.5 30.9062 36.5 28.5
L36.5 26.9062
L35.0938 26.9062
C28.2969 26.9062 21.0938 26.9062 15.2969 24.7969
C8.09375 22.2031 4.90625 16.7969 4.90625 11.7969
C4.90625 5.09375 10.7031 -1.20312 20.2031 -1.20312
C25.7969 -1.20312 31.5938 0.90625 36.5938 5
L36.5938 0
L43.4062 0
L43.4062 28.2969
C43.4062 32 43.2969 35.5 41.2031 39.0938
C38.2031 44 32.4062 46.5938 25.2969 46.5938
C19.2031 46.5938 13.2969 44.7031 9 40.2969
M36.7969 21.4062
L36.7969 18.2969
C36.7969 16 36.7969 13 33.7031 9.70312
C32 8 27.7031 4.29688 21.7031 4.29688
C15.5938 4.29688 12.0938 8.20312 12.0938 12.2031
C12.0938 15.5938 14.4062 19.2969 20.0938 20.7031
C24.2969 21.7031 30.4062 21.4062 35.2031 21.4062
z
" id="Inconsolata-61"/>
      <path d="
M34.2969 67
C27.9062 67 21.9062 64.2969 18.7031 59.0938
C16.2969 55.2969 16.2031 51.5 16.2031 47.4062
L16.2031 42.9062
L6.20312 42.9062
L6.20312 37.2031
L16.2031 37.2031
L16.2031 0
L23.0938 0
L23.0938 37.2031
L38 37.2031
L38 42.9062
L23.0938 42.9062
L23.0938 46.5
C23.0938 49.7969 23 53.2969 24.7031 56.2969
C26.5938 59.7031 30.2031 61.4062 33.9062 61.4062
C38.2969 61.4062 42 59.0938 43.9062 56.2031
C44.2031 55.7031 44.2031 55.4062 44.2031 55
C44.2031 54.2969 44.7031 54.0938 45 54.0938
L48.2969 60.7969
C45 64.7031 40 67 34.2969 67" id="Inconsolata-66"/>
      <path d="
M46 22.5938
C46 38.4062 36 46.5938 25.5938 46.5938
C14 46.5938 4 36.5938 4 22.4062
C4 8.5 13.9062 -1.29688 25.4062 -1.29688
C36.2031 -1.29688 46 7.40625 46 22.5938
M25.0938 40.5
C31.7031 40.5 38.7031 34.7969 38.7031 22.2969
C38.7031 10.7969 32.0938 5 25.5 5
C18.2031 5 11.5938 11.7969 11.5938 23.0938
C11.5938 34.2969 18.0938 40.5 25.0938 40.5" id="Inconsolata-6f"/>
      <path d="
M3.70312 0
L10.2969 0
L10.2969 30.4062
C10.2969 32.5938 10.5 34.5938 11.7969 37
C13.4062 40 15.4062 41.2031 17.2969 41.2031
C18.9062 41.2031 20.7031 40.2031 21.5 37.7031
C22.0938 35.7969 22 33.5938 22 31.7031
L22 0
L28.7031 0
L28.7031 30.2031
C28.7031 32.5938 28.9062 34.5 30.5938 37.4062
C31.4062 38.5938 33.0938 41.5 35.9062 41.5
C37.4062 41.5 38.7969 40.5938 39.5 38.9062
C40.4062 37 40.2031 34.4062 40.2031 32.2969
L40.2031 -0.09375
L47 -0.09375
L47 32.4062
C47 36.2031 47.0938 40 45.0938 43.0938
C43.4062 45.7031 40.5 46.7031 38 46.7031
C33.5938 46.7031 29.5 44.0938 27.7031 40.0938
C27 43.9062 23.7969 46.7031 19.7031 46.7031
C15.9062 46.7031 12.4062 44.2969 10.2969 41.0938
L10.4062 45.5938
L3.70312 45.5938
z
" id="Inconsolata-6d"/>
      <path d="
M6.79688 0
L14.0938 0
L14.0938 26.2969
C14.0938 29.2969 14.5 31.5938 16.4062 34.0938
C18.0938 36.4062 22.5 40.5 27.2969 40.5
C29.5938 40.5 31.9062 39.5 33.5 37.5938
C36 34.5938 36 30.7031 36 27.5
L36 0
L43.0938 0
L43.0938 27.7031
C43.0938 31.2031 43.0938 35 41.5 38.7031
C39.2031 43.7969 34.5 46.7031 29.2969 46.7031
C23.0938 46.7031 17.5 42.7031 14.0938 37.5938
L14.0938 45.5938
L6.79688 45.5938
z
" id="Inconsolata-6e"/>
      <path d="
M8.40625 66.4062
L8.40625 60.5938
L21.4062 60.5938
L21.4062 5.70312
L7.79688 5.70312
L7.79688 0
L42.0938 0
L42.0938 5.70312
L28.5938 5.70312
L28.5938 66.4062
z
" id="Inconsolata-6c"/>
      <path d="
M45.5938 38.0938
C42 43.4062 35.9062 46.5938 28.5 46.5938
C15.0938 46.5938 5.59375 36.5 5.59375 22.7969
C5.59375 9 15.0938 -1.20312 28.0938 -1.20312
C34.4062 -1.20312 40.5938 1.40625 44.9062 6.09375
L40.7969 10.9062
C37.7031 7.40625 33.2031 5.40625 28.7031 5.40625
C19.7969 5.40625 13 12.7969 13 23.5
C13 33.9062 19.7031 40.4062 28.0938 40.4062
C35.9062 40.4062 39.5938 35 39.9062 34.4062
C40.2969 33.7031 39.7031 32.7031 40.5 32.0938
z
" id="Inconsolata-63"/>
     </defs>
     <g transform="translate(176.17875 379.813125)scale(0.12 -0.12)">
      <use xlink:href="#Inconsolata-6e"/>
      <use x="49.9999847412" xlink:href="#Inconsolata-75"/>
      <use x="99.9999694824" xlink:href="#Inconsolata-6d"/>
      <use x="149.999954224" xlink:href="#Inconsolata-62"/>
      <use x="199.999938965" xlink:href="#Inconsolata-65"/>
      <use x="249.999923706" xlink:href="#Inconsolata-72"/>
      <use x="299.999908447" xlink:href="#Inconsolata-20"/>
      <use x="349.999893188" xlink:href="#Inconsolata-6f"/>
      <use x="399.99987793" xlink:href="#Inconsolata-66"/>
      <use x="449.999862671" xlink:href="#Inconsolata-20"/>
      <use x="499.999847412" xlink:href="#Inconsolata-70"/>
      <use x="549.999832153" xlink:href="#Inconsolata-61"/>
      <use x="599.999816895" xlink:href="#Inconsolata-72"/>
      <use x="649.999801636" xlink:href="#Inconsolata-61"/>
      <use x="699.999786377" xlink:href="#Inconsolata-6c"/>
      <use x="749.999771118" xlink:href="#Inconsolata-6c"/>
      <use x="799.999755859" xlink:href="#Inconsolata-65"/>
      <use x="849.999740601" xlink:href="#Inconsolata-6c"/>
      <use x="899.999725342" xlink:href="#Inconsolata-20"/>
      <use x="949.999710083" xlink:href="#Inconsolata-70"/>
      <use x="999.999694824" xlink:href="#Inconsolata-72"/>
      <use x="1049.99967957" xlink:href="#Inconsolata-6f"/>
      <use x="1099.99966431" xlink:href="#Inconsolata-63"/>
      <use x="1149.99964905" xlink:href="#Inconsolata-65"/>
      <use x="1199.99963379" xlink:href="#Inconsolata-73"/>
      <use x="1249.99961853" xlink:href="#Inconsolata-73"/>
      <use x="1299.99960327" xlink:href="#Inconsolata-65"/>
      <use x="1349.99958801" xlink:href="#Inconsolata-73"/>
     </g>
    </g>
   </g>
   <g id="matplotlib.axis_2">
    <g id="ytick_1">
     <g id="line2d_56">
      <path clip-path="url(#p7d72018917)" d="
M36.6131 352.8
L483.013 352.8" style="fill:none;stroke:#000000;stroke-dasharray:1.000000,3.000000;stroke-dashoffset:0.0;stroke-width:0.5;"/>
     </g>
     <g id="line2d_57">
      <defs>
       <path d="
M0 0
L4 0" id="m728421d6d4" style="stroke:#000000;stroke-width:0.5;"/>
      </defs>
      <g>
       <use style="stroke:#000000;stroke-width:0.5;" x="36.613125" xlink:href="#m728421d6d4" y="352.8"/>
      </g>
     </g>
     <g id="line2d_58">
      <defs>
       <path d="
M0 0
L-4 0" id="mcb0005524f" style="stroke:#000000;stroke-width:0.5;"/>
      </defs>
      <g>
       <use style="stroke:#000000;stroke-width:0.5;" x="483.013125" xlink:href="#mcb0005524f" y="352.8"/>
      </g>
     </g>
     <g id="text_19">
      <!-- 0 -->
      <g transform="translate(27.824375 355.7821875)scale(0.12 -0.12)">
       <use xlink:href="#Inconsolata-30"/>
      </g>
     </g>
    </g>
    <g id="ytick_2">
     <g id="line2d_59">
      <path clip-path="url(#p7d72018917)" d="
M36.6131 306.72
L483.013 306.72" style="fill:none;stroke:#000000;stroke-dasharray:1.000000,3.000000;stroke-dashoffset:0.0;stroke-width:0.5;"/>
     </g>
     <g id="line2d_60">
      <g>
       <use style="stroke:#000000;stroke-width:0.5;" x="36.613125" xlink:href="#m728421d6d4" y="306.72"/>
      </g>
     </g>
     <g id="line2d_61">
      <g>
       <use style="stroke:#000000;stroke-width:0.5;" x="483.013125" xlink:href="#mcb0005524f" y="306.72"/>
      </g>
     </g>
     <g id="text_20">
      <!-- 2 -->
      <g transform="translate(28.22 309.7021875)scale(0.12 -0.12)">
       <use xlink:href="#Inconsolata-32"/>
      </g>
     </g>
    </g>
    <g id="ytick_3">
     <g id="line2d_62">
      <path clip-path="url(#p7d72018917)" d="
M36.6131 260.64
L483.013 260.64" style="fill:none;stroke:#000000;stroke-dasharray:1.000000,3.000000;stroke-dashoffset:0.0;stroke-width:0.5;"/>
     </g>
     <g id="line2d_63">
      <g>
       <use style="stroke:#000000;stroke-width:0.5;" x="36.613125" xlink:href="#m728421d6d4" y="260.64"/>
      </g>
     </g>
     <g id="line2d_64">
      <g>
       <use style="stroke:#000000;stroke-width:0.5;" x="483.013125" xlink:href="#mcb0005524f" y="260.64"/>
      </g>
     </g>
     <g id="text_21">
      <!-- 4 -->
      <g transform="translate(27.764375 263.6221875)scale(0.12 -0.12)">
       <use xlink:href="#Inconsolata-34"/>
      </g>
     </g>
    </g>
    <g id="ytick_4">
     <g id="line2d_65">
      <path clip-path="url(#p7d72018917)" d="
M36.6131 214.56
L483.013 214.56" style="fill:none;stroke:#000000;stroke-dasharray:1.000000,3.000000;stroke-dashoffset:0.0;stroke-width:0.5;"/>
     </g>
     <g id="line2d_66">
      <g>
       <use style="stroke:#000000;stroke-width:0.5;" x="36.613125" xlink:href="#m728421d6d4" y="214.56"/>
      </g>
     </g>
     <g id="line2d_67">
      <g>
       <use style="stroke:#000000;stroke-width:0.5;" x="483.013125" xlink:href="#mcb0005524f" y="214.56"/>
      </g>
     </g>
     <g id="text_22">
      <!-- 6 -->
      <g transform="translate(28.14875 217.5421875)scale(0.12 -0.12)">
       <use xlink:href="#Inconsolata-36"/>
      </g>
     </g>
    </g>
    <g id="ytick_5">
     <g id="line2d_68">
      <path clip-path="url(#p7d72018917)" d="
M36.6131 168.48
L483.013 168.48" style="fill:none;stroke:#000000;stroke-dasharray:1.000000,3.000000;stroke-dashoffset:0.0;stroke-width:0.5;"/>
     </g>
     <g id="line2d_69">
      <g>
       <use style="stroke:#000000;stroke-width:0.5;" x="36.613125" xlink:href="#m728421d6d4" y="168.48"/>
      </g>
     </g>
     <g id="line2d_70">
      <g>
       <use style="stroke:#000000;stroke-width:0.5;" x="483.013125" xlink:href="#mcb0005524f" y="168.48"/>
      </g>
     </g>
     <g id="text_23">
      <!-- 8 -->
      <g transform="translate(28.041875 171.4621875)scale(0.12 -0.12)">
       <use xlink:href="#Inconsolata-38"/>
      </g>
     </g>
    </g>
    <g id="ytick_6">
     <g id="line2d_71">
      <path clip-path="url(#p7d72018917)" d="
M36.6131 122.4
L483.013 122.4" style="fill:none;stroke:#000000;stroke-dasharray:1.000000,3.000000;stroke-dashoffset:0.0;stroke-width:0.5;"/>
     </g>
     <g id="line2d_72">
      <g>
       <use style="stroke:#000000;stroke-width:0.5;" x="36.613125" xlink:href="#m728421d6d4" y="122.4"/>
      </g>
     </g>
     <g id="line2d_73">
      <g>
       <use style="stroke:#000000;stroke-width:0.5;" x="483.013125" xlink:href="#mcb0005524f" y="122.4"/>
      </g>
     </g>
     <g id="text_24">
      <!-- 10 -->
      <g transform="translate(22.28 125.3821875)scale(0.12 -0.12)">
       <use xlink:href="#Inconsolata-31"/>
       <use x="49.9999847412" xlink:href="#Inconsolata-30"/>
      </g>
     </g>
    </g>
    <g id="ytick_7">
     <g id="line2d_74">
      <path clip-path="url(#p7d72018917)" d="
M36.6131 76.32
L483.013 76.32" style="fill:none;stroke:#000000;stroke-dasharray:1.000000,3.000000;stroke-dashoffset:0.0;stroke-width:0.5;"/>
     </g>
     <g id="line2d_75">
      <g>
       <use style="stroke:#000000;stroke-width:0.5;" x="36.613125" xlink:href="#m728421d6d4" y="76.32"/>
      </g>
     </g>
     <g id="line2d_76">
      <g>
       <use style="stroke:#000000;stroke-width:0.5;" x="483.013125" xlink:href="#mcb0005524f" y="76.32"/>
      </g>
     </g>
     <g id="text_25">
      <!-- 12 -->
      <g transform="translate(22.4 79.3021875)scale(0.12 -0.12)">
       <use xlink:href="#Inconsolata-31"/>
       <use x="49.9999847412" xlink:href="#Inconsolata-32"/>
      </g>
     </g>
    </g>
    <g id="ytick_8">
     <g id="line2d_77">
      <path clip-path="url(#p7d72018917)" d="
M36.6131 30.24
L483.013 30.24" style="fill:none;stroke:#000000;stroke-dasharray:1.000000,3.000000;stroke-dashoffset:0.0;stroke-width:0.5;"/>
     </g>
     <g id="line2d_78">
      <g>
       <use style="stroke:#000000;stroke-width:0.5;" x="36.613125" xlink:href="#m728421d6d4" y="30.24"/>
      </g>
     </g>
     <g id="line2d_79">
      <g>
       <use style="stroke:#000000;stroke-width:0.5;" x="483.013125" xlink:href="#mcb0005524f" y="30.24"/>
      </g>
     </g>
     <g id="text_26">
      <!-- 14 -->
      <g transform="translate(22.244375 33.2221875)scale(0.12 -0.12)">
       <use xlink:href="#Inconsolata-31"/>
       <use x="49.9999847412" xlink:href="#Inconsolata-34"/>
      </g>
     </g>
    </g>
    <g id="text_27">
     <!-- speed-up factor -->
     <defs>
      <path d="
M18.7969 57.9062
L17.9062 45.5938
L7 45.5938
L6.90625 39.7031
L17.5938 39.7031
C17 31.9062 16.7031 24.0938 16.7031 16.4062
C16.7031 12.2969 16.7031 7.70312 19.4062 3.90625
C21.5938 0.90625 25.0938 -0.90625 29.7969 -0.90625
C35.2031 -0.90625 40.5 1.40625 44.4062 4.20312
L42.2031 9.90625
C38.2969 7 34.7031 5.70312 31.9062 5.70312
C28.5 5.70312 25 7.59375 24.2031 13.0938
C24.2031 13.5 23.9062 15.2031 23.9062 21.9062
C23.9062 27.7969 24.2031 33.7969 24.7969 39.7031
L39.7969 39.7031
L39.7969 45.7031
L24.9062 45.7031
C24.9062 45.7031 25.5938 53.9062 26.0938 56.5
C26.2031 57.5 27 58.0938 26.5938 59.2031
z
" id="Inconsolata-74"/>
      <path d="
M37.0938 39
C34.9062 43.7031 30 46.7969 23.7031 46.7969
C15 46.7969 4.40625 40.5938 4.40625 23.2031
C4.40625 6.29688 13.7969 -1.09375 22.5938 -1.09375
C28.4062 -1.09375 33.7969 2.20312 36.7031 7.29688
L36.7031 3.29688
C36.7031 2.20312 36.7969 1.09375 37.0938 0
L44.2969 0
C43.9062 1.29688 43.9062 2.79688 43.9062 4.20312
L43.7969 63.5938
C43.7969 64.2031 43.7969 64.4062 44.2031 65
C44.4062 65.2969 44.7969 65.7969 44.7031 66.5
L37.0938 66.5
z

M24 40.9062
C28 40.9062 33.9062 38.7969 35.7031 32
C36.2969 29.9062 36.5 27.4062 36.5 22.2969
C36.5 18.7969 36.2969 16.2969 35.5 13.9062
C33.7969 8.5 29 5.29688 24.2969 5.29688
C19.0938 5.29688 11.4062 9.29688 11.4062 24.2969
C11.4062 37.4062 18.7031 40.9062 24 40.9062" id="Inconsolata-64"/>
      <path d="
M7 34.7031
L7 28.0938
L43 28.0938
L43 34.7031
z
" id="Inconsolata-2d"/>
     </defs>
     <g transform="translate(15.24 224.7478125)rotate(-90.0)scale(0.12 -0.12)">
      <use xlink:href="#Inconsolata-73"/>
      <use x="49.9999847412" xlink:href="#Inconsolata-70"/>
      <use x="99.9999694824" xlink:href="#Inconsolata-65"/>
      <use x="149.999954224" xlink:href="#Inconsolata-65"/>
      <use x="199.999938965" xlink:href="#Inconsolata-64"/>
      <use x="249.999923706" xlink:href="#Inconsolata-2d"/>
      <use x="299.999908447" xlink:href="#Inconsolata-75"/>
      <use x="349.999893188" xlink:href="#Inconsolata-70"/>
      <use x="399.99987793" xlink:href="#Inconsolata-20"/>
      <use x="449.999862671" xlink:href="#Inconsolata-66"/>
      <use x="499.999847412" xlink:href="#Inconsolata-61"/>
      <use x="549.999832153" xlink:href="#Inconsolata-63"/>
      <use x="599.999816895" xlink:href="#Inconsolata-74"/>
      <use x="649.999801636" xlink:href="#Inconsolata-6f"/>
      <use x="699.999786377" xlink:href="#Inconsolata-72"/>
     </g>
    </g>
   </g>
   <g id="patch_3">
    <path d="
M36.6131 7.2
L483.013 7.2" style="fill:none;stroke:#000000;"/>
   </g>
   <g id="patch_4">
    <path d="
M483.013 352.8
L483.013 7.2" style="fill:none;stroke:#000000;"/>
   </g>
   <g id="patch_5">
    <path d="
M36.6131 352.8
L483.013 352.8" style="fill:none;stroke:#000000;"/>
   </g>
   <g id="patch_6">
    <path d="
M36.6131 352.8
L36.6131 7.2" style="fill:none;stroke:#000000;"/>
   </g>
   <g id="legend_1">
    <g id="patch_7">
     <path d="
M43.8131 97.461
L138.162 97.461
L138.162 14.4
L43.8131 14.4
L43.8131 97.461
z
" style="fill:#ffffff;stroke:#000000;"/>
    </g>
    <g id="line2d_80">
     <path d="
M53.8931 25.2
L74.0531 25.2" style="fill:none;stroke:#0000ff;stroke-linecap:square;stroke-width:2;"/>
    </g>
    <g id="line2d_81">
     <g>
      <use style="fill:#0000ff;stroke:#000000;stroke-width:0.5;" x="53.893125" xlink:href="#mf1e9a9e4ae" y="25.2"/>
      <use style="fill:#0000ff;stroke:#000000;stroke-width:0.5;" x="74.053125" xlink:href="#mf1e9a9e4ae" y="25.2"/>
     </g>
    </g>
    <g id="text_28">
     <!-- N = 14 -->
     <defs>
      <path d="
M5 0
L11.7031 0
L11.7031 49
L39.0938 -0.09375
L44.7031 -0.09375
L44.7031 59.7031
C44.7031 60.4062 44.7969 60.5938 45.0938 61.0938
C45.2031 61.2969 45.4062 61.7969 45.2969 62.2969
L37.9062 62.2969
L37.9062 16.0938
L11.7969 62.2969
L5 62.2969
z
" id="Inconsolata-4e"/>
      <path d="
M4.40625 43.7969
L4.40625 37.7031
L45.5 37.7031
L45.5 43.7969
z

M4.40625 23.0938
L4.40625 17
L45.5 17
L45.5 23.0938
z
" id="Inconsolata-3d"/>
     </defs>
     <g transform="translate(89.893125 30.24)scale(0.144 -0.144)">
      <use xlink:href="#Inconsolata-4e"/>
      <use x="49.9999847412" xlink:href="#Inconsolata-20"/>
      <use x="99.9999694824" xlink:href="#Inconsolata-3d"/>
      <use x="149.999954224" xlink:href="#Inconsolata-20"/>
      <use x="199.999938965" xlink:href="#Inconsolata-31"/>
      <use x="249.999923706" xlink:href="#Inconsolata-34"/>
     </g>
    </g>
    <g id="line2d_82">
     <path d="
M53.8931 44.8852
L74.0531 44.8852" style="fill:none;stroke:#008000;stroke-linecap:square;stroke-width:2;"/>
    </g>
    <g id="line2d_83">
     <g>
      <use style="fill:#008000;stroke:#000000;stroke-width:0.5;" x="53.893125" xlink:href="#mbbe02196b1" y="44.88525"/>
      <use style="fill:#008000;stroke:#000000;stroke-width:0.5;" x="74.053125" xlink:href="#mbbe02196b1" y="44.88525"/>
     </g>
    </g>
    <g id="text_29">
     <!-- N = 15 -->
     <g transform="translate(89.893125 49.92525)scale(0.144 -0.144)">
      <use xlink:href="#Inconsolata-4e"/>
      <use x="49.9999847412" xlink:href="#Inconsolata-20"/>
      <use x="99.9999694824" xlink:href="#Inconsolata-3d"/>
      <use x="149.999954224" xlink:href="#Inconsolata-20"/>
      <use x="199.999938965" xlink:href="#Inconsolata-31"/>
      <use x="249.999923706" xlink:href="#Inconsolata-35"/>
     </g>
    </g>
    <g id="line2d_84">
     <path d="
M53.8931 64.5705
L74.0531 64.5705" style="fill:none;stroke:#ff0000;stroke-linecap:square;stroke-width:2;"/>
    </g>
    <g id="line2d_85">
     <g>
      <use style="fill:#ff0000;stroke:#000000;stroke-width:0.5;" x="53.893125" xlink:href="#md175be6dbf" y="64.5705"/>
      <use style="fill:#ff0000;stroke:#000000;stroke-width:0.5;" x="74.053125" xlink:href="#md175be6dbf" y="64.5705"/>
     </g>
    </g>
    <g id="text_30">
     <!-- N = 16 -->
     <g transform="translate(89.893125 69.6105)scale(0.144 -0.144)">
      <use xlink:href="#Inconsolata-4e"/>
      <use x="49.9999847412" xlink:href="#Inconsolata-20"/>
      <use x="99.9999694824" xlink:href="#Inconsolata-3d"/>
      <use x="149.999954224" xlink:href="#Inconsolata-20"/>
      <use x="199.999938965" xlink:href="#Inconsolata-31"/>
      <use x="249.999923706" xlink:href="#Inconsolata-36"/>
     </g>
    </g>
    <g id="line2d_86">
     <path d="
M53.8931 84.2557
L74.0531 84.2557" style="fill:none;stroke:#00bfbf;stroke-linecap:square;stroke-width:2;"/>
    </g>
    <g id="line2d_87">
     <g>
      <use style="fill:#00bfbf;stroke:#000000;stroke-width:0.5;" x="53.893125" xlink:href="#m251ff29c8c" y="84.25575"/>
      <use style="fill:#00bfbf;stroke:#000000;stroke-width:0.5;" x="74.053125" xlink:href="#m251ff29c8c" y="84.25575"/>
     </g>
    </g>
    <g id="text_31">
     <!-- N = 17 -->
     <g transform="translate(89.893125 89.29575)scale(0.144 -0.144)">
      <use xlink:href="#Inconsolata-4e"/>
      <use x="49.9999847412" xlink:href="#Inconsolata-20"/>
      <use x="99.9999694824" xlink:href="#Inconsolata-3d"/>
      <use x="149.999954224" xlink:href="#Inconsolata-20"/>
      <use x="199.999938965" xlink:href="#Inconsolata-31"/>
      <use x="249.999923706" xlink:href="#Inconsolata-37"/>
     </g>
    </g>
   </g>
  </g>
 </g>
 <defs>
  <clipPath id="p7d72018917">
   <rect height="345.6" width="446.4" x="36.613125" y="7.2"/>
  </clipPath>
 </defs>
</svg>
