<?xml version="1.0" encoding="utf-8" standalone="no"?>
<!DOCTYPE svg PUBLIC "-//W3C//DTD SVG 1.1//EN"
  "http://www.w3.org/Graphics/SVG/1.1/DTD/svg11.dtd">
<!-- Created with matplotlib (http://matplotlib.org/) -->
<svg height="392pt" version="1.1" viewBox="0 0 511 392" width="511pt" xmlns="http://www.w3.org/2000/svg" xmlns:xlink="http://www.w3.org/1999/xlink">
 <defs>
  <style type="text/css">
*{stroke-linecap:butt;stroke-linejoin:round;}
  </style>
 </defs>
 <g id="figure_1">
  <g id="patch_1">
   <path d="
M0 392.434
L511.476 392.434
L511.476 0
L0 0
z
" style="fill:none;"/>
  </g>
  <g id="axes_1">
   <g id="patch_2">
    <path d="
M46.6019 367.261
L493.002 367.261
L493.002 21.6612
L46.6019 21.6612
z
" style="fill:none;"/>
   </g>
   <g id="line2d_1">
    <path clip-path="url(#pdb4dcc4a7b)" d="
M46.6019 350.993
L47.0305 351.063
L47.459 350.993
L47.8876 351.063
L48.3162 350.923
L48.7448 351.063
L50.0305 350.853
L50.4591 350.364
L50.8877 350.853
L51.3163 350.923
L52.602 350.713
L53.0306 350.783
L53.4592 350.713
L53.8878 350.504
L54.7449 350.434
L55.1735 350.504
L55.6021 350.294
L56.0307 350.294
L56.4592 350.084
L57.745 350.084
L58.1736 349.735
L58.6022 349.595
L59.0307 349.665
L59.4593 349.595
L59.8879 349.036
L60.3165 348.896
L60.7451 349.036
L62.888 348.756
L63.3165 347.707
L63.7451 348.267
L64.1737 347.358
L64.6023 348.127
L65.0309 347.987
L65.4595 347.428
L65.888 347.288
L66.3166 347.428
L67.1738 345.82
L67.6024 346.449
L68.4595 344.562
L70.1738 344.562
L70.6024 343.563
L71.031 343.563
L72.3168 340.567
L73.1739 340.567
L73.6025 339.568
L74.0311 339.568
L74.4597 337.571
L75.3168 337.571
L76.174 335.574
L76.6026 333.576
L77.0311 334.575
L77.8883 332.578
L78.3169 329.582
L78.7455 330.581
L79.1741 328.583
L80.0312 328.583
L80.4598 326.586
L80.8884 322.591
L81.317 321.593
L81.7455 317.598
L82.6027 313.603
L83.0313 312.605
L83.4599 308.61
L83.8884 311.606
L84.317 310.608
L84.7456 300.621
L85.1742 309.609
L85.6028 306.613
L86.4599 297.625
L86.8885 299.622
L87.3171 291.633
L88.1743 283.644
L88.6028 282.645
L89.0314 282.645
L90.3172 269.663
L90.7457 256.68
L91.1743 251.687
L92.0315 257.394
L93.3172 240.274
L93.7458 240.274
L94.1744 228.861
L94.603 234.568
L95.0316 228.861
L95.4601 211.741
L95.8887 223.154
L96.3173 217.448
L96.7459 208.888
L97.1745 208.888
L97.603 191.768
L98.0316 186.062
L98.4602 194.622
L98.8888 194.622
L99.3174 191.768
L99.746 191.768
L100.175 186.062
L100.603 177.502
L101.032 171.795
L101.46 168.942
L102.317 148.969
L102.746 154.676
L103.175 143.262
L103.603 140.409
L104.032 103.316
L104.46 137.556
L104.889 131.849
L105.318 134.703
L105.746 128.996
L106.175 146.116
L106.603 131.849
L107.46 131.849
L107.889 128.996
L108.318 120.436
L108.746 120.436
L109.175 114.73
L109.603 123.289
L110.032 111.876
L110.46 109.023
L110.889 123.289
L111.318 106.17
L111.746 106.17
L112.175 114.73
L112.603 114.73
L113.032 86.1968
L113.461 66.2238
L113.889 71.9303
L114.318 103.349
L114.746 103.349
L115.175 93.9231
L115.603 87.6394
L116.032 84.4976
L116.889 71.9303
L117.318 84.4976
L118.175 84.4976
L118.604 81.3558
L119.032 84.4976
L119.461 62.5049
L119.889 49.9376
L120.318 59.3631
L120.746 71.9303
L121.604 71.9303
L122.032 68.7885
L122.461 71.9303
L122.889 68.7885
L123.318 56.2212
L123.747 56.2212
L124.175 65.6467
L124.604 46.7958
L125.032 59.3631
L125.461 37.3703
L125.889 43.654
L126.318 43.654
L127.604 53.0794
L128.032 59.3631
L128.461 81.3558
L128.889 87.6394
L129.318 81.3558
L129.747 87.6394
L130.175 87.6394
L130.604 97.0649
L131.032 87.6394
L131.461 90.7812
L131.89 100.207
L132.318 90.7812
L132.747 106.49
L133.175 100.207
L133.604 87.6394
L134.032 93.9231
L134.461 84.4976
L134.89 97.0649
L135.318 81.3558
L135.747 53.0794
L136.175 59.3631
L136.604 108.574
L137.033 99.3468
L137.461 102.423
L137.89 99.3468
L138.318 99.3468
L138.747 96.2712
L139.175 99.3468
L139.604 105.498
L140.033 96.2712
L140.461 105.498
L140.89 99.3468
L141.318 102.423
L141.747 99.3468
L143.033 108.574
L143.461 108.574
L143.89 105.498
L144.318 108.574
L144.747 114.725
L145.176 108.574
L145.604 99.3468
L146.033 99.3468
L146.461 87.0441
L146.89 90.1198
L147.318 96.2712
L147.747 93.1955
L148.176 93.1955
L148.604 90.1198
L149.033 71.6658
L149.461 96.2712
L149.89 90.1198
L150.319 96.2712
L150.747 99.3468
L151.176 99.3468
L151.604 105.498
L152.033 105.498
L152.461 108.574
L152.89 105.498
L153.319 120.877
L153.747 114.725
L154.176 120.877
L154.604 123.952
L155.033 120.877
L155.462 127.028
L155.89 130.104
L156.319 120.877
L156.747 136.255
L157.176 130.104
L157.604 133.179
L158.033 105.498
L158.462 87.0441
L158.89 132.011
L159.319 137.301
L160.176 137.301
L160.604 145.236
L161.033 145.236
L161.462 137.301
L161.89 147.881
L162.747 153.171
L163.176 153.171
L163.605 155.816
L164.033 153.171
L164.462 142.591
L164.89 145.236
L165.319 158.461
L165.747 158.461
L166.176 161.106
L166.605 169.042
L167.033 161.106
L167.462 161.106
L167.89 171.687
L168.748 161.106
L169.176 163.751
L169.605 163.751
L170.033 169.042
L170.462 171.687
L170.89 166.397
L171.319 163.751
L171.748 166.397
L172.176 171.687
L172.605 171.687
L173.462 190.202
L174.319 195.492
L174.748 203.428
L175.176 203.428
L175.605 211.363
L176.033 211.363
L176.462 208.718
L176.891 216.653
L177.319 216.653
L177.748 219.298
L178.176 219.298
L178.605 216.653
L179.033 224.588
L179.462 221.943
L179.891 224.588
L180.319 214.008
L180.748 208.718
L181.176 227.286
L181.605 231.571
L182.034 225.858
L182.462 234.428
L182.891 233
L183.319 237.285
L183.748 233
L184.176 241.57
L184.605 242.998
L185.034 242.998
L185.891 245.855
L186.319 240.141
L186.748 241.57
L187.177 248.711
L187.605 252.996
L188.034 250.14
L188.462 252.996
L188.891 257.282
L189.319 257.282
L189.748 260.138
L190.177 261.567
L190.605 264.423
L191.034 265.852
L191.462 265.852
L191.891 262.995
L192.32 258.71
L192.748 258.71
L193.605 261.567
L194.034 267.28
L194.462 270.137
L194.891 274.422
L195.32 281.563
L195.748 281.563
L196.177 280.135
L196.605 284.42
L197.034 284.42
L197.462 291.562
L197.891 290.133
L198.32 291.562
L198.748 294.418
L199.177 295.847
L199.605 295.847
L200.034 298.703
L200.463 297.275
L200.891 300.132
L201.32 308.702
L201.748 308.702
L202.177 310.13
L203.034 310.13
L203.463 314.687
L203.891 314.687
L204.748 318.415
L205.606 320.071
L206.034 322.971
L206.463 323.385
L206.891 323.385
L207.748 327.113
L208.177 326.285
L209.463 328.77
L209.891 329.184
L210.32 330.013
L210.749 331.255
L211.177 332.084
L211.606 331.255
L212.034 332.498
L212.891 333.326
L213.32 332.912
L214.177 332.912
L215.034 333.741
L215.463 334.569
L215.891 334.155
L216.32 335.812
L216.749 335.398
L218.034 336.64
L218.463 336.64
L218.892 337.469
L219.32 336.64
L219.749 337.469
L220.606 338.297
L221.034 338.297
L221.463 338.711
L221.892 338.711
L222.749 339.54
L223.177 339.54
L223.606 339.954
L224.035 339.954
L224.463 340.368
L224.892 340.368
L225.32 339.54
L225.749 340.02
L226.177 339.9
L227.035 340.501
L227.463 340.621
L227.892 341.342
L228.32 341.222
L228.749 341.222
L229.177 341.822
L230.463 342.543
L230.892 343.264
L231.32 343.384
L231.749 343.384
L232.178 343.504
L232.606 343.744
L233.035 343.384
L233.463 344.104
L233.892 343.984
L234.749 344.345
L235.606 343.984
L236.463 344.345
L236.892 344.465
L237.749 344.104
L238.178 344.465
L239.035 344.705
L239.463 344.945
L239.892 344.705
L241.606 345.546
L242.035 343.624
L242.464 344.825
L242.892 345.546
L243.749 345.546
L244.178 345.906
L245.035 345.666
L245.464 345.906
L245.892 345.786
L246.321 345.786
L246.749 345.666
L247.178 345.786
L247.606 346.026
L248.035 345.786
L248.464 346.134
L248.892 344.605
L249.321 345.369
L250.607 346.55
L251.892 346.828
L252.321 346.689
L252.749 346.967
L253.178 346.828
L253.607 347.106
L254.035 347.245
L254.464 347.245
L255.321 347.453
L255.75 347.453
L257.464 347.94
L257.892 346.828
L258.321 346.759
L258.75 347.384
L259.178 347.662
L259.607 347.592
L260.464 347.801
L262.607 348.496
L263.464 348.496
L263.893 348.634
L264.321 348.565
L265.178 348.773
L265.607 348.634
L266.035 348.843
L266.464 348.704
L266.893 348.773
L267.321 348.634
L268.178 349.051
L269.036 348.912
L269.893 349.121
L270.321 348.912
L270.321 348.912" style="fill:none;stroke:#0000ff;stroke-linecap:square;"/>
   </g>
   <g id="line2d_2">
    <path clip-path="url(#pdb4dcc4a7b)" d="
M46.6019 351.266
L52.4051 350.927
L56.4227 350.481
L59.5475 349.923
L62.2259 349.222
L64.4579 348.414
L66.2435 347.573
L68.0291 346.511
L69.8147 345.17
L71.6003 343.483
L72.9395 341.94
L74.2787 340.113
L75.6179 337.956
L76.9571 335.414
L78.2963 332.428
L79.6355 328.933
L80.9747 324.861
L82.3139 320.137
L83.6531 314.69
L84.9923 308.451
L86.3315 301.357
L88.1171 290.491
L89.9027 277.972
L91.6883 263.845
L93.9203 244.185
L97.0451 214.091
L101.955 166.525
L104.187 147.204
L105.973 133.474
L107.759 121.467
L109.544 111.222
L110.883 104.66
L112.223 99.0033
L113.562 94.1841
L114.901 90.1278
L116.24 86.7574
L117.579 83.9974
L118.919 81.7769
L120.258 80.0308
L121.597 78.7011
L122.936 77.7367
L124.275 77.094
L125.615 76.7356
L126.954 76.6305
L128.293 76.7532
L129.632 77.0831
L130.971 77.6039
L132.757 78.574
L134.543 79.8408
L136.328 81.3917
L138.114 83.2212
L139.899 85.3292
L142.131 88.3625
L144.363 91.8531
L146.595 95.822
L148.827 100.293
L151.059 105.29
L153.291 110.836
L155.523 116.949
L157.755 123.642
L160.434 132.442
L163.112 142.064
L165.791 152.463
L168.915 165.474
L172.487 181.284
L177.843 206.125
L184.986 239.114
L188.557 254.607
L191.682 267.251
L194.36 277.284
L197.039 286.509
L199.717 294.896
L201.949 301.242
L204.181 307.017
L206.413 312.24
L208.645 316.939
L210.877 321.146
L213.109 324.896
L215.341 328.227
L217.573 331.174
L219.805 333.775
L222.037 336.063
L224.269 338.072
L226.947 340.156
L229.626 341.929
L232.304 343.435
L234.983 344.711
L238.107 345.954
L241.679 347.104
L245.25 348.021
L249.267 348.831
L254.178 349.575
L259.535 350.158
L266.231 350.652
L274.712 351.035
L285.872 351.303
L303.282 351.473
L338.547 351.544
L493.002 351.552
L493.002 351.552" style="fill:none;stroke:#ff0000;stroke-linecap:square;"/>
   </g>
   <g id="line2d_3">
    <path clip-path="url(#pdb4dcc4a7b)" d="
M46.6019 288.716
L493.002 288.716" style="fill:none;stroke:#008000;stroke-dasharray:6.000000,6.000000;stroke-dashoffset:0.0;"/>
   </g>
   <g id="matplotlib.axis_1">
    <g id="xtick_1">
     <g id="line2d_4">
      <defs>
       <path d="
M0 0
L0 -4" id="m93b0483c22" style="stroke:#000000;stroke-width:0.5;"/>
      </defs>
      <g>
       <use style="stroke:#000000;stroke-width:0.5;" x="46.601875" xlink:href="#m93b0483c22" y="367.26125"/>
      </g>
     </g>
     <g id="line2d_5">
      <defs>
       <path d="
M0 0
L0 4" id="m741efc42ff" style="stroke:#000000;stroke-width:0.5;"/>
      </defs>
      <g>
       <use style="stroke:#000000;stroke-width:0.5;" x="46.601875" xlink:href="#m741efc42ff" y="21.66125"/>
      </g>
     </g>
     <g id="text_1">
      <!-- 2004 -->
      <defs>
       <path d="
M25.0938 62.7031
C15.2031 62.7031 5 50.5 5 30.5938
C5 10.4062 15.2969 -1.20312 25.2031 -1.20312
C34.2031 -1.20312 44.9062 8.59375 44.9062 30.0938
C44.9062 51.2969 34.7031 62.7031 25.0938 62.7031
M34.7969 48.4062
L12.9062 20
C12 23.5 11.5 27.4062 11.5 31.7969
C11.5 47.7969 18.7969 56.5938 25 56.5938
C28.4062 56.5938 32.0938 53.9062 34.7969 48.4062
M37.0938 41.7969
C38 38.2969 38.4062 34.0938 38.4062 29.2031
C38.4062 11.7969 30.9062 5.20312 25.4062 5.20312
C21.7031 5.20312 17.9062 8.20312 15.2031 13.7031
z
" id="Inconsolata-30"/>
       <path d="
M7.70312 52.5938
L12.7969 48.5
C13.4062 49.4062 13.0938 50 13.7031 50.7969
C15.2031 53.0938 18.9062 56.5 24.2969 56.5
C31 56.5 36.2969 51.4062 36.2969 44.7031
C36.2969 37.0938 29.9062 31.5938 25.4062 27.5
C18.2969 21.0938 12.5 14.7031 7.29688 4.40625
L7.29688 0
L43.9062 0
L43.9062 6.90625
C43.2031 7.20312 42.7031 6.70312 42.5 6.5
C42.0938 6.09375 41.9062 6.09375 41.5 6.09375
L15.2969 6.09375
C20.5 15.0938 27.7969 21.2969 32.2969 25.5
C36.7969 29.7969 43.2031 36.2031 43.2031 45.2031
C43.2031 54.9062 35.2969 62.7031 25.2031 62.7031
C18.0938 62.7031 11.4062 58.9062 7.70312 52.5938" id="Inconsolata-32"/>
       <path d="
M31.2969 62.2969
L4.79688 22.4062
L4.79688 17.2031
L29.9062 17.2031
L29.9062 0
L37.0938 0
L37.0938 17.0938
L45.2031 17.0938
L45.2031 23.2969
L37.0938 23.2969
L37.0938 62.2969
z

M30 51.2031
L30 23.2969
L11.7031 23.2969
z
" id="Inconsolata-34"/>
      </defs>
      <g transform="translate(35.3275 383.23)scale(0.12 -0.12)">
       <use xlink:href="#Inconsolata-32"/>
       <use x="49.9999847412" xlink:href="#Inconsolata-30"/>
       <use x="99.9999694824" xlink:href="#Inconsolata-30"/>
       <use x="149.999954224" xlink:href="#Inconsolata-34"/>
      </g>
     </g>
    </g>
    <g id="xtick_2">
     <g id="line2d_6">
      <g>
       <use style="stroke:#000000;stroke-width:0.5;" x="91.241875" xlink:href="#m93b0483c22" y="367.26125"/>
      </g>
     </g>
     <g id="line2d_7">
      <g>
       <use style="stroke:#000000;stroke-width:0.5;" x="91.241875" xlink:href="#m741efc42ff" y="21.66125"/>
      </g>
     </g>
     <g id="text_2">
      <!-- 2006 -->
      <defs>
       <path d="
M28.7031 63
C21.2031 63 13.2031 58.4062 9.29688 47.5
C7.20312 41.5938 6.70312 34.2969 6.70312 28.2969
C6.70312 21 7.40625 13.2031 11.4062 7.20312
C15 1.70312 20.5938 -1.09375 26.0938 -1.09375
C35.5938 -1.09375 43.9062 6.90625 43.9062 19.7969
C43.9062 32.7031 35.5938 40.2031 26.7969 40.2031
C21.4062 40.2031 16.2969 37.2969 13.5938 32.7031
C14 54 24.2031 56.7969 28.7031 56.7969
C32.7969 56.7969 35.5938 54.5938 36 54.2031
C36.5938 53.5 36.5938 52.5938 37.5 51.9062
L42.2969 57.2969
C38.7031 60.9062 33.7031 63 28.7031 63
M26.0938 34
C31.0938 34 37.0938 30.0938 37.0938 19.4062
C37.0938 9.70312 31.7031 5.09375 26.4062 5.09375
C18.7969 5.09375 13.0938 14 13.9062 25.7031
C16.7031 30.7969 21.5 34 26.0938 34" id="Inconsolata-36"/>
      </defs>
      <g transform="translate(80.0453125 383.23)scale(0.12 -0.12)">
       <use xlink:href="#Inconsolata-32"/>
       <use x="49.9999847412" xlink:href="#Inconsolata-30"/>
       <use x="99.9999694824" xlink:href="#Inconsolata-30"/>
       <use x="149.999954224" xlink:href="#Inconsolata-36"/>
      </g>
     </g>
    </g>
    <g id="xtick_3">
     <g id="line2d_8">
      <g>
       <use style="stroke:#000000;stroke-width:0.5;" x="135.881875" xlink:href="#m93b0483c22" y="367.26125"/>
      </g>
     </g>
     <g id="line2d_9">
      <g>
       <use style="stroke:#000000;stroke-width:0.5;" x="135.881875" xlink:href="#m741efc42ff" y="21.66125"/>
      </g>
     </g>
     <g id="text_3">
      <!-- 2008 -->
      <defs>
       <path d="
M25.7969 63
C16.2031 63 8.90625 56.0938 8.90625 47.7031
C8.90625 41.5938 12.7969 36 18.4062 33.0938
C11 29.5938 6 22.7969 6 15.5938
C6 6.29688 14.2031 -1.09375 24.9062 -1.09375
C35.7969 -1.09375 44.0938 6.5 44.0938 16
C44.0938 23.4062 39.0938 30 32.0938 33.2969
C38.0938 36.4062 42 42.2969 42 48.2969
C42 56.5 34.9062 63 25.7969 63
M23.7031 30.2031
C31.7031 27.7031 37 22.2031 37 16.0938
C37 10.0938 31.9062 5.20312 25.2031 5.20312
C18.4062 5.20312 13.2031 10.2969 13.2031 16.5
C13.2031 22.4062 17.7969 27.7969 23.7031 30.2031
M25.2031 57.2031
C30.7969 57.2031 35.2031 53 35.2031 47.7969
C35.2031 43 31.5 38.4062 26.5938 35.7969
C26.5938 35.7969 15.5938 40 15.5938 48.2969
C15.5938 53.2031 19.7969 57.2031 25.2031 57.2031" id="Inconsolata-38"/>
      </defs>
      <g transform="translate(124.6740625 383.23)scale(0.12 -0.12)">
       <use xlink:href="#Inconsolata-32"/>
       <use x="49.9999847412" xlink:href="#Inconsolata-30"/>
       <use x="99.9999694824" xlink:href="#Inconsolata-30"/>
       <use x="149.999954224" xlink:href="#Inconsolata-38"/>
      </g>
     </g>
    </g>
    <g id="xtick_4">
     <g id="line2d_10">
      <g>
       <use style="stroke:#000000;stroke-width:0.5;" x="180.521875" xlink:href="#m93b0483c22" y="367.26125"/>
      </g>
     </g>
     <g id="line2d_11">
      <g>
       <use style="stroke:#000000;stroke-width:0.5;" x="180.521875" xlink:href="#m741efc42ff" y="21.66125"/>
      </g>
     </g>
     <g id="text_4">
      <!-- 2010 -->
      <defs>
       <path d="
M29.9062 62.2969
L25.0938 62.2969
L8.79688 53.7969
L10.4062 49.9062
L22.9062 53.5938
L22.9062 -0.09375
L29.9062 -0.09375
z
" id="Inconsolata-31"/>
      </defs>
      <g transform="translate(169.2653125 383.23)scale(0.12 -0.12)">
       <use xlink:href="#Inconsolata-32"/>
       <use x="49.9999847412" xlink:href="#Inconsolata-30"/>
       <use x="99.9999694824" xlink:href="#Inconsolata-31"/>
       <use x="149.999954224" xlink:href="#Inconsolata-30"/>
      </g>
     </g>
    </g>
    <g id="xtick_5">
     <g id="line2d_12">
      <g>
       <use style="stroke:#000000;stroke-width:0.5;" x="225.161875" xlink:href="#m93b0483c22" y="367.26125"/>
      </g>
     </g>
     <g id="line2d_13">
      <g>
       <use style="stroke:#000000;stroke-width:0.5;" x="225.161875" xlink:href="#m741efc42ff" y="21.66125"/>
      </g>
     </g>
     <g id="text_5">
      <!-- 2012 -->
      <g transform="translate(213.9653125 383.23)scale(0.12 -0.12)">
       <use xlink:href="#Inconsolata-32"/>
       <use x="49.9999847412" xlink:href="#Inconsolata-30"/>
       <use x="99.9999694824" xlink:href="#Inconsolata-31"/>
       <use x="149.999954224" xlink:href="#Inconsolata-32"/>
      </g>
     </g>
    </g>
    <g id="xtick_6">
     <g id="line2d_14">
      <g>
       <use style="stroke:#000000;stroke-width:0.5;" x="269.801875" xlink:href="#m93b0483c22" y="367.26125"/>
      </g>
     </g>
     <g id="line2d_15">
      <g>
       <use style="stroke:#000000;stroke-width:0.5;" x="269.801875" xlink:href="#m741efc42ff" y="21.66125"/>
      </g>
     </g>
     <g id="text_6">
      <!-- 2014 -->
      <g transform="translate(258.5275 383.23)scale(0.12 -0.12)">
       <use xlink:href="#Inconsolata-32"/>
       <use x="49.9999847412" xlink:href="#Inconsolata-30"/>
       <use x="99.9999694824" xlink:href="#Inconsolata-31"/>
       <use x="149.999954224" xlink:href="#Inconsolata-34"/>
      </g>
     </g>
    </g>
    <g id="xtick_7">
     <g id="line2d_16">
      <g>
       <use style="stroke:#000000;stroke-width:0.5;" x="314.441875" xlink:href="#m93b0483c22" y="367.26125"/>
      </g>
     </g>
     <g id="line2d_17">
      <g>
       <use style="stroke:#000000;stroke-width:0.5;" x="314.441875" xlink:href="#m741efc42ff" y="21.66125"/>
      </g>
     </g>
     <g id="text_7">
      <!-- 2016 -->
      <g transform="translate(303.2453125 383.23)scale(0.12 -0.12)">
       <use xlink:href="#Inconsolata-32"/>
       <use x="49.9999847412" xlink:href="#Inconsolata-30"/>
       <use x="99.9999694824" xlink:href="#Inconsolata-31"/>
       <use x="149.999954224" xlink:href="#Inconsolata-36"/>
      </g>
     </g>
    </g>
    <g id="xtick_8">
     <g id="line2d_18">
      <g>
       <use style="stroke:#000000;stroke-width:0.5;" x="359.081875" xlink:href="#m93b0483c22" y="367.26125"/>
      </g>
     </g>
     <g id="line2d_19">
      <g>
       <use style="stroke:#000000;stroke-width:0.5;" x="359.081875" xlink:href="#m741efc42ff" y="21.66125"/>
      </g>
     </g>
     <g id="text_8">
      <!-- 2018 -->
      <g transform="translate(347.8740625 383.23)scale(0.12 -0.12)">
       <use xlink:href="#Inconsolata-32"/>
       <use x="49.9999847412" xlink:href="#Inconsolata-30"/>
       <use x="99.9999694824" xlink:href="#Inconsolata-31"/>
       <use x="149.999954224" xlink:href="#Inconsolata-38"/>
      </g>
     </g>
    </g>
    <g id="xtick_9">
     <g id="line2d_20">
      <g>
       <use style="stroke:#000000;stroke-width:0.5;" x="403.721875" xlink:href="#m93b0483c22" y="367.26125"/>
      </g>
     </g>
     <g id="line2d_21">
      <g>
       <use style="stroke:#000000;stroke-width:0.5;" x="403.721875" xlink:href="#m741efc42ff" y="21.66125"/>
      </g>
     </g>
     <g id="text_9">
      <!-- 2020 -->
      <g transform="translate(392.4653125 383.23)scale(0.12 -0.12)">
       <use xlink:href="#Inconsolata-32"/>
       <use x="49.9999847412" xlink:href="#Inconsolata-30"/>
       <use x="99.9999694824" xlink:href="#Inconsolata-32"/>
       <use x="149.999954224" xlink:href="#Inconsolata-30"/>
      </g>
     </g>
    </g>
    <g id="xtick_10">
     <g id="line2d_22">
      <g>
       <use style="stroke:#000000;stroke-width:0.5;" x="448.361875" xlink:href="#m93b0483c22" y="367.26125"/>
      </g>
     </g>
     <g id="line2d_23">
      <g>
       <use style="stroke:#000000;stroke-width:0.5;" x="448.361875" xlink:href="#m741efc42ff" y="21.66125"/>
      </g>
     </g>
     <g id="text_10">
      <!-- 2022 -->
      <g transform="translate(437.1653125 383.23)scale(0.12 -0.12)">
       <use xlink:href="#Inconsolata-32"/>
       <use x="49.9999847412" xlink:href="#Inconsolata-30"/>
       <use x="99.9999694824" xlink:href="#Inconsolata-32"/>
       <use x="149.999954224" xlink:href="#Inconsolata-32"/>
      </g>
     </g>
    </g>
    <g id="xtick_11">
     <g id="line2d_24">
      <g>
       <use style="stroke:#000000;stroke-width:0.5;" x="493.001875" xlink:href="#m93b0483c22" y="367.26125"/>
      </g>
     </g>
     <g id="line2d_25">
      <g>
       <use style="stroke:#000000;stroke-width:0.5;" x="493.001875" xlink:href="#m741efc42ff" y="21.66125"/>
      </g>
     </g>
     <g id="text_11">
      <!-- 2024 -->
      <g transform="translate(481.7275 383.23)scale(0.12 -0.12)">
       <use xlink:href="#Inconsolata-32"/>
       <use x="49.9999847412" xlink:href="#Inconsolata-30"/>
       <use x="99.9999694824" xlink:href="#Inconsolata-32"/>
       <use x="149.999954224" xlink:href="#Inconsolata-34"/>
      </g>
     </g>
    </g>
   </g>
   <g id="matplotlib.axis_2">
    <g id="ytick_1">
     <g id="line2d_26">
      <defs>
       <path d="
M0 0
L4 0" id="m728421d6d4" style="stroke:#000000;stroke-width:0.5;"/>
      </defs>
      <g>
       <use style="stroke:#000000;stroke-width:0.5;" x="46.601875" xlink:href="#m728421d6d4" y="351.552159091"/>
      </g>
     </g>
     <g id="line2d_27">
      <defs>
       <path d="
M0 0
L-4 0" id="mcb0005524f" style="stroke:#000000;stroke-width:0.5;"/>
      </defs>
      <g>
       <use style="stroke:#000000;stroke-width:0.5;" x="493.001875" xlink:href="#mcb0005524f" y="351.552159091"/>
      </g>
     </g>
     <g id="text_12">
      <!-- 0 -->
      <g transform="translate(33.813125 354.534346591)scale(0.12 -0.12)">
       <use xlink:href="#Inconsolata-30"/>
      </g>
     </g>
    </g>
    <g id="ytick_2">
     <g id="line2d_28">
      <g>
       <use style="stroke:#000000;stroke-width:0.5;" x="46.601875" xlink:href="#m728421d6d4" y="288.715795455"/>
      </g>
     </g>
     <g id="line2d_29">
      <g>
       <use style="stroke:#000000;stroke-width:0.5;" x="493.001875" xlink:href="#mcb0005524f" y="288.715795455"/>
      </g>
     </g>
     <g id="text_13">
      <!-- 20 -->
      <g transform="translate(28.08875 291.697982955)scale(0.12 -0.12)">
       <use xlink:href="#Inconsolata-32"/>
       <use x="49.9999847412" xlink:href="#Inconsolata-30"/>
      </g>
     </g>
    </g>
    <g id="ytick_3">
     <g id="line2d_30">
      <g>
       <use style="stroke:#000000;stroke-width:0.5;" x="46.601875" xlink:href="#m728421d6d4" y="225.879431818"/>
      </g>
     </g>
     <g id="line2d_31">
      <g>
       <use style="stroke:#000000;stroke-width:0.5;" x="493.001875" xlink:href="#mcb0005524f" y="225.879431818"/>
      </g>
     </g>
     <g id="text_14">
      <!-- 40 -->
      <g transform="translate(27.78875 228.861619318)scale(0.12 -0.12)">
       <use xlink:href="#Inconsolata-34"/>
       <use x="49.9999847412" xlink:href="#Inconsolata-30"/>
      </g>
     </g>
    </g>
    <g id="ytick_4">
     <g id="line2d_32">
      <g>
       <use style="stroke:#000000;stroke-width:0.5;" x="46.601875" xlink:href="#m728421d6d4" y="163.043068182"/>
      </g>
     </g>
     <g id="line2d_33">
      <g>
       <use style="stroke:#000000;stroke-width:0.5;" x="493.001875" xlink:href="#mcb0005524f" y="163.043068182"/>
      </g>
     </g>
     <g id="text_15">
      <!-- 60 -->
      <g transform="translate(28.0175 166.025255682)scale(0.12 -0.12)">
       <use xlink:href="#Inconsolata-36"/>
       <use x="49.9999847412" xlink:href="#Inconsolata-30"/>
      </g>
     </g>
    </g>
    <g id="ytick_5">
     <g id="line2d_34">
      <g>
       <use style="stroke:#000000;stroke-width:0.5;" x="46.601875" xlink:href="#m728421d6d4" y="100.206704545"/>
      </g>
     </g>
     <g id="line2d_35">
      <g>
       <use style="stroke:#000000;stroke-width:0.5;" x="493.001875" xlink:href="#mcb0005524f" y="100.206704545"/>
      </g>
     </g>
     <g id="text_16">
      <!-- 80 -->
      <g transform="translate(27.933125 103.188892045)scale(0.12 -0.12)">
       <use xlink:href="#Inconsolata-38"/>
       <use x="49.9999847412" xlink:href="#Inconsolata-30"/>
      </g>
     </g>
    </g>
    <g id="ytick_6">
     <g id="line2d_36">
      <g>
       <use style="stroke:#000000;stroke-width:0.5;" x="46.601875" xlink:href="#m728421d6d4" y="37.3703409091"/>
      </g>
     </g>
     <g id="line2d_37">
      <g>
       <use style="stroke:#000000;stroke-width:0.5;" x="493.001875" xlink:href="#mcb0005524f" y="37.3703409091"/>
      </g>
     </g>
     <g id="text_17">
      <!-- 100 -->
      <g transform="translate(22.26875 40.3525284091)scale(0.12 -0.12)">
       <use xlink:href="#Inconsolata-31"/>
       <use x="49.9999847412" xlink:href="#Inconsolata-30"/>
       <use x="99.9999694824" xlink:href="#Inconsolata-30"/>
      </g>
     </g>
    </g>
    <g id="text_18">
     <!-- Normalized weekly search queries -->
     <defs>
      <path d="
M5 0
L11.7031 0
L11.7031 49
L39.0938 -0.09375
L44.7031 -0.09375
L44.7031 59.7031
C44.7031 60.4062 44.7969 60.5938 45.0938 61.0938
C45.2031 61.2969 45.4062 61.7969 45.2969 62.2969
L37.9062 62.2969
L37.9062 16.0938
L11.7969 62.2969
L5 62.2969
z
" id="Inconsolata-4e"/>
      <path id="Inconsolata-20"/>
      <path d="
M4.5 45.5938
L23.0938 0.09375
L21.5938 -3.20312
C20.7969 -5.09375 19.9062 -7 18.5 -8.5
C16.5938 -10.5938 14.2031 -11.5 12.0938 -11.5
C8.70312 -11.5 7 -9.20312 6.70312 -8.79688
C6.40625 -8.29688 6.5 -7.59375 5.90625 -7.09375
L2.20312 -13.5938
C4.79688 -16.0938 8.29688 -17.4062 12.0938 -17.4062
C16.2031 -17.4062 20.5 -15.9062 23.5 -12.5
C25.5 -10.2031 26.5 -7.79688 27.5 -5.20312
L41.7031 32.5
C43.4062 36.7969 44.9062 41.2031 46.2969 45.7031
L38.7969 45.7031
C38 41.5 36.7031 37.5 35.2969 33.5
L26.5938 9
L13.2031 42.7031
C13.0938 43 13.0938 43.2031 13.0938 43.5
C13.0938 44.2031 13.5938 44.7031 13.5 45.5938
z
" id="Inconsolata-79"/>
      <path d="
M6.90625 0
L14.2969 0
L14.2969 26.2969
C14.2969 29.2969 14.5938 31.5938 16.5 34.0938
C18.2969 36.4062 22.7031 40.5 27.5 40.5
C29.7969 40.5 32.0938 39.5 33.7031 37.5938
C36.2031 34.5938 36.2031 30.7031 36.2031 27.5
L36.2031 0
L43.2969 0
L43.2969 27.7031
C43.2969 31.2031 43.2031 35 41.5938 38.7031
C39.2969 43.7969 34.7031 46.7031 29.5 46.7031
C23.2969 46.7031 17.5938 42.7031 14.2969 37.5938
L14.2969 64.0938
C14.2969 64.4062 14.2969 64.7031 14.5938 65
C14.9062 65.2969 15.2969 65.5938 15.2969 66.0938
C15.2969 66.2031 15.2969 66.2969 15.2031 66.4062
L6.90625 66.4062
z
" id="Inconsolata-68"/>
      <path d="
M10.5938 45.7031
L10.5938 39.7969
L21.5938 39.7969
L21.5938 5.70312
L10 5.70312
L10 0
L39.5938 0
L39.5938 5.70312
L28.9062 5.70312
L28.9062 45.7031
z

M25.4062 65.5
C22.5 65.5 20.2031 63.2031 20.2031 60.4062
C20.2031 57.5938 22.5 55.2969 25.4062 55.2969
C28.2969 55.2969 30.5938 57.5938 30.5938 60.4062
C30.5938 63.2031 28.2969 65.5 25.4062 65.5" id="Inconsolata-69"/>
      <path d="
M6.20312 45.5938
L6.20312 20.0938
C6.20312 16.2031 6.20312 12.2031 8 8.09375
C10.5938 2.09375 16.2031 -1.20312 22.2031 -1.20312
C27.9062 -1.20312 33.2969 1.90625 36.2969 6.90625
L36.2031 3.5
C36.2031 2.29688 36.2031 1.09375 36.4062 0
L44 0
C43.5 1.29688 43.4062 2.79688 43.4062 4.09375
L43.4062 45.5938
L36.2031 45.5938
L36.2031 20.5
C36.2031 17 35.9062 14.2969 34.4062 11.5
C32.2969 7.59375 28.2031 4.70312 23.7969 4.70312
C20.2969 4.70312 16.9062 6.70312 15.0938 10.2969
C13.5 13.5 13.5 17.0938 13.5 20.0938
L13.5 45.5938
z
" id="Inconsolata-75"/>
      <path d="
M6.59375 66.4062
L6.59375 -0.09375
L13.7969 -0.09375
L13.7969 17.2031
L19.9062 22.7969
L38.5 -0.5
C38.5 -0.5 42.4062 -0.09375 47.0938 -0.09375
C47.4062 -0.09375 47.5938 -0.09375 47.7969 -0.09375
L25.4062 27.2031
L44.7031 45.2969
L42.0938 45.2969
C40.2969 45.2969 38.5 45.4062 36.7031 45.9062
L13.7969 24.5938
L13.7969 63.7969
C13.7969 64.2031 13.9062 64.5 14.2031 65
C14.5 65.2969 14.9062 65.7031 14.7969 66.4062
z
" id="Inconsolata-6b"/>
      <path d="
M37.0938 39
C34.9062 43.7031 30 46.7969 23.7031 46.7969
C15 46.7969 4.40625 40.5938 4.40625 23.2031
C4.40625 6.29688 13.7969 -1.09375 22.5938 -1.09375
C28.4062 -1.09375 33.7969 2.20312 36.7031 7.29688
L36.7031 3.29688
C36.7031 2.20312 36.7969 1.09375 37.0938 0
L44.2969 0
C43.9062 1.29688 43.9062 2.79688 43.9062 4.20312
L43.7969 63.5938
C43.7969 64.2031 43.7969 64.4062 44.2031 65
C44.4062 65.2969 44.7969 65.7969 44.7031 66.5
L37.0938 66.5
z

M24 40.9062
C28 40.9062 33.9062 38.7969 35.7031 32
C36.2969 29.9062 36.5 27.4062 36.5 22.2969
C36.5 18.7969 36.2969 16.2969 35.5 13.9062
C33.7969 8.5 29 5.29688 24.2969 5.29688
C19.0938 5.29688 11.4062 9.29688 11.4062 24.2969
C11.4062 37.4062 18.7031 40.9062 24 40.9062" id="Inconsolata-64"/>
      <path d="
M25.7969 46.7031
C14.9062 46.7031 4.79688 38.9062 4.79688 22.2969
C4.79688 7 14.2969 -1.09375 26.7031 -1.09375
C33.2969 -1.09375 39.2031 1.29688 43.0938 6
L39.0938 9.90625
C36.2031 6.5 31.7969 4.70312 27.2969 4.70312
C21.2031 4.70312 12.2969 8.09375 11.7969 21.7969
L44.2031 21.7969
C44.5 24.9062 44.4062 27.9062 43.9062 30.5
C41.7969 42.7969 33.2969 46.7031 25.7969 46.7031
M12 27.2969
C13.5 38.0938 20.4062 41.2031 25.2969 41.2031
C32.7031 41.2031 38 34.7031 37.0938 27.2969
z
" id="Inconsolata-65"/>
      <path d="
M37.2969 39
C37.2969 38.9062 34.0938 46.7969 24 46.7969
C14 46.7969 4.20312 38.7031 4.20312 23.2031
C4.20312 8.40625 12.9062 -1.09375 23 -1.09375
C28.7969 -1.09375 34.0938 2.20312 37 7.29688
L37 -16.7031
L44.0938 -16.7031
L44.0938 45.5938
L37.2969 45.5938
z

M24.2969 40.9062
C28.4062 40.9062 33.5938 38.7969 35.5938 33.2031
C36.5 30.5938 36.7031 27.7969 36.7031 22.2031
C36.7031 18.7969 36.5 16.2969 35.7969 13.9062
C34 8.5 29.2969 5.29688 24.5938 5.29688
C18 5.29688 11.4062 11.2969 11.4062 24.2031
C11.4062 36.2031 18.2031 40.9062 24.2969 40.9062" id="Inconsolata-71"/>
      <path d="
M45.5938 38.0938
C42 43.4062 35.9062 46.5938 28.5 46.5938
C15.0938 46.5938 5.59375 36.5 5.59375 22.7969
C5.59375 9 15.0938 -1.20312 28.0938 -1.20312
C34.4062 -1.20312 40.5938 1.40625 44.9062 6.09375
L40.7969 10.9062
C37.7031 7.40625 33.2031 5.40625 28.7031 5.40625
C19.7969 5.40625 13 12.7969 13 23.5
C13 33.9062 19.7031 40.4062 28.0938 40.4062
C35.9062 40.4062 39.5938 35 39.9062 34.4062
C40.2969 33.7031 39.7031 32.7031 40.5 32.0938
z
" id="Inconsolata-63"/>
      <path d="
M43.2031 39.5938
C39 44.2031 32.9062 46.7031 26.0938 46.7031
C15.5 46.7031 8.59375 40.7969 8.59375 34
C8.59375 26 17.2031 23.0938 19.7031 22.2031
C23.5938 20.7969 28.5938 19.5938 32 18
C35.7969 16.2031 36.5 13.7969 36.5 12.2031
C36.5 7.90625 31.2969 5 24.7969 5
C17 5 12 9.70312 10.5 11.2969
C10.2031 11.7031 10.2031 12 10.2031 12.4062
C10.2031 12.5 10.2969 13.0938 9.79688 13.2969
L5.59375 6.20312
C11 1.20312 18 -1.09375 24.9062 -1.09375
C37.4062 -1.09375 43.9062 6.29688 43.9062 13.2031
C43.9062 16.2969 42.5938 20.5 37.2031 23.5
C32.0938 26.4062 24.7031 27.4062 20.4062 29.5
C16.7031 31.2969 15.9062 33.5 15.9062 35.0938
C15.9062 38.7031 20.4062 41.2969 25.5 41.2969
C32.0938 41.2969 36.5 37.2969 38.2031 35
C38.5 34.7031 38.4062 34.4062 38.4062 34.0938
C38.4062 33.5 38.7969 33.2969 39 33.2969
z
" id="Inconsolata-73"/>
      <path d="
M9 40.2969
L12.5 35.7031
C16.2969 39.5938 21.4062 40.7969 25.7031 40.7969
C31.0938 40.7969 33.7969 38.5 35.0938 36.4062
C36.5938 33.9062 36.5 30.9062 36.5 28.5
L36.5 26.9062
L35.0938 26.9062
C28.2969 26.9062 21.0938 26.9062 15.2969 24.7969
C8.09375 22.2031 4.90625 16.7969 4.90625 11.7969
C4.90625 5.09375 10.7031 -1.20312 20.2031 -1.20312
C25.7969 -1.20312 31.5938 0.90625 36.5938 5
L36.5938 0
L43.4062 0
L43.4062 28.2969
C43.4062 32 43.2969 35.5 41.2031 39.0938
C38.2031 44 32.4062 46.5938 25.2969 46.5938
C19.2031 46.5938 13.2969 44.7031 9 40.2969
M36.7969 21.4062
L36.7969 18.2969
C36.7969 16 36.7969 13 33.7031 9.70312
C32 8 27.7031 4.29688 21.7031 4.29688
C15.5938 4.29688 12.0938 8.20312 12.0938 12.2031
C12.0938 15.5938 14.4062 19.2969 20.0938 20.7031
C24.2969 21.7031 30.4062 21.4062 35.2031 21.4062
z
" id="Inconsolata-61"/>
      <path d="
M1.5 45.7031
L10.7031 -0.09375
L17.2031 -0.09375
L25.2031 29.5
L33.7031 -0.09375
L40.4062 -0.09375
C43.5 15 46.0938 30.2969 48 45.5938
L41.4062 45.5938
C41.5938 40.0938 41.0938 35 37.0938 9
L27.5 41.4062
L23.0938 41.4062
L15.2031 8.90625
L8.59375 41.9062
C8.40625 42.5938 8.40625 42.9062 8.70312 43.7031
C8.79688 44.2031 9.09375 44.9062 8.79688 45.7031
z
" id="Inconsolata-77"/>
      <path d="
M46 22.5938
C46 38.4062 36 46.5938 25.5938 46.5938
C14 46.5938 4 36.5938 4 22.4062
C4 8.5 13.9062 -1.29688 25.4062 -1.29688
C36.2031 -1.29688 46 7.40625 46 22.5938
M25.0938 40.5
C31.7031 40.5 38.7031 34.7969 38.7031 22.2969
C38.7031 10.7969 32.0938 5 25.5 5
C18.2031 5 11.5938 11.7969 11.5938 23.0938
C11.5938 34.2969 18.0938 40.5 25.0938 40.5" id="Inconsolata-6f"/>
      <path d="
M3.70312 0
L10.2969 0
L10.2969 30.4062
C10.2969 32.5938 10.5 34.5938 11.7969 37
C13.4062 40 15.4062 41.2031 17.2969 41.2031
C18.9062 41.2031 20.7031 40.2031 21.5 37.7031
C22.0938 35.7969 22 33.5938 22 31.7031
L22 0
L28.7031 0
L28.7031 30.2031
C28.7031 32.5938 28.9062 34.5 30.5938 37.4062
C31.4062 38.5938 33.0938 41.5 35.9062 41.5
C37.4062 41.5 38.7969 40.5938 39.5 38.9062
C40.4062 37 40.2031 34.4062 40.2031 32.2969
L40.2031 -0.09375
L47 -0.09375
L47 32.4062
C47 36.2031 47.0938 40 45.0938 43.0938
C43.4062 45.7031 40.5 46.7031 38 46.7031
C33.5938 46.7031 29.5 44.0938 27.7031 40.0938
C27 43.9062 23.7969 46.7031 19.7031 46.7031
C15.9062 46.7031 12.4062 44.2969 10.2969 41.0938
L10.4062 45.5938
L3.70312 45.5938
z
" id="Inconsolata-6d"/>
      <path d="
M9.90625 45.5938
L9.90625 -0.09375
L17.0938 -0.09375
L17.0938 22.0938
C17.0938 24.9062 17.2031 27.9062 20.2969 32.7969
C24.5 39.4062 29.9062 40.5 33.2031 40.5
C37 40.5 39.4062 38.7031 40.7031 37.0938
C41.2969 36.2969 41.5938 35.5 42.4062 34.7969
L45.7969 41.7031
C42.9062 44.7031 38.7031 46.7031 33.5938 46.7031
C26.9062 46.7031 20.0938 43.2969 17.0938 36.7969
L17.4062 45.5938
z
" id="Inconsolata-72"/>
      <path d="
M7 45.7031
L7 39.4062
L33.2969 39.4062
L5 4.79688
L5 -0.09375
L44.9062 -0.09375
L44.9062 6.70312
C43.7031 6.90625 43.2969 6.09375 41.9062 6.09375
L14.7031 6.09375
L42.5938 40.7969
L42.5938 45.7031
z
" id="Inconsolata-7a"/>
      <path d="
M8.40625 66.4062
L8.40625 60.5938
L21.4062 60.5938
L21.4062 5.70312
L7.79688 5.70312
L7.79688 0
L42.0938 0
L42.0938 5.70312
L28.5938 5.70312
L28.5938 66.4062
z
" id="Inconsolata-6c"/>
     </defs>
     <g transform="translate(15.18 290.095625)rotate(-90.0)scale(0.12 -0.12)">
      <use xlink:href="#Inconsolata-4e"/>
      <use x="49.9999847412" xlink:href="#Inconsolata-6f"/>
      <use x="99.9999694824" xlink:href="#Inconsolata-72"/>
      <use x="149.999954224" xlink:href="#Inconsolata-6d"/>
      <use x="199.999938965" xlink:href="#Inconsolata-61"/>
      <use x="249.999923706" xlink:href="#Inconsolata-6c"/>
      <use x="299.999908447" xlink:href="#Inconsolata-69"/>
      <use x="349.999893188" xlink:href="#Inconsolata-7a"/>
      <use x="399.99987793" xlink:href="#Inconsolata-65"/>
      <use x="449.999862671" xlink:href="#Inconsolata-64"/>
      <use x="499.999847412" xlink:href="#Inconsolata-20"/>
      <use x="549.999832153" xlink:href="#Inconsolata-77"/>
      <use x="599.999816895" xlink:href="#Inconsolata-65"/>
      <use x="649.999801636" xlink:href="#Inconsolata-65"/>
      <use x="699.999786377" xlink:href="#Inconsolata-6b"/>
      <use x="749.999771118" xlink:href="#Inconsolata-6c"/>
      <use x="799.999755859" xlink:href="#Inconsolata-79"/>
      <use x="849.999740601" xlink:href="#Inconsolata-20"/>
      <use x="899.999725342" xlink:href="#Inconsolata-73"/>
      <use x="949.999710083" xlink:href="#Inconsolata-65"/>
      <use x="999.999694824" xlink:href="#Inconsolata-61"/>
      <use x="1049.99967957" xlink:href="#Inconsolata-72"/>
      <use x="1099.99966431" xlink:href="#Inconsolata-63"/>
      <use x="1149.99964905" xlink:href="#Inconsolata-68"/>
      <use x="1199.99963379" xlink:href="#Inconsolata-20"/>
      <use x="1249.99961853" xlink:href="#Inconsolata-71"/>
      <use x="1299.99960327" xlink:href="#Inconsolata-75"/>
      <use x="1349.99958801" xlink:href="#Inconsolata-65"/>
      <use x="1399.99957275" xlink:href="#Inconsolata-72"/>
      <use x="1449.9995575" xlink:href="#Inconsolata-69"/>
      <use x="1499.99954224" xlink:href="#Inconsolata-65"/>
      <use x="1549.99952698" xlink:href="#Inconsolata-73"/>
     </g>
    </g>
   </g>
   <g id="patch_3">
    <path d="
M46.6019 21.6612
L493.002 21.6612" style="fill:none;stroke:#000000;"/>
   </g>
   <g id="patch_4">
    <path d="
M493.002 367.261
L493.002 21.6612" style="fill:none;stroke:#000000;"/>
   </g>
   <g id="patch_5">
    <path d="
M46.6019 367.261
L493.002 367.261" style="fill:none;stroke:#000000;"/>
   </g>
   <g id="patch_6">
    <path d="
M46.6019 367.261
L46.6019 21.6612" style="fill:none;stroke:#000000;"/>
   </g>
   <g id="text_19">
    <!-- myspace -->
    <defs>
     <path d="
M5.90625 45.5938
L6 -16.7031
L13.2969 -16.7031
L13.2969 6
C16.4062 1.5 21.5 -1.29688 27 -1.29688
C36.4062 -1.29688 46.2031 6.59375 46.2031 23.2969
C46.2031 39.4062 36.7031 46.5938 27.7031 46.5938
C21.7969 46.5938 16.2969 43.5938 13.2031 38.5938
L13.2031 45.5938
z

M25 40.5
C29 40.5 38.7031 38.4062 38.7031 21.7969
C38.7031 7.40625 29.2969 5.09375 25 5.09375
C20.7031 5.09375 16.2969 7.29688 14.5 11.4062
C13.2031 14.5 13.2031 18.2969 13.2031 24.9062
C13.2031 28.7031 13.4062 31.5 14.4062 33.9062
C16.2031 38 20.4062 40.5 25 40.5" id="Inconsolata-70"/>
    </defs>
    <g transform="translate(245.2645 16.66125)scale(0.144 -0.144)">
     <use xlink:href="#Inconsolata-6d"/>
     <use x="49.9999847412" xlink:href="#Inconsolata-79"/>
     <use x="99.9999694824" xlink:href="#Inconsolata-73"/>
     <use x="149.999954224" xlink:href="#Inconsolata-70"/>
     <use x="199.999938965" xlink:href="#Inconsolata-61"/>
     <use x="249.999923706" xlink:href="#Inconsolata-63"/>
     <use x="299.999908447" xlink:href="#Inconsolata-65"/>
    </g>
   </g>
  </g>
 </g>
 <defs>
  <clipPath id="pdb4dcc4a7b">
   <rect height="345.6" width="446.4" x="46.601875" y="21.66125"/>
  </clipPath>
 </defs>
</svg>
