<?xml version="1.0" encoding="UTF-8" standalone="no"?>
<!-- Created with Inkscape (http://www.inkscape.org/) -->

<svg
   xmlns:dc="http://purl.org/dc/elements/1.1/"
   xmlns:cc="http://creativecommons.org/ns#"
   xmlns:rdf="http://www.w3.org/1999/02/22-rdf-syntax-ns#"
   xmlns:svg="http://www.w3.org/2000/svg"
   xmlns="http://www.w3.org/2000/svg"
   version="1.1"
   width="100%"
   height="100%"
   viewBox="0 0 700 154.99999"
   id="svg2">
  <defs
     id="defs4" />
  <metadata
     id="metadata7">
    <rdf:RDF>
      <cc:Work
         rdf:about="">
        <dc:format>image/svg+xml</dc:format>
        <dc:type
           rdf:resource="http://purl.org/dc/dcmitype/StillImage" />
        <dc:title></dc:title>
      </cc:Work>
    </rdf:RDF>
  </metadata>
  <g
     transform="scale(0.99950914,1.0004911)"
     id="text3924"
     style="font-size:13.14824677px;font-style:normal;font-variant:normal;font-weight:bold;font-stretch:normal;line-height:125%;letter-spacing:0px;word-spacing:0px;fill:#000000;fill-opacity:1;stroke:none;font-family:Quicksand;-inkscape-font-specification:Quicksand Bold">
    <path
       d="m 230.07396,1.4857515 c 0.0131,-0.013148 0.0263,-0.026296 0.0789,-0.039445 0.0526,-0.026296 0.17092,-0.039445 0.34185,-0.039445 0.39445,0 0.72315,-0.3287065 0.72315,-0.73630179 0,-0.39444701 -0.3287,-0.72315357 -0.72315,-0.72315357 -0.27611,0 -0.52593,0.02629657 -0.78889,0.10518597 -0.39445,0.11833411 -0.7626,0.42074429 -0.94668,0.8151913 -0.19722,0.38129879 -0.24981,0.80204359 -0.24981,1.28852819 l 0,0.1840755 -0.34186,0 c -0.40759,0 -0.7363,0.3155583 -0.7363,0.7231535 0,0.394447 0.32871,0.7231536 0.7363,0.7231536 l 0.34186,0 0,4.6413311 c 0,0.394447 0.31555,0.7231536 0.72315,0.7231536 0.40759,0 0.72315,-0.3287066 0.72315,-0.7231536 l 0,-4.6413311 0.39445,0 c 0.39445,0 0.72315,-0.3287066 0.72315,-0.7231536 0,-0.4075952 -0.3287,-0.7231535 -0.72315,-0.7231535 l -0.39445,0 0,-0.1840755 c 0,-0.4864846 0.10519,-0.6705606 0.11834,-0.6705606"
       id="path3996" />
    <path
       d="m 233.27329,2.6033525 c -0.39444,0 -0.71,0.3024101 -0.71,0.7231536 l 0,5.1278162 c 0,0.394447 0.31556,0.7100053 0.71,0.7100053 0.4076,0 0.71001,-0.3155583 0.71001,-0.7100053 l 0,-5.1278162 c 0,-0.4207435 -0.30241,-0.7231536 -0.71001,-0.7231536 m 0.71001,-1.93279229 c 0,-0.39444701 -0.30241,-0.71000532 -0.71001,-0.71000532 -0.39444,0 -0.71,0.31555831 -0.71,0.71000532 l 0,0.27611318 c 0,0.39444701 0.31556,0.72315361 0.71,0.72315361 0.4076,0 0.71001,-0.3287066 0.71001,-0.72315361 l 0,-0.27611318"
       id="path3998" />
    <path
       d="m 239.60089,2.6033525 c -0.65741,-0.013148 -1.22279,0.2235205 -1.65668,0.5127816 -0.092,0.065741 -0.19722,0.1709273 -0.27611,0.2629649 l 0,-0.092038 c 0,-0.3812988 -0.32871,-0.6837088 -0.72316,-0.6837088 -0.3813,0 -0.69685,0.30241 -0.69685,0.6837088 l 0,5.1804092 c 0,0.3812988 0.31555,0.6968571 0.69685,0.6968571 0.39445,0 0.72316,-0.3155583 0.72316,-0.6968571 l 0,-2.4981668 c 0.0657,-0.1840753 0.22352,-0.6837093 0.53907,-1.1044528 0.15778,-0.2498164 0.35501,-0.473337 0.60482,-0.6311158 0.22352,-0.1709271 0.48649,-0.2498167 0.7889,-0.2498167 0.39445,0 0.69686,-0.3287065 0.69686,-0.6968571 0,-0.3812988 -0.30241,-0.6837088 -0.69686,-0.6837088"
       id="path4000" />
    <path
       d="m 241.8026,8.2570986 0,0 c 0.52593,0.4207435 1.31483,0.8940808 2.34039,0.907229 l 0,0 c 0.64426,0 1.23594,-0.197224 1.70927,-0.5259298 l 0,0 c 0.47334,-0.3418541 0.82834,-0.8809332 0.82834,-1.5251967 l 0,0 c 0,-0.3024093 -0.092,-0.6048196 -0.24981,-0.8677843 l 0,0 c -0.22352,-0.3681505 -0.57853,-0.6179677 -0.93353,-0.7757465 l 0,0 c -0.3813,-0.1840753 -0.7889,-0.3024098 -1.22279,-0.3812992 l -0.0131,0 -0.0131,-0.013148 0,0 c -0.44704,-0.078889 -0.7889,-0.1972238 -0.95983,-0.3155579 l 0,0 c -0.092,-0.052593 -0.13148,-0.105186 -0.14463,-0.1314825 l 0,0 c -0.0263,-0.039445 -0.0263,-0.052593 -0.0263,-0.105186 l 0,0 c 0,-0.065741 0.0394,-0.1840756 0.21037,-0.3024097 l 0,0 c 0.17093,-0.1314823 0.46019,-0.2366684 0.78889,-0.2366684 l 0,0 c 0.42075,0 0.7889,0.2103722 1.20964,0.4864851 l 0,0 c 0.32871,0.22352 0.7626,0.1314822 0.97297,-0.1840754 l 0,0 c 0.19723,-0.3287059 0.10519,-0.7625986 -0.21037,-0.9729703 l 0,0 0,0 C 245.66827,3.0240969 245.024,2.5902044 244.11677,2.5902044 l 0,0 c -0.60481,0 -1.15704,0.1709276 -1.61723,0.4864852 l 0,0 c -0.43389,0.3287058 -0.77575,0.8414884 -0.77575,1.4463071 l 0,0 c 0,0.3024094 0.0789,0.5916714 0.22352,0.8283396 l 0,0 c 0.23667,0.3550023 0.55223,0.5916712 0.90723,0.7625983 l 0,0 c 0.34186,0.1577788 0.7363,0.262965 1.1439,0.3418544 l 0.0131,0 0,0 0,0 0,0 c 0.47333,0.092038 0.86778,0.2366686 1.05186,0.3681509 l 0,0 c 0.10518,0.065741 0.15778,0.1183343 0.17093,0.157779 l 0,0 c 0.0263,0.039445 0.0394,0.065741 0.0394,0.1314824 l 0,0 c 0,0.1051859 -0.0526,0.2366686 -0.23667,0.3944474 l 0,0 c -0.21037,0.1314824 -0.53908,0.2498167 -0.89408,0.2498167 l 0,0 c -0.51278,0.013148 -1.10445,-0.2892617 -1.44631,-0.5785228 l 0,0 c -0.28926,-0.2498165 -0.74945,-0.2103717 -0.98611,0.1051859 l 0,0 c -0.23667,0.2892612 -0.19723,0.7363021 0.092,0.9729703"
       id="path4002" />
    <path
       d="m 250.91679,2.5902042 -0.3287,0 0,-1.90649574 c 0,-0.40759524 -0.31556,-0.72315357 -0.72315,-0.72315357 -0.4076,0 -0.73631,0.31555833 -0.73631,0.72315357 l 0,0 0,1.90649574 -0.3813,0 c -0.40759,0 -0.72315,0.3155584 -0.72315,0.7231536 0,0.394447 0.31556,0.7231536 0.72315,0.7231536 l 0.3813,0 0,3.6683608 c 0,0.8020423 0.65742,1.4594554 1.45946,1.4594554 0.40759,0 0.72315,-0.3155583 0.72315,-0.7231536 0,-0.4075952 -0.31556,-0.7363018 -0.72315,-0.7363018 0,0 0,0 0,0 l 0,-3.6683608 0.3287,0 c 0.39445,0 0.73631,-0.3287066 0.73631,-0.7231536 0,-0.4075952 -0.34186,-0.7231536 -0.73631,-0.7231536"
       id="path4004" />
    <path
       d="m 260.64876,2.5902042 c -0.51278,0 -0.99927,0.1577792 -1.39372,0.4075957 -0.11833,-0.2498165 -0.36815,-0.4075957 -0.64426,-0.4075957 -0.39445,0 -0.69686,0.3155583 -0.69686,0.6968571 l 0,2.0379783 c 0,0 0,0 0,0 l 0,3.1424309 c 0,0.3812988 0.30241,0.6968571 0.69686,0.6968571 0.34185,0 0.63112,-0.249817 0.69686,-0.5653746 0.0263,-0.052593 0.0263,-0.092038 0.0263,-0.1314825 l 0,0 0,-3.1424309 c 0,-0.7363011 0.57853,-1.327973 1.31483,-1.327973 0.74945,0 1.36742,0.5916719 1.36742,1.327973 l 0,3.1424309 c 0,0.3812988 0.3287,0.6968571 0.69685,0.6968571 0.3813,0 0.68371,-0.3155583 0.68371,-0.6968571 l 0,-3.1424309 c 0,-1.4857504 -1.22279,-2.7348354 -2.74798,-2.7348354"
       id="path4006" />
    <path
       d="m 271.5392,3.3002096 c 0,-0.394447 -0.31556,-0.7100054 -0.69685,-0.7100054 -0.34186,0 -0.60482,0.2498171 -0.68371,0.5785229 -0.49964,-0.3550023 -1.09131,-0.5785229 -1.74872,-0.5785229 -0.89408,0 -1.66983,0.3812998 -2.2352,0.9861185 -0.56538,0.5916706 -0.89408,1.4068634 -0.89408,2.3140915 0,0.8940799 0.3287,1.7092727 0.89408,2.3140914 0.56537,0.5916705 1.34112,0.959822 2.2352,0.959822 0,0 0,0 0,0 0.65741,0 1.24908,-0.2103723 1.74872,-0.5653746 0.0789,0.3155576 0.34185,0.5653746 0.68371,0.5653746 0.38129,0 0.69685,-0.3155583 0.69685,-0.6968571 l 0,-2.5770563 c 0,0 0,0 0,0 0,0 0,0 0,0 l 0,-2.5902046 m -1.90649,3.944474 c -0.31556,0.3287058 -0.7626,0.5127816 -1.22279,0.5127816 -0.47334,0 -0.92038,-0.1840758 -1.22279,-0.5127816 -0.31555,-0.3418541 -0.49963,-0.8151918 -0.49963,-1.3542694 0,-0.5522258 0.18408,-1.0255636 0.49963,-1.3542694 0.30241,-0.3550023 0.74945,-0.5390782 1.22279,-0.5390782 0.46019,0 0.90723,0.1840759 1.22279,0.5390782 0.31555,0.3287058 0.51278,0.8020436 0.51278,1.3542694 0,0.5390776 -0.19723,1.0124153 -0.51278,1.3542694"
       id="path4008" />
    <path
       d="m 280.98149,3.9970666 c 0.72316,0 1.32798,0.6048201 1.32798,1.3542695 l 0,3.1161344 c 0,0.3812988 0.3287,0.6968571 0.71,0.6968571 0.3813,0 0.69686,-0.3155583 0.69686,-0.6968571 l 0,-3.1161344 c 0,-1.5251951 -1.22279,-2.7611319 -2.73484,-2.7611319 -0.82834,0 -1.57779,0.341855 -2.06427,0.9072291 -0.49963,-0.5653741 -1.23594,-0.9072291 -2.06428,-0.9072291 -0.49963,0 -0.98612,0.144631 -1.40686,0.3944474 -0.10519,-0.2498164 -0.355,-0.3944474 -0.63112,-0.3944474 -0.38129,0 -0.69685,0.3024101 -0.69685,0.7100054 l 0,2.0379782 c 0,0 0,0 0,0.013148 l 0,3.1161344 c 0,0.3418541 0.24981,0.6048195 0.56537,0.6837089 0.0395,0 0.0789,0.013148 0.13148,0.013148 0.27612,0 0.53908,-0.1840757 0.65742,-0.4207439 0,0 0,0 0,0 0,-0.026296 0,-0.052593 0,-0.065741 0.0263,-0.026297 0.0263,-0.052593 0.0394,-0.07889 0,0 0,-0.026296 0,-0.039445 0,-0.026296 0.0131,-0.065741 0.0131,-0.092038 l 0,0 0,-3.1161344 c 0,-0.7494494 0.60482,-1.3542695 1.32797,-1.3542695 0.7363,0 1.34112,0.5916719 1.35427,1.3148247 0,0.013148 0,0.026296 0,0.039445 l 0,3.1161344 c 0,0.3812988 0.34186,0.6968571 0.71001,0.6968571 0,0 0,0 0,0 0,0 0,0 0,0 0.3813,0 0.69685,-0.3155583 0.69685,-0.6968571 l 0,-3.1161344 c 0,-0.013148 0,-0.026296 0,-0.039445 0.0263,-0.7231528 0.61797,-1.3148247 1.36742,-1.3148247"
       id="path4010" />
    <path
       d="m 289.37234,9.1643276 c 0.93352,0 1.70927,-0.2761138 2.35353,-0.8677843 0.30241,-0.2761129 0.17093,-0.6705607 0,-0.854636 -0.17092,-0.2103717 -0.71,-0.2498164 -0.98612,0.039445 -0.3287,0.2498165 -0.89408,0.3681509 -1.36741,0.3287062 -0.46019,-0.039445 -0.98612,-0.2761135 -1.26224,-0.5916711 -0.23666,-0.22352 -0.38129,-0.5653749 -0.44704,-0.8677843 l 4.18115,0 c 0.36815,0 0.64426,-0.2103723 0.68371,-0.5259299 0.0131,-0.026296 0.0131,-0.092038 0.0131,-0.1183342 0,0 0,0 0,0 0,0 0,0 0,0 0,-0.026296 0,-0.052593 0,-0.065741 -0.10518,-1.7750115 -1.45945,-3.0503933 -3.16872,-3.0503933 -1.80131,0 -3.19503,1.498902 -3.20818,3.2870617 0.0131,1.7881598 1.40687,3.2739135 3.20818,3.2870617 m 0,-5.3250399 c 1.14389,0.092038 1.81445,0.8677848 1.94594,1.3937141 l -3.72096,0 c 0.10519,-0.5390775 0.65742,-1.3411212 1.77502,-1.3937141"
       id="path4012" />
  </g>
  <g
     transform="scale(0.99950914,1.0004911)"
     id="text3946"
     style="font-size:13.14824677px;font-style:normal;font-variant:normal;font-weight:bold;font-stretch:normal;line-height:125%;letter-spacing:0px;word-spacing:0px;fill:#000000;fill-opacity:1;stroke:none;font-family:Quicksand;-inkscape-font-specification:Quicksand Bold">
    <path
       d="m 466.67139,0.72315338 0,7.75746562 c 0,0.394447 0.32871,0.7231535 0.72316,0.7231535 0.40759,0 0.7363,-0.3287065 0.7363,-0.7231535 l 0,-7.75746562 c 0,-0.39444701 -0.32871,-0.72315357073486 -0.7363,-0.72315357073486 -0.39445,0 -0.72316,0.32870656073486 -0.72316,0.72315357073486"
       id="path4015" />
    <path
       d="m 475.40244,3.3396545 c 0,-0.394447 -0.31555,-0.7100053 -0.69685,-0.7100053 -0.34186,0 -0.60482,0.249817 -0.68371,0.5785228 -0.49963,-0.3550023 -1.09131,-0.5785228 -1.74872,-0.5785228 -0.89408,0 -1.66983,0.3812997 -2.2352,0.9861185 -0.56537,0.5916705 -0.89408,1.4068633 -0.89408,2.3140914 0,0.8940799 0.32871,1.7092727 0.89408,2.3140914 0.56537,0.5916705 1.34112,0.959822 2.2352,0.959822 0,0 0,0 0,0 0.65741,0 1.24909,-0.2103723 1.74872,-0.5653746 0.0789,0.3155576 0.34185,0.5653746 0.68371,0.5653746 0.3813,0 0.69685,-0.3155583 0.69685,-0.696857 l 0,-2.5770564 c 0,0 0,0 0,0 0,0 0,0 0,0 l 0,-2.5902046 m -1.90649,3.944474 c -0.31556,0.3287059 -0.7626,0.5127816 -1.22279,0.5127816 -0.47333,0 -0.92038,-0.1840757 -1.22279,-0.5127816 -0.31555,-0.3418541 -0.49963,-0.8151918 -0.49963,-1.3542694 0,-0.5522258 0.18408,-1.0255636 0.49963,-1.3542694 0.30241,-0.3550023 0.74946,-0.5390781 1.22279,-0.5390781 0.46019,0 0.90723,0.1840758 1.22279,0.5390781 0.31556,0.3287058 0.51278,0.8020436 0.51278,1.3542694 0,0.5390776 -0.19722,1.0124153 -0.51278,1.3542694"
       id="path4017" />
    <path
       d="m 477.75783,8.2965435 0,0 c 0.52593,0.4207435 1.31482,0.8940808 2.34039,0.907229 l 0,0 c 0.64426,0 1.23593,-0.197224 1.70927,-0.5259298 l 0,0 c 0.47334,-0.3418541 0.82834,-0.8809332 0.82834,-1.5251967 l 0,0 c 0,-0.3024093 -0.092,-0.6048196 -0.24982,-0.8677842 l 0,0 C 482.16249,5.9167112 481.80749,5.666894 481.45249,5.5091152 l 0,0 c -0.3813,-0.1840753 -0.7889,-0.3024098 -1.22279,-0.3812992 l -0.0131,0 -0.0131,-0.013148 0,0 c -0.44704,-0.078889 -0.78889,-0.1972238 -0.95982,-0.3155579 l 0,0 c -0.092,-0.052593 -0.13148,-0.105186 -0.14463,-0.1314825 l 0,0 c -0.0263,-0.039445 -0.0263,-0.052593 -0.0263,-0.105186 l 0,0 c 0,-0.065741 0.0394,-0.1840755 0.21038,-0.3024096 l 0,0 c 0.17092,-0.1314824 0.46018,-0.2366685 0.78889,-0.2366685 l 0,0 c 0.42074,0 0.7889,0.2103722 1.20964,0.4864851 l 0,0 c 0.3287,0.22352 0.7626,0.1314822 0.97297,-0.1840754 l 0,0 c 0.19722,-0.3287058 0.10518,-0.7625985 -0.21037,-0.9729703 l 0,0 0,0 c -0.42075,-0.2892611 -1.06501,-0.7231535 -1.97224,-0.7231535 l 0,0 c -0.60482,0 -1.15705,0.1709275 -1.61723,0.4864851 l 0,0 c -0.4339,0.3287058 -0.77575,0.8414884 -0.77575,1.4463071 l 0,0 c 0,0.3024094 0.0789,0.5916714 0.22352,0.8283396 l 0,0 c 0.23667,0.3550023 0.55223,0.5916713 0.90723,0.7625983 l 0,0 c 0.34185,0.1577788 0.7363,0.262965 1.1439,0.3418544 l 0.0131,0 0,0 0,0 0,0 c 0.47334,0.092038 0.86779,0.2366686 1.05186,0.3681509 l 0,0 c 0.10519,0.065741 0.15778,0.1183343 0.17093,0.157779 l 0,0 c 0.0263,0.039445 0.0394,0.065741 0.0394,0.1314824 l 0,0 c 0,0.1051859 -0.0526,0.2366686 -0.23667,0.3944475 l 0,0 c -0.21037,0.1314823 -0.53908,0.2498166 -0.89408,0.2498166 l 0,0 c -0.51278,0.013148 -1.10446,-0.2892617 -1.44631,-0.5785228 l 0,0 c -0.28926,-0.2498165 -0.74945,-0.2103716 -0.98612,0.105186 l 0,0 c -0.23667,0.2892611 -0.19722,0.736302 0.092,0.9729702"
       id="path4019" />
    <path
       d="m 486.87202,2.6296492 -0.3287,0 0,-1.90649582 c 0,-0.40759524 -0.31556,-0.72315357073486 -0.72316,-0.72315357073486 -0.40759,0 -0.7363,0.31555833073486 -0.7363,0.72315357073486 l 0,0 0,1.90649582 -0.3813,0 c -0.40759,0 -0.72315,0.3155583 -0.72315,0.7231535 0,0.394447 0.31556,0.7231536 0.72315,0.7231536 l 0.3813,0 0,3.6683609 c 0,0.8020422 0.65741,1.4594553 1.45946,1.4594553 0.40759,0 0.72315,-0.3155583 0.72315,-0.7231535 0,-0.4075953 -0.31556,-0.7363018 -0.72315,-0.7363018 0,0 0,0 0,0 l 0,-3.6683609 0.3287,0 c 0.39445,0 0.7363,-0.3287066 0.7363,-0.7231536 0,-0.4075952 -0.34185,-0.7231535 -0.7363,-0.7231535"
       id="path4021" />
    <path
       d="m 496.60398,2.6296492 c -0.51278,0 -0.99926,0.1577792 -1.39371,0.4075956 -0.11833,-0.2498164 -0.36815,-0.4075956 -0.64426,-0.4075956 -0.39445,0 -0.69686,0.3155583 -0.69686,0.696857 l 0,2.0379783 c 0,0 0,0 0,0 l 0,3.142431 c 0,0.3812987 0.30241,0.696857 0.69686,0.696857 0.34185,0 0.63111,-0.249817 0.69685,-0.5653746 0.0263,-0.052593 0.0263,-0.092038 0.0263,-0.1314824 l 0,0 0,-3.142431 c 0,-0.7363011 0.57852,-1.3279729 1.31482,-1.3279729 0.74945,0 1.36742,0.5916718 1.36742,1.3279729 l 0,3.142431 c 0,0.3812987 0.32871,0.696857 0.69686,0.696857 0.3813,0 0.68371,-0.3155583 0.68371,-0.696857 l 0,-3.142431 c 0,-1.4857504 -1.22279,-2.7348353 -2.74799,-2.7348353"
       id="path4023" />
    <path
       d="m 507.49443,3.3396545 c 0,-0.394447 -0.31556,-0.7100053 -0.69686,-0.7100053 -0.34185,0 -0.60482,0.249817 -0.68371,0.5785228 -0.49963,-0.3550023 -1.0913,-0.5785228 -1.74871,-0.5785228 -0.89408,0 -1.66983,0.3812997 -2.23521,0.9861185 -0.56537,0.5916705 -0.89408,1.4068633 -0.89408,2.3140914 0,0.8940799 0.32871,1.7092727 0.89408,2.3140914 0.56538,0.5916705 1.34113,0.959822 2.23521,0.959822 0,0 0,0 0,0 0.65741,0 1.24908,-0.2103723 1.74871,-0.5653746 0.0789,0.3155576 0.34186,0.5653746 0.68371,0.5653746 0.3813,0 0.69686,-0.3155583 0.69686,-0.696857 l 0,-2.5770564 c 0,0 0,0 0,0 0,0 0,0 0,0 l 0,-2.5902046 m -1.9065,3.944474 c -0.31555,0.3287059 -0.76259,0.5127816 -1.22278,0.5127816 -0.47334,0 -0.92038,-0.1840757 -1.22279,-0.5127816 -0.31556,-0.3418541 -0.49963,-0.8151918 -0.49963,-1.3542694 0,-0.5522258 0.18407,-1.0255636 0.49963,-1.3542694 0.30241,-0.3550023 0.74945,-0.5390781 1.22279,-0.5390781 0.46019,0 0.90723,0.1840758 1.22278,0.5390781 0.31556,0.3287058 0.51279,0.8020436 0.51279,1.3542694 0,0.5390776 -0.19723,1.0124153 -0.51279,1.3542694"
       id="path4025" />
    <path
       d="m 516.93672,4.0365116 c 0.72315,0 1.32797,0.6048201 1.32797,1.3542694 l 0,3.1161345 c 0,0.3812987 0.32871,0.696857 0.71001,0.696857 0.3813,0 0.69685,-0.3155583 0.69685,-0.696857 l 0,-3.1161345 c 0,-1.5251951 -1.22278,-2.7611318 -2.73483,-2.7611318 -0.82834,0 -1.57779,0.3418549 -2.06428,0.907229 -0.49963,-0.5653741 -1.23593,-0.907229 -2.06427,-0.907229 -0.49963,0 -0.98612,0.1446309 -1.40686,0.3944474 -0.10519,-0.2498165 -0.35501,-0.3944474 -0.63112,-0.3944474 -0.3813,0 -0.69686,0.30241 -0.69686,0.7100053 l 0,2.0379782 c 0,0 0,0 0,0.013148 l 0,3.1161345 c 0,0.341854 0.24982,0.6048194 0.56538,0.6837088 0.0394,0 0.0789,0.013148 0.13148,0.013148 0.27611,0 0.53908,-0.1840756 0.65741,-0.4207439 0,0 0,0 0,0 0,-0.026296 0,-0.052593 0,-0.065741 0.0263,-0.026297 0.0263,-0.052593 0.0394,-0.07889 0,0 0,-0.026296 0,-0.039445 0,-0.026297 0.0132,-0.065741 0.0132,-0.092038 l 0,0 0,-3.1161345 c 0,-0.7494493 0.60482,-1.3542694 1.32797,-1.3542694 0.7363,0 1.34112,0.5916718 1.35427,1.3148246 0,0.013148 0,0.026296 0,0.039445 l 0,3.1161345 c 0,0.3812987 0.34185,0.696857 0.71,0.696857 0,0 0,0 0,0 0,0 0,0 0,0 0.3813,0 0.69686,-0.3155583 0.69686,-0.696857 l 0,-3.1161345 c 0,-0.013148 0,-0.026296 0,-0.039445 0.0263,-0.7231528 0.61797,-1.3148246 1.36742,-1.3148246"
       id="path4027" />
    <path
       d="m 525.32756,9.2037725 c 0.93353,0 1.70928,-0.2761137 2.35354,-0.8677842 0.30241,-0.2761129 0.17093,-0.6705608 0,-0.8546361 -0.17093,-0.2103717 -0.71001,-0.2498164 -0.98612,0.039445 -0.32871,0.2498164 -0.89408,0.3681508 -1.36742,0.3287061 -0.46019,-0.039445 -0.98612,-0.2761135 -1.26223,-0.5916711 -0.23667,-0.2235199 -0.3813,-0.5653749 -0.44704,-0.8677843 l 4.18114,0 c 0.36815,0 0.64427,-0.2103722 0.68371,-0.5259298 0.0131,-0.026296 0.0131,-0.092038 0.0131,-0.1183343 0,0 0,0 0,0 0,0 0,0 0,0 0,-0.026296 0,-0.052593 0,-0.065741 -0.10519,-1.7750115 -1.45946,-3.0503932 -3.16873,-3.0503932 -1.80131,0 -3.19502,1.4989019 -3.20817,3.2870617 0.0131,1.7881597 1.40686,3.2739134 3.20817,3.2870616 m 0,-5.3250399 c 1.1439,0.092038 1.81446,0.8677848 1.94594,1.3937142 l -3.72095,0 c 0.10519,-0.5390776 0.65741,-1.3411213 1.77501,-1.3937142"
       id="path4029" />
  </g>
  <g
     transform="scale(0.99950914,1.0004911)"
     id="text3011"
     style="font-size:13.14824677px;font-style:normal;font-variant:normal;font-weight:bold;font-stretch:normal;line-height:125%;letter-spacing:0px;word-spacing:0px;fill:#000000;fill-opacity:1;stroke:none;font-family:Quicksand;-inkscape-font-specification:Quicksand Bold">
    <path
       d="m 336.33378,154.92392 c 0.93352,0 1.70927,-0.27611 2.35353,-0.86778 0.30241,-0.27612 0.17093,-0.67057 0,-0.85464 -0.17092,-0.21037 -0.71,-0.24982 -0.98612,0.0394 -0.3287,0.24982 -0.89408,0.36815 -1.36741,0.32871 -0.46019,-0.0394 -0.98612,-0.27611 -1.26223,-0.59167 -0.23667,-0.22352 -0.3813,-0.56538 -0.44704,-0.86779 l 4.18114,0 c 0.36815,0 0.64426,-0.21037 0.68371,-0.52593 0.0131,-0.0263 0.0131,-0.092 0.0131,-0.11833 0,0 0,0 0,0 0,0 0,0 0,0 0,-0.0263 0,-0.0526 0,-0.0657 -0.10518,-1.77501 -1.45945,-3.05039 -3.16872,-3.05039 -1.80131,0 -3.19503,1.4989 -3.20818,3.28706 0.0131,1.78816 1.40687,3.27391 3.20818,3.28706 m 0,-5.32504 c 1.14389,0.092 1.81446,0.86778 1.94594,1.39371 l -3.72096,0 c 0.10519,-0.53907 0.65742,-1.34112 1.77502,-1.39371"
       id="path4092" />
    <path
       d="m 348.46139,149.75666 c 0.72315,0 1.32797,0.60482 1.32797,1.35427 l 0,3.11613 c 0,0.3813 0.32871,0.69686 0.71001,0.69686 0.3813,0 0.69686,-0.31556 0.69686,-0.69686 l 0,-3.11613 c 0,-1.5252 -1.22279,-2.76113 -2.73484,-2.76113 -0.82834,0 -1.57779,0.34185 -2.06427,0.90723 -0.49964,-0.56538 -1.23594,-0.90723 -2.06428,-0.90723 -0.49963,0 -0.98612,0.14463 -1.40686,0.39444 -0.10519,-0.24981 -0.355,-0.39444 -0.63112,-0.39444 -0.3813,0 -0.69685,0.30241 -0.69685,0.71 l 0,2.03798 c 0,0 0,0 0,0.0131 l 0,3.11613 c 0,0.34186 0.24981,0.60482 0.56537,0.68371 0.0394,0 0.0789,0.0131 0.13148,0.0131 0.27612,0 0.53908,-0.18408 0.65742,-0.42074 0,0 0,0 0,0 0,-0.0263 0,-0.0526 0,-0.0657 0.0263,-0.0263 0.0263,-0.0526 0.0394,-0.0789 0,0 0,-0.0263 0,-0.0395 0,-0.0263 0.0131,-0.0657 0.0131,-0.092 l 0,0 0,-3.11613 c 0,-0.74945 0.60482,-1.35427 1.32797,-1.35427 0.7363,0 1.34112,0.59167 1.35427,1.31482 0,0.0131 0,0.0263 0,0.0394 l 0,3.11613 c 0,0.3813 0.34186,0.69686 0.71001,0.69686 0,0 0,0 0,0 0,0 0,0 0,0 0.3813,0 0.69685,-0.31556 0.69685,-0.69686 l 0,-3.11613 c 0,-0.0131 0,-0.0263 0,-0.0394 0.0263,-0.72315 0.61797,-1.31482 1.36742,-1.31482"
       id="path4094" />
    <path
       d="m 359.66596,149.0598 c 0,-0.39445 -0.31556,-0.71 -0.69686,-0.71 -0.34185,0 -0.60482,0.24981 -0.68371,0.57852 -0.49963,-0.355 -1.0913,-0.57852 -1.74872,-0.57852 -0.89408,0 -1.66982,0.3813 -2.2352,0.98611 -0.56537,0.59168 -0.89408,1.40687 -0.89408,2.3141 0,0.89408 0.32871,1.70927 0.89408,2.31409 0.56538,0.59167 1.34112,0.95982 2.2352,0.95982 0,0 0,0 0,0 0.65742,0 1.24909,-0.21037 1.74872,-0.56537 0.0789,0.31555 0.34186,0.56537 0.68371,0.56537 0.3813,0 0.69686,-0.31556 0.69686,-0.69686 l 0,-2.57705 c 0,0 0,0 0,0 0,0 0,0 0,0 l 0,-2.59021 m -1.9065,3.94448 c -0.31556,0.3287 -0.7626,0.51278 -1.22279,0.51278 -0.47333,0 -0.92037,-0.18408 -1.22278,-0.51278 -0.31556,-0.34186 -0.49964,-0.8152 -0.49964,-1.35427 0,-0.55223 0.18408,-1.02557 0.49964,-1.35427 0.30241,-0.35501 0.74945,-0.53908 1.22278,-0.53908 0.46019,0 0.90723,0.18407 1.22279,0.53908 0.31556,0.3287 0.51278,0.80204 0.51278,1.35427 0,0.53907 -0.19722,1.01241 -0.51278,1.35427"
       id="path4096" />
    <path
       d="m 362.96802,148.36294 c -0.39445,0 -0.71001,0.30241 -0.71001,0.72316 l 0,5.12781 c 0,0.39445 0.31556,0.71001 0.71001,0.71001 0.40759,0 0.71,-0.31556 0.71,-0.71001 l 0,-5.12781 c 0,-0.42075 -0.30241,-0.72316 -0.71,-0.72316 m 0.71,-1.93279 c 0,-0.39444 -0.30241,-0.71 -0.71,-0.71 -0.39445,0 -0.71001,0.31556 -0.71001,0.71 l 0,0.27612 c 0,0.39444 0.31556,0.72315 0.71001,0.72315 0.40759,0 0.71,-0.32871 0.71,-0.72315 l 0,-0.27612"
       id="path4098" />
    <path
       d="m 365.75873,146.4433 0,7.75747 c 0,0.39444 0.32871,0.72315 0.72316,0.72315 0.40759,0 0.7363,-0.32871 0.7363,-0.72315 l 0,-7.75747 c 0,-0.39445 -0.32871,-0.72315 -0.7363,-0.72315 -0.39445,0 -0.72316,0.3287 -0.72316,0.72315"
       id="path4100" />
  </g>
  <g
     transform="scale(0.99950914,1.0004911)"
     id="text3053"
     style="font-size:13.14824677px;font-style:normal;font-variant:normal;font-weight:bold;font-stretch:normal;line-height:125%;letter-spacing:0px;word-spacing:0px;fill:#000000;fill-opacity:1;stroke:none;font-family:Quicksand;-inkscape-font-specification:Quicksand Bold">
    <path
       d="m 416.80714,113.99516 c 0,0.3813 0.31556,0.71001 0.71,0.71001 0.35501,0 0.63112,-0.24982 0.69686,-0.56537 0.49963,0.34185 1.13075,0.56537 1.78816,0.56537 1.77501,0 3.19503,-1.4989 3.19503,-3.27391 0,-1.80131 -1.42002,-3.30021 -3.19503,-3.30021 -0.64426,0 -1.27538,0.21037 -1.76186,0.55222 l 0,-2.47187 c 0,-0.3813 -0.31556,-0.71 -0.72316,-0.71 -0.39444,0 -0.71,0.3287 -0.71,0.71 l 0,5.20671 c 0,0 0,0 0,0.0131 0,0 0,0 0,0 l 0,2.5639 m 1.95909,-3.89188 c 0.3287,-0.34185 0.74945,-0.53907 1.23593,-0.53907 0.47334,0 0.90723,0.19722 1.23594,0.53907 0.3287,0.32871 0.52593,0.80205 0.52593,1.32798 0,0.49963 -0.19723,0.97297 -0.52593,1.30167 -0.32871,0.34186 -0.7626,0.53908 -1.23594,0.53908 -0.48648,0 -0.90723,-0.19722 -1.23593,-0.53908 -0.32871,-0.3287 -0.52593,-0.80204 -0.52593,-1.30167 0,-0.52593 0.19722,-0.99927 0.52593,-1.32798"
       id="path4083" />
    <path
       d="m 425.57907,106.22455 0,7.75747 c 0,0.39444 0.32871,0.72315 0.72316,0.72315 0.40759,0 0.7363,-0.32871 0.7363,-0.72315 l 0,-7.75747 c 0,-0.39445 -0.32871,-0.72315 -0.7363,-0.72315 -0.39445,0 -0.72316,0.3287 -0.72316,0.72315"
       id="path4085" />
    <path
       d="m 431.61473,114.74461 c 0,0 0,0 0,0 0.86779,0 1.65668,-0.3813 2.19576,-0.99926 0.59167,-0.57852 0.92038,-1.39372 0.92038,-2.31409 l 0,0 c 0,-0.89408 -0.32871,-1.66983 -0.92038,-2.30095 -0.53908,-0.61796 -1.32797,-0.99926 -2.19576,-0.99926 -0.90722,0 -1.66982,0.3813 -2.26149,0.99926 -0.56538,0.63112 -0.90723,1.40687 -0.90723,2.30095 0,0.92037 0.34185,1.73557 0.90723,2.31409 0.59167,0.61796 1.35427,0.99926 2.26149,0.99926 m -1.26223,-4.68077 c 0.32871,-0.28926 0.7626,-0.49963 1.26223,-0.49963 0.46019,0 0.88094,0.21037 1.20964,0.49963 0.32871,0.355 0.51278,0.82834 0.51278,1.36742 l 0,0 c 0,0.56537 -0.18407,1.02556 -0.51278,1.39371 -0.3287,0.31556 -0.74945,0.48649 -1.20964,0.48649 -0.49963,0 -0.93352,-0.17093 -1.26223,-0.48649 -0.30241,-0.36815 -0.47333,-0.82834 -0.47333,-1.39371 0,-0.53908 0.17092,-1.01242 0.47333,-1.36742"
       id="path4087" />
    <path
       d="m 442.84334,111.4444 c 0,0 0,0 0,0 l 0,-2.6165 c 0,-0.3813 -0.30241,-0.69685 -0.69686,-0.69685 -0.34185,0 -0.63112,0.23667 -0.69686,0.55222 -0.47333,-0.34185 -1.07815,-0.55222 -1.76186,-0.55222 -0.86779,0 -1.66983,0.3813 -2.2352,0.97297 -0.56538,0.61796 -0.92038,1.43316 -0.92038,2.34038 0,0.92038 0.355,1.73557 0.92038,2.3141 0.56537,0.61796 1.36741,0.99926 2.2352,0.99926 0,0 0,0 0,0 0.64426,0 1.24908,-0.19722 1.72242,-0.52593 -0.17093,0.80205 -0.86779,1.40687 -1.72242,1.40687 -0.27611,0 -0.52593,-0.0657 -0.74945,-0.18408 -0.36815,-0.15778 -0.77575,-0.0263 -0.94668,0.32871 -0.18407,0.355 -0.0263,0.78889 0.31556,0.94667 0.4076,0.21037 0.89408,0.32871 1.38057,0.32871 1.74871,0 3.15558,-1.43316 3.15558,-3.15558 l 0,-2.44558 c 0,0 0,-0.0131 0,-0.0131 m -1.9065,1.35427 c -0.34185,0.35501 -0.74945,0.53908 -1.24908,0.53908 -0.46019,0 -0.89408,-0.18407 -1.20964,-0.53908 -0.31556,-0.30241 -0.52593,-0.80204 -0.52593,-1.35427 0,-0.52592 0.21037,-1.02556 0.52593,-1.34112 0.31556,-0.36815 0.74945,-0.56537 1.20964,-0.56537 0.49963,0 0.90723,0.19722 1.24908,0.56537 0.28926,0.31556 0.49964,0.8152 0.49964,1.34112 0,0.55223 -0.21038,1.05186 -0.49964,1.35427"
       id="path4089" />
  </g>
  <path
     d="m 160.00217,23.865531 4.99281,-5.064519 89.8707,0 4.99282,-5.064518 4.99281,5.064518 89.8707,0 4.99282,5.064519"
     id="path4112"
     style="fill:none;stroke:#000000;stroke-width:1.00570798px;stroke-linecap:round;stroke-linejoin:round;stroke-opacity:1" />
  <path
     d="m 385.00121,23.865531 4.99282,-5.064519 99.85634,0 4.9928,-5.064518 4.99282,5.064518 104.84915,0 4.99282,5.064519"
     id="path4114"
     style="fill:none;stroke:#000000;stroke-width:1.00570798px;stroke-linecap:round;stroke-linejoin:round;stroke-opacity:1" />
  <path
     d="m 0.50285271,131.13446 4.99281879,5.06452 339.5115085,0 4.99282,5.06452 4.99282,-5.06452 339.51151,0 4.99282,-5.06452"
     id="path4116"
     style="fill:none;stroke:#000000;stroke-width:1.00570798px;stroke-linecap:round;stroke-linejoin:round;stroke-opacity:1" />
  <path
     d="m 160.00217,90.895961 4.99282,5.064518 259.62645,0 4.99282,5.064521 4.99282,-5.064521 259.62645,0 4.99281,-5.064518"
     id="path4118"
     style="fill:none;stroke:#000000;stroke-width:1.00570798px;stroke-linecap:round;stroke-linejoin:round;stroke-opacity:1" />
  <g
     transform="scale(0.99950913,1.0004911)"
     id="text3891-0"
     style="font-size:52.59298706px;font-style:normal;font-variant:normal;font-weight:normal;font-stretch:normal;line-height:125%;letter-spacing:0px;word-spacing:0px;fill:#778899;fill-opacity:1;stroke:none;font-family:Quicksand;-inkscape-font-specification:Quicksand">
    <path
       d="m 36.869177,69.028711 c 0,0.631115 0.525931,1.209639 1.209639,1.209639 0.736301,0 1.262231,-0.578524 1.262231,-1.209639 l 0,-14.042327 c 0,-5.785223 -4.680781,-10.466005 -10.466004,-10.466005 -3.94447,0 -7.415613,2.208909 -9.256366,5.469671 -1.788159,-3.260762 -5.206709,-5.469671 -9.203772,-5.469671 -3.2081694,0 -6.0481958,1.420013 -7.9415414,3.681509 l 0,-2.47187 c 0,-0.683708 -0.5259307,-1.209639 -1.2622317,-1.209639 -0.63111525,0 -1.20963874,0.525931 -1.20963874,1.209639 l 0,8.835622 0,0.420744 0,14.042327 0,0.262965 c 0.1577788,0.473337 0.57852333,0.894081 1.05185974,0.946674 l 0.157779,0 0.1577789,0 c 0.1051859,0 0.157779,0 0.210372,-0.05259 0.1051858,0 0.262965,-0.105186 0.3155579,-0.157779 0.3681505,-0.210372 0.5785229,-0.578523 0.5785229,-0.999267 l 0,-14.042327 c 0,-4.365214 3.5237345,-7.994134 7.9415414,-7.994134 4.417806,0 7.941541,3.62892 7.941541,7.994134 l 0,14.042327 0,0.105186 0,0.157779 c 0.05259,0.05259 0.05259,0.105186 0.05259,0.157779 0.05259,0.05259 0.05259,0.105186 0.05259,0.105186 0.05259,0.05259 0.05259,0.05259 0.05259,0.105186 0.05259,0 0.05259,0.05259 0.105186,0.105186 l 0.157779,0.157779 c 0.05259,0.05259 0.105186,0.105186 0.157779,0.105186 0.105185,0.05259 0.210372,0.157779 0.315557,0.157779 0,0 0.05259,0.05259 0.105186,0.05259 l 0.105186,0 0.157779,0 c 0.210372,0 0.420744,-0.05259 0.631116,-0.157779 0.262965,-0.157779 0.52593,-0.368151 0.631116,-0.683709 l 0,-0.105186 c 0,0 0.05259,-0.05259 0.05259,-0.105186 l 0,-0.157779 0,-14.042327 c 0,-4.365214 3.576327,-7.994134 7.941541,-7.994134 4.417807,0 7.888948,3.62892 7.994134,7.994134 l 0,14.042327"
       id="path4032" />
    <path
       d="m 70.37995,44.467786 c -0.683708,0 -1.262232,0.525931 -1.262232,1.262232 l 0,3.786695 c -2.208903,-3.05039 -5.732639,-5.048927 -9.677109,-5.048927 -6.784489,0 -12.201573,5.837829 -12.201573,12.885282 0,7.047453 5.417084,12.885282 12.201573,12.885282 3.94447,0 7.468206,-2.05113 9.677109,-5.10152 l 0,3.839288 c 0,0.683708 0.578524,1.262232 1.262232,1.262232 0.683708,0 1.262232,-0.578524 1.262232,-1.262232 l 0,-23.2461 c 0,-0.736301 -0.578524,-1.262232 -1.262232,-1.262232 M 59.440609,67.713887 c -5.259294,0 -9.67711,-4.575596 -9.67711,-10.360819 0,-5.785223 4.417816,-10.413411 9.67711,-10.413411 5.311886,0 9.677109,4.628188 9.677109,10.413411 0,5.785223 -4.365223,10.360819 -9.677109,10.360819"
       id="path4034" />
    <path
       d="m 82.641511,68.976118 0,0 c 0,0.683708 0.578524,1.262232 1.262232,1.262232 l 0,0 c 0.736301,0 1.314825,-0.578524 1.314825,-1.262232 l 0,-23.2461 0,0 c 0,-0.736301 -0.578524,-1.262232 -1.314825,-1.262232 l 0,0 c -0.683708,0 -1.262232,0.525931 -1.262232,1.262232 l 0,23.2461 m 0,-30.451339 0,0 c 0,0.736301 0.578524,1.367417 1.262232,1.367417 l 0,0 c 0.736301,0 1.314825,-0.631116 1.314825,-1.367417 l 0,-1.209639 0,0 c 0,-0.683708 -0.578524,-1.262232 -1.314825,-1.262232 l 0,0 c -0.683708,0 -1.262232,0.578524 -1.262232,1.262232 l 0,1.209639"
       id="path4036" />
    <path
       d="m 96.644401,68.976118 0,0 c 0,0.683708 0.578524,1.262232 1.262232,1.262232 l 0,0 c 0.736301,0 1.314825,-0.578524 1.314825,-1.262232 l 0,-34.290627 0,0 c 0,-0.683708 -0.578524,-1.262232 -1.314825,-1.262232 l 0,0 c -0.683708,0 -1.262232,0.578524 -1.262232,1.262232 l 0,34.290627"
       id="path4038" />
    <path
       d="m 107.21806,51.778211 c 0,10.255623 8.20451,18.460139 18.46013,18.460139 1.57779,0 3.10299,-0.210372 4.523,-0.578523 0.68371,-0.105186 1.15705,-0.841488 0.89408,-1.525197 -0.0526,-0.736301 -0.78889,-1.051859 -1.4726,-0.89408 -1.31483,0.36815 -2.57706,0.420744 -3.94448,0.420744 -8.73042,0 -15.88308,-7.152655 -15.88308,-15.883083 0,-8.677834 7.15266,-15.830489 15.88308,-15.830489 8.67784,0 15.83049,7.152655 15.83049,15.830489 0,2.629647 -0.57852,5.101522 -1.73557,7.20524 -0.21037,0.525929 -1.4726,2.366684 -3.05039,2.734835 l -0.42074,0 c -0.52593,0 -0.7889,-0.157779 -0.94668,-0.368151 -0.15778,-0.315558 -0.36815,-0.841488 -0.31555,-1.157046 l -0.0526,0 0,-7.731169 0,-0.262965 0,-0.420744 c 0,-5.364479 -4.10226,-9.834888 -9.30896,-9.834888 -5.2067,0 -9.41414,4.470409 -9.41414,9.834888 0,5.417073 4.20744,9.940075 9.41414,9.940075 2.73484,0 5.04893,-1.209641 6.7845,-3.155579 l 0,1.788161 c 0,0.89408 0.31556,1.73557 0.84149,2.524464 0.57852,0.788894 1.57779,1.42001 2.9978,1.42001 0.31556,0 0.68371,0 1.05186,-0.105186 3.10298,-0.894079 4.62818,-3.839288 4.78596,-3.997067 1.26223,-2.471868 1.94594,-5.311894 1.94594,-8.414878 0,-10.203029 -8.20452,-18.407545 -18.40755,-18.407545 -10.25562,0 -18.46013,8.204516 -18.46013,18.407545 m 11.78082,0 c 0,-3.997063 2.99781,-7.257832 6.67931,-7.257832 3.62892,0 6.73191,3.260769 6.73191,7.257832 0,4.049656 -3.10299,7.20524 -6.73191,7.20524 -3.6815,0 -6.67931,-3.155584 -6.67931,-7.20524"
       id="path4040" />
    <path
       d="m 197.75524,69.028711 c 0,0.631115 0.52593,1.209639 1.20964,1.209639 0.7363,0 1.26223,-0.578524 1.26223,-1.209639 l 0,-14.042327 c 0,-5.785223 -4.68078,-10.466005 -10.466,-10.466005 -3.94447,0 -7.41562,2.208909 -9.25637,5.469671 -1.78816,-3.260762 -5.20671,-5.469671 -9.20377,-5.469671 -3.20817,0 -6.0482,1.420013 -7.94154,3.681509 l 0,-2.47187 c 0,-0.683708 -0.52593,-1.209639 -1.26224,-1.209639 -0.63111,0 -1.20963,0.525931 -1.20963,1.209639 l 0,8.835622 0,0.420744 0,14.042327 0,0.262965 c 0.15777,0.473337 0.57852,0.894081 1.05186,0.946674 l 0.15777,0 0.15778,0 c 0.10519,0 0.15778,0 0.21038,-0.05259 0.10518,0 0.26296,-0.105186 0.31555,-0.157779 0.36815,-0.210372 0.57853,-0.578523 0.57853,-0.999267 l 0,-14.042327 c 0,-4.365214 3.52373,-7.994134 7.94154,-7.994134 4.4178,0 7.94154,3.62892 7.94154,7.994134 l 0,14.042327 0,0.105186 0,0.157779 c 0.0526,0.05259 0.0526,0.105186 0.0526,0.157779 0.0526,0.05259 0.0526,0.105186 0.0526,0.105186 0.0526,0.05259 0.0526,0.05259 0.0526,0.105186 0.0526,0 0.0526,0.05259 0.10518,0.105186 l 0.15778,0.157779 c 0.0526,0.05259 0.10519,0.105186 0.15778,0.105186 0.10519,0.05259 0.21037,0.157779 0.31556,0.157779 0,0 0.0526,0.05259 0.10519,0.05259 l 0.10518,0 0.15778,0 c 0.21037,0 0.42074,-0.05259 0.63112,-0.157779 0.26296,-0.157779 0.52593,-0.368151 0.63111,-0.683709 l 0,-0.105186 c 0,0 0.0526,-0.05259 0.0526,-0.105186 l 0,-0.157779 0,-14.042327 c 0,-4.365214 3.57633,-7.994134 7.94155,-7.994134 4.4178,0 7.88894,3.62892 7.99413,7.994134 l 0,14.042327"
       id="path4042" />
    <path
       d="m 210.96511,68.976118 0,0 c 0,0.683708 0.57853,1.262232 1.26223,1.262232 l 0,0 c 0.7363,0 1.31483,-0.578524 1.31483,-1.262232 l 0,-23.2461 0,0 c 0,-0.736301 -0.57853,-1.262232 -1.31483,-1.262232 l 0,0 c -0.6837,0 -1.26223,0.525931 -1.26223,1.262232 l 0,23.2461 m 0,-30.451339 0,0 c 0,0.736301 0.57853,1.367417 1.26223,1.367417 l 0,0 c 0.7363,0 1.31483,-0.631116 1.31483,-1.367417 l 0,-1.209639 0,0 c 0,-0.683708 -0.57853,-1.262232 -1.31483,-1.262232 l 0,0 c -0.6837,0 -1.26223,0.578524 -1.26223,1.262232 l 0,1.209639"
       id="path4044" />
    <path
       d="m 237.11698,70.23835 0,0 c 0,0 0,0 0,0 l 0,0 c 3.05039,0 5.94301,-1.051862 8.09932,-2.734835 l 0,0 c 0.63111,-0.473337 0.7363,-1.262233 0.26296,-1.840755 l 0,0 c -0.42074,-0.473336 -1.15705,-0.631115 -1.73557,-0.210372 l 0,0 0,0 c -1.84075,1.420009 -4.15485,2.261499 -6.62671,2.261499 l 0,0 c -5.9956,0 -10.72897,-4.628189 -10.72897,-10.413412 l 0,0 c 0,-5.680037 4.73337,-10.360818 10.72897,-10.360818 l 0,0 c 2.47186,0 4.78596,0.841489 6.62671,2.314091 l 0,0 c 0.57852,0.420744 1.31483,0.262965 1.73557,-0.210372 l 0,0 c 0.47334,-0.578522 0.36815,-1.367418 -0.15778,-1.735568 l 0,0 c -2.26149,-1.78816 -5.15411,-2.840022 -8.2045,-2.840022 l 0,0 c -7.36301,0 -13.25344,5.68005 -13.25344,12.832689 l 0,0 c 0,7.257825 5.89043,12.937875 13.25344,12.937875"
       id="path4046" />
    <path
       d="m 274.63222,68.976118 c 0,0.683708 0.57852,1.262232 1.26223,1.262232 0.7363,0 1.31483,-0.578524 1.31483,-1.262232 l 0,-14.357885 c 0,-5.943002 -4.83857,-10.150447 -10.78157,-10.150447 -3.26076,0 -6.20597,1.472606 -8.15191,3.786695 l 0,-13.56899 c 0,-0.683708 -0.57852,-1.262232 -1.31482,-1.262232 -0.68371,0 -1.26224,0.578524 -1.26224,1.262232 l 0,19.511998 0,0.420744 0,14.357885 c 0,0.157779 0,0.262965 0.0526,0.420744 0.0526,0.157779 0.10518,0.262965 0.21037,0.420744 0.26296,0.262965 0.63111,0.420744 0.99927,0.420744 l 0.15777,0 0.10519,0 c 0.0526,0 0.10519,-0.05259 0.10519,-0.05259 0.36815,-0.105186 0.63111,-0.315558 0.78889,-0.631116 0.0526,-0.05259 0.0526,-0.105186 0.10519,-0.210372 0,-0.05259 0.0526,-0.105186 0.0526,-0.210372 l 0,-0.157779 0,-14.357885 c 0,-4.522993 3.68151,-7.57339 8.15191,-7.57339 4.523,0 8.20451,3.050397 8.20451,7.57339 l 0,14.357885"
       id="path4048" />
    <path
       d="m 310.41019,44.467786 c -0.68371,0 -1.26224,0.525931 -1.26224,1.262232 l 0,3.786695 c -2.2089,-3.05039 -5.73264,-5.048927 -9.67711,-5.048927 -6.78448,0 -12.20157,5.837829 -12.20157,12.885282 0,7.047453 5.41709,12.885282 12.20157,12.885282 3.94447,0 7.46821,-2.05113 9.67711,-5.10152 l 0,3.839288 c 0,0.683708 0.57853,1.262232 1.26224,1.262232 0.6837,0 1.26223,-0.578524 1.26223,-1.262232 l 0,-23.2461 c 0,-0.736301 -0.57853,-1.262232 -1.26223,-1.262232 m -10.93935,23.246101 c -5.25929,0 -9.67711,-4.575596 -9.67711,-10.360819 0,-5.785223 4.41782,-10.413411 9.67711,-10.413411 5.31189,0 9.67711,4.628188 9.67711,10.413411 0,5.785223 -4.36522,10.360819 -9.67711,10.360819"
       id="path4050" />
    <path
       d="m 333.29555,70.23835 c 4.36521,0 8.2045,-2.314095 10.41341,-5.837822 0.36815,-0.631115 0.15778,-1.367418 -0.42075,-1.788161 -0.52593,-0.315558 -1.31482,-0.210372 -1.68297,0.420744 -1.73557,2.892611 -4.89115,4.680776 -8.30969,4.680776 -5.31189,0 -9.72971,-4.260038 -9.99267,-9.887482 l 21.14238,0 c 0.68371,0 1.26223,-0.473338 1.26223,-1.157046 l 0,-0.157779 0,-0.05259 c -0.52593,-6.731895 -5.78523,-11.991201 -12.41194,-11.991201 -6.94227,0 -12.51714,5.785236 -12.51714,12.937875 0,7.047453 5.57487,12.832689 12.51714,12.832689 m 0,-23.2461 c 4.73336,0 8.83562,3.523735 9.6771,8.362285 l -19.51199,0 c 0.94667,-4.891143 4.99634,-8.362285 9.83489,-8.362285"
       id="path4052" />
    <path
       d="m 355.03615,68.976118 0,0 c 0,0.683708 0.57852,1.262232 1.26223,1.262232 l 0,0 c 0.7363,0 1.31482,-0.578524 1.31482,-1.262232 l 0,-34.290627 0,0 c 0,-0.683708 -0.57852,-1.262232 -1.31482,-1.262232 l 0,0 c -0.68371,0 -1.26223,0.578524 -1.26223,1.262232 l 0,34.290627"
       id="path4054" />
    <path
       d="m 367.29279,52.98785 0,0 11.2023,0 0,0 c 0.52593,0 0.99927,-0.420744 0.99927,-1.05186 l 0,0 c 0,-0.578522 -0.47334,-0.946673 -0.99927,-0.946673 l -11.2023,0 0,0 c -0.57853,0 -0.99927,0.368151 -0.99927,0.946673 l 0,0 c 0,0.631116 0.42074,1.05186 0.99927,1.05186"
       id="path4056" />
    <path
       d="m 387.55177,66.556841 0,0 c 2.10372,1.682974 5.36449,3.628916 9.51934,3.681509 l 0,0 c 2.52446,0 4.62818,-0.736303 6.41634,-2.051127 l 0,0 c 1.73557,-1.314823 2.94521,-3.050395 2.94521,-5.206705 l 0,0 c 0,-2.156311 -1.20964,-4.154847 -2.89262,-5.259299 l 0,0 c -1.78816,-0.999266 -3.78669,-1.735569 -6.25856,-2.103719 l -0.10519,0 0,0 c -2.36668,-0.368151 -4.10225,-0.999268 -5.2593,-1.788162 l 0,0 c -0.99926,-0.788894 -1.4726,-1.525198 -1.4726,-2.577056 l 0,0 c 0,-1.051859 0.57852,-2.103721 1.63038,-2.945208 l 0,0 c 1.10445,-0.89408 2.78743,-1.472603 4.89115,-1.472603 l 0,0 c 2.52446,0 4.41781,1.314826 6.31116,2.577056 l 0,0 c 0.57852,0.368151 1.36742,0.210371 1.73557,-0.368151 l 0,0 c 0.36815,-0.578522 0.21037,-1.367418 -0.36815,-1.788161 l 0,0 c -1.99854,-1.262231 -4.36523,-2.787429 -7.67858,-2.787429 l 0,0 c -2.62965,0 -4.78596,0.68371 -6.31116,1.735569 l 0,0 c -1.63038,1.209637 -2.78743,2.997802 -2.78743,5.048927 l 0,0 c 0,1.998531 1.15705,3.68151 2.78743,4.628182 l 0,0 c 1.4726,1.051859 3.52373,1.57779 5.83782,1.998534 l 0.10519,0.05259 0,0 c 2.52446,0.420743 4.36522,1.051861 5.46967,1.893347 l 0,0 c 1.31482,1.104452 1.78816,1.945942 1.84075,3.15558 l 0,0 c 0,1.157044 -0.68371,2.314092 -1.94594,3.155579 l 0,0 c -1.15704,0.946673 -2.89261,1.57779 -4.89114,1.57779 l 0,0 c -3.26077,0 -6.10079,-1.682977 -7.88895,-2.997801 l 0,0 c -0.57853,-0.473336 -1.36742,-0.36815 -1.78816,0.157779 l 0,0 c -0.42075,0.52593 -0.36815,1.209639 0.15777,1.682976"
       id="path4058" />
    <path
       d="m 426.48046,70.23835 0,0 c 0,0 0,0 0,0 l 0,0 c 3.05039,0 5.94301,-1.051862 8.09932,-2.734835 l 0,0 c 0.63111,-0.473337 0.7363,-1.262233 0.26296,-1.840755 l 0,0 c -0.42074,-0.473336 -1.15705,-0.631115 -1.73557,-0.210372 l 0,0 0,0 c -1.84075,1.420009 -4.15485,2.261499 -6.62671,2.261499 l 0,0 c -5.9956,0 -10.72897,-4.628189 -10.72897,-10.413412 l 0,0 c 0,-5.680037 4.73337,-10.360818 10.72897,-10.360818 l 0,0 c 2.47186,0 4.78596,0.841489 6.62671,2.314091 l 0,0 c 0.57852,0.420744 1.31483,0.262965 1.73557,-0.210372 l 0,0 c 0.47334,-0.578522 0.36815,-1.367418 -0.15778,-1.735568 l 0,0 c -2.26149,-1.78816 -5.15411,-2.840022 -8.2045,-2.840022 l 0,0 c -7.36302,0 -13.25344,5.68005 -13.25344,12.832689 l 0,0 c 0,7.257825 5.89042,12.937875 13.25344,12.937875"
       id="path4060" />
    <path
       d="m 463.99567,68.976118 c 0,0.683708 0.57852,1.262232 1.26223,1.262232 0.7363,0 1.31482,-0.578524 1.31482,-1.262232 l 0,-14.357885 c 0,-5.943002 -4.83856,-10.150447 -10.78156,-10.150447 -3.26076,0 -6.20597,1.472606 -8.15191,3.786695 l 0,-13.56899 c 0,-0.683708 -0.57852,-1.262232 -1.31483,-1.262232 -0.6837,0 -1.26223,0.578524 -1.26223,1.262232 l 0,19.511998 0,0.420744 0,14.357885 c 0,0.157779 0,0.262965 0.0526,0.420744 0.0526,0.157779 0.10518,0.262965 0.21037,0.420744 0.26296,0.262965 0.63111,0.420744 0.99926,0.420744 l 0.15778,0 0.10519,0 c 0.0526,0 0.10519,-0.05259 0.10519,-0.05259 0.36815,-0.105186 0.63111,-0.315558 0.78889,-0.631116 0.0526,-0.05259 0.0526,-0.105186 0.10519,-0.210372 0,-0.05259 0.0526,-0.105186 0.0526,-0.210372 l 0,-0.157779 0,-14.357885 c 0,-4.522993 3.68151,-7.57339 8.15191,-7.57339 4.52299,0 8.20451,3.050397 8.20451,7.57339 l 0,14.357885"
       id="path4062" />
    <path
       d="m 499.77365,44.467786 c -0.68371,0 -1.26223,0.525931 -1.26223,1.262232 l 0,3.786695 c -2.20891,-3.05039 -5.73264,-5.048927 -9.67711,-5.048927 -6.78449,0 -12.20157,5.837829 -12.20157,12.885282 0,7.047453 5.41708,12.885282 12.20157,12.885282 3.94447,0 7.4682,-2.05113 9.67711,-5.10152 l 0,3.839288 c 0,0.683708 0.57852,1.262232 1.26223,1.262232 0.68371,0 1.26223,-0.578524 1.26223,-1.262232 l 0,-23.2461 c 0,-0.736301 -0.57852,-1.262232 -1.26223,-1.262232 m -10.93934,23.246101 c -5.25929,0 -9.67711,-4.575596 -9.67711,-10.360819 0,-5.785223 4.41782,-10.413411 9.67711,-10.413411 5.31188,0 9.67711,4.628188 9.67711,10.413411 0,5.785223 -4.36523,10.360819 -9.67711,10.360819"
       id="path4064" />
    <path
       d="m 522.65901,70.23835 c 4.36521,0 8.20451,-2.314095 10.41341,-5.837822 0.36815,-0.631115 0.15778,-1.367418 -0.42074,-1.788161 -0.52593,-0.315558 -1.31483,-0.210372 -1.68298,0.420744 -1.73557,2.892611 -4.89115,4.680776 -8.30969,4.680776 -5.31189,0 -9.7297,-4.260038 -9.99267,-9.887482 l 21.14238,0 c 0.68371,0 1.26223,-0.473338 1.26223,-1.157046 l 0,-0.157779 0,-0.05259 c -0.52592,-6.731895 -5.78523,-11.991201 -12.41194,-11.991201 -6.94227,0 -12.51713,5.785236 -12.51713,12.937875 0,7.047453 5.57486,12.832689 12.51713,12.832689 m 0,-23.2461 c 4.73336,0 8.83562,3.523735 9.67711,8.362285 l -19.512,0 c 0.94667,-4.891143 4.99634,-8.362285 9.83489,-8.362285"
       id="path4066" />
    <path
       d="m 554.12931,33.475852 c -2.05112,0 -3.94447,0.473338 -5.2067,1.840755 -1.20964,1.420009 -1.63038,3.365953 -1.68298,5.9956 l 0,2.734835 -3.41854,0 c -0.68371,0 -1.26223,0.578524 -1.26223,1.262232 0,0.736301 0.57852,1.314825 1.26223,1.314825 l 3.41854,0 0,22.404612 c 0,0.683708 0.57853,1.262232 1.31483,1.262232 0.68371,0 1.26223,-0.578524 1.26223,-1.262232 l 0,-22.404612 3.62892,0 c 0.7363,0 1.31482,-0.578524 1.31482,-1.314825 0,-0.683708 -0.57852,-1.262232 -1.31482,-1.262232 l -3.62892,0 0,-2.734835 c 0,-2.366682 0.47334,-3.628917 1.05186,-4.260032 0.52593,-0.631115 1.47261,-0.999267 3.26076,-0.999267 0.68371,0 1.26224,-0.578523 1.26224,-1.262231 0,-0.736301 -0.57853,-1.314825 -1.26224,-1.314825"
       id="path4068" />
    <path
       d="m 573.18532,70.23835 c 4.36521,0 8.2045,-2.314095 10.41341,-5.837822 0.36815,-0.631115 0.15778,-1.367418 -0.42075,-1.788161 -0.52593,-0.315558 -1.31482,-0.210372 -1.68297,0.420744 -1.73557,2.892611 -4.89115,4.680776 -8.30969,4.680776 -5.31189,0 -9.72971,-4.260038 -9.99267,-9.887482 l 21.14238,0 c 0.68371,0 1.26223,-0.473338 1.26223,-1.157046 l 0,-0.157779 0,-0.05259 c -0.52593,-6.731895 -5.78523,-11.991201 -12.41194,-11.991201 -6.94227,0 -12.51714,5.785236 -12.51714,12.937875 0,7.047453 5.57487,12.832689 12.51714,12.832689 m 0,-23.2461 c 4.73336,0 8.83562,3.523735 9.67711,8.362285 l -19.512,0 c 0.94667,-4.891143 4.99634,-8.362285 9.83489,-8.362285"
       id="path4070" />
    <path
       d="m 593.45334,68.976118 c 0,0.736301 0.57852,1.262232 1.31482,1.262232 0.63112,0 1.20964,-0.525931 1.20964,-1.262232 l 0,-11.307492 c 0,-0.105186 0,-0.210372 0.10519,-0.420744 0.36815,-1.051859 1.36742,-3.681511 3.10298,-5.9956 1.78816,-2.31409 4.10226,-4.207439 7.46821,-4.207439 0.6837,0 1.26223,-0.578524 1.26223,-1.262232 0,-0.736301 -0.57853,-1.262232 -1.26223,-1.262232 -4.94374,0 -8.36229,3.260768 -10.30823,6.311159 -0.15778,0.210371 -0.26296,0.420744 -0.36815,0.631116 l 0,-5.680043 c 0,-0.736301 -0.57852,-1.262232 -1.20964,-1.262232 -0.7363,0 -1.31482,0.525931 -1.31482,1.262232 l 0,23.193507"
       id="path4072" />
    <path
       d="m 611.25372,67.608701 c 0,1.472602 1.15705,2.629649 2.62965,2.629649 1.4726,0 2.62965,-1.157047 2.62965,-2.629649 0,-1.472603 -1.15705,-2.62965 -2.62965,-2.62965 -1.4726,0 -2.62965,1.157047 -2.62965,2.62965"
       id="path4074" />
    <path
       d="m 621.69188,57.353068 0,0 c 0,6.99486 5.46968,12.885282 12.20157,12.885282 l 0,0 c 6.78449,0 12.20157,-5.890422 12.20157,-12.885282 l 0,0 c 0,-6.99486 -5.41708,-12.885282 -12.20157,-12.885282 l 0,0 c -6.73189,0 -12.20157,5.890422 -12.20157,12.885282 m 2.52446,0 0,0 c 0,-5.73263 4.41782,-10.413411 9.67711,-10.413411 l 0,0 c 5.2593,0 9.67711,4.680781 9.67711,10.413411 l 0,0 c 0,5.73263 -4.41781,10.360819 -9.67711,10.360819 l 0,0 c -5.25929,0 -9.67711,-4.628189 -9.67711,-10.360819"
       id="path4076" />
    <path
       d="m 654.7203,68.976118 c 0,0.736301 0.57853,1.262232 1.31483,1.262232 0.63111,0 1.20964,-0.525931 1.20964,-1.262232 l 0,-11.307492 c 0,-0.105186 0,-0.210372 0.10518,-0.420744 0.36815,-1.051859 1.36742,-3.681511 3.10299,-5.9956 1.78816,-2.31409 4.10226,-4.207439 7.4682,-4.207439 0.68371,0 1.26224,-0.578524 1.26224,-1.262232 0,-0.736301 -0.57853,-1.262232 -1.26224,-1.262232 -4.94373,0 -8.36228,3.260768 -10.30822,6.311159 -0.15778,0.210371 -0.26297,0.420744 -0.36815,0.631116 l 0,-5.680043 c 0,-0.736301 -0.57853,-1.262232 -1.20964,-1.262232 -0.7363,0 -1.31483,0.525931 -1.31483,1.262232 l 0,23.193507"
       id="path4078" />
    <path
       d="m 700.34229,45.730018 c 0,-0.683708 -0.57853,-1.262232 -1.20964,-1.262232 -0.7363,0 -1.31483,0.578524 -1.31483,1.262232 l 0,0 0,3.786695 c -2.15631,-3.05039 -5.68004,-5.048927 -9.62451,-5.048927 -6.7319,0 -12.09639,5.837829 -12.09639,12.780096 0,7.100046 5.36449,12.832689 12.09639,12.832689 3.94447,0 7.4682,-1.945944 9.62451,-5.048927 l 0,3.155579 c 0,5.311887 -4.26004,9.571924 -9.62451,9.571924 -1.57779,0 -2.89262,-0.315558 -4.20744,-0.946674 -0.63112,-0.36815 -1.36742,-0.105185 -1.68298,0.578523 -0.31556,0.578522 0,1.314825 0.52593,1.682976 1.68297,0.736301 3.47114,1.209638 5.36449,1.209638 6.73189,0 12.14898,-5.417084 12.14898,-12.096387 l 0,-22.457205 m -12.14898,21.878683 c -5.2593,0 -9.57193,-4.575596 -9.57193,-10.360819 0,-5.73263 4.31263,-10.255632 9.57193,-10.255632 5.31188,0 9.62451,4.523002 9.62451,10.255632 0,5.785223 -4.31263,10.360819 -9.62451,10.360819"
       id="path4080" />
  </g>
</svg>
