<?xml version="1.0" encoding="UTF-8" standalone="no"?>
<!-- Created with Inkscape (http://www.inkscape.org/) -->

<svg
   xmlns:dc="http://purl.org/dc/elements/1.1/"
   xmlns:cc="http://creativecommons.org/ns#"
   xmlns:rdf="http://www.w3.org/1999/02/22-rdf-syntax-ns#"
   xmlns:svg="http://www.w3.org/2000/svg"
   xmlns="http://www.w3.org/2000/svg"
   version="1.1"
   width="100%"
   height="100%"
   viewBox="0 0 700 154.99999"
   id="svg2">
  <defs
     id="defs4" />
  <metadata
     id="metadata7">
    <rdf:RDF>
      <cc:Work
         rdf:about="">
        <dc:format>image/svg+xml</dc:format>
        <dc:type
           rdf:resource="http://purl.org/dc/dcmitype/StillImage" />
        <dc:title></dc:title>
      </cc:Work>
    </rdf:RDF>
  </metadata>
  <g
     transform="scale(0.99950913,1.0004911)"
     id="text3924"
     style="font-size:13.14824677px;font-style:normal;font-variant:normal;font-weight:bold;font-stretch:normal;line-height:125%;letter-spacing:0px;word-spacing:0px;fill:#000000;fill-opacity:1;stroke:none;font-family:Quicksand;-inkscape-font-specification:Quicksand Bold">
    <path
       d="m 234.65569,9.0328452 c 0.0395,0.026296 0.092,0.065741 0.11834,0.078889 0.0131,0 0.0131,0 0.0131,0 0,0 0.0131,0 0.0131,0.013148 0.0263,0 0.0789,0.013148 0.10518,0.026297 0.0131,0 0.0263,0 0.0263,0 0.0394,0.013148 0.092,0.013148 0.13148,0.013148 0.0395,0 0.0789,0 0.13148,-0.013148 0.0131,0 0.0263,0 0.0263,0 0.0394,-0.013148 0.0657,-0.026297 0.10519,-0.026297 0.0131,-0.013148 0.0131,-0.013148 0.0263,-0.013148 0,0 0,0 0,0 0.0394,-0.013148 0.0789,-0.052593 0.10519,-0.065741 0.0263,-0.013148 0.0263,-0.013148 0.0263,-0.013148 0.0263,-0.026297 0.0526,-0.039445 0.0789,-0.065741 0.0131,-0.013148 0.0131,-0.013148 0.0263,-0.039445 0.0131,-0.026297 0.0526,-0.052593 0.0657,-0.07889 0.0132,0 0.0132,0 0.0132,-0.013148 0.0263,-0.026297 0.0394,-0.07889 0.0526,-0.105186 l 3.24762,-7.6785761 c 0.14463,-0.35500234 -0.0263,-0.78889498 -0.39445,-0.93352555 -0.355,-0.15777881 -0.78889,0.0131486 -0.94667,0.38129915 l -2.56391,6.0876383 -2.56391,-6.0876383 c -0.15778,-0.36815054 -0.57852,-0.53907796 -0.93352,-0.38129915 -0.3813,0.14463057 -0.55223,0.57852321 -0.39445,0.93352555 l 3.22132,7.6785761 c 0.0263,0.026296 0.0526,0.078889 0.0657,0.105186 0,0.013148 0.0131,0.013148 0.0131,0.013148 0.0131,0.026296 0.0394,0.052593 0.0657,0.07889 0,0.026296 0.0131,0.026296 0.0131,0.039445 0.0394,0.026297 0.0657,0.039445 0.092,0.065741 0.0131,0 0.0131,0 0.0131,0"
       id="path3796" />
    <path
       d="m 243.30725,9.2037724 c 0,0 0,0 0,0 0.86778,0 1.65667,-0.3812998 2.19575,-0.9992668 0.59167,-0.5785223 0.92038,-1.3937151 0.92038,-2.3140914 l 0,0 c 0,-0.8940799 -0.32871,-1.669828 -0.92038,-2.3009432 -0.53908,-0.617967 -1.32797,-0.9992668 -2.19575,-0.9992668 -0.90723,0 -1.66983,0.3812998 -2.2615,0.9992668 -0.56538,0.6311152 -0.90723,1.4068633 -0.90723,2.3009432 0,0.9203763 0.34185,1.7355691 0.90723,2.3140914 0.59167,0.617967 1.35427,0.9992668 2.2615,0.9992668 m -1.26224,-4.6807759 c 0.32871,-0.2892611 0.7626,-0.4996334 1.26224,-0.4996334 0.46018,0 0.88093,0.2103723 1.20963,0.4996334 0.32871,0.3550023 0.51279,0.8283401 0.51279,1.3674177 l 0,0 c 0,0.565374 -0.18408,1.0255636 -0.51279,1.3937141 -0.3287,0.3155576 -0.74945,0.4864852 -1.20963,0.4864852 -0.49964,0 -0.93353,-0.1709276 -1.26224,-0.4864852 -0.30241,-0.3681505 -0.47333,-0.8283401 -0.47333,-1.3937141 0,-0.5390776 0.17092,-1.0124154 0.47333,-1.3674177"
       id="path3798" />
    <path
       d="m 251.74844,2.6033525 c -0.65741,-0.013148 -1.22279,0.2235205 -1.65668,0.5127816 -0.092,0.065741 -0.19722,0.1709273 -0.27611,0.2629649 l 0,-0.092038 c 0,-0.3812988 -0.32871,-0.6837088 -0.72316,-0.6837088 -0.3813,0 -0.69685,0.30241 -0.69685,0.6837088 l 0,5.1804092 c 0,0.3812988 0.31555,0.6968571 0.69685,0.6968571 0.39445,0 0.72316,-0.3155583 0.72316,-0.6968571 l 0,-2.4981668 c 0.0657,-0.1840753 0.22352,-0.6837093 0.53908,-1.1044528 0.15777,-0.2498164 0.355,-0.473337 0.60481,-0.6311158 0.22352,-0.1709271 0.48649,-0.2498167 0.7889,-0.2498167 0.39445,0 0.69686,-0.3287065 0.69686,-0.6968571 0,-0.3812988 -0.30241,-0.6837088 -0.69686,-0.6837088"
       id="path3800" />
    <path
       d="m 256.90851,2.5902042 c -0.51278,0 -0.99927,0.1577792 -1.39371,0.4075957 -0.11834,-0.2498165 -0.36816,-0.4075957 -0.64427,-0.4075957 -0.39445,0 -0.69686,0.3155583 -0.69686,0.6968571 l 0,2.0379783 c 0,0 0,0 0,0 l 0,3.1424309 c 0,0.3812988 0.30241,0.6968571 0.69686,0.6968571 0.34186,0 0.63112,-0.249817 0.69686,-0.5653746 0.0263,-0.052593 0.0263,-0.092038 0.0263,-0.1314825 l 0,0 0,-3.1424309 c 0,-0.7363011 0.57852,-1.327973 1.31482,-1.327973 0.74945,0 1.36742,0.5916719 1.36742,1.327973 l 0,3.1424309 c 0,0.3812988 0.3287,0.6968571 0.69685,0.6968571 0.3813,0 0.68371,-0.3155583 0.68371,-0.6968571 l 0,-3.1424309 c 0,-1.4857504 -1.22278,-2.7348354 -2.74798,-2.7348354"
       id="path3802" />
    <path
       d="m 267.79895,3.3002096 c 0,-0.394447 -0.31555,-0.7100054 -0.69685,-0.7100054 -0.34186,0 -0.60482,0.2498171 -0.68371,0.5785229 -0.49963,-0.3550023 -1.09131,-0.5785229 -1.74872,-0.5785229 -0.89408,0 -1.66983,0.3812998 -2.2352,0.9861185 -0.56537,0.5916706 -0.89408,1.4068634 -0.89408,2.3140915 0,0.8940799 0.32871,1.7092727 0.89408,2.3140914 0.56537,0.5916705 1.34112,0.959822 2.2352,0.959822 0,0 0,0 0,0 0.65741,0 1.24909,-0.2103723 1.74872,-0.5653746 0.0789,0.3155576 0.34185,0.5653746 0.68371,0.5653746 0.3813,0 0.69685,-0.3155583 0.69685,-0.6968571 l 0,-2.5770563 c 0,0 0,0 0,0 0,0 0,0 0,0 l 0,-2.5902046 m -1.90649,3.944474 c -0.31556,0.3287058 -0.7626,0.5127816 -1.22279,0.5127816 -0.47333,0 -0.92038,-0.1840758 -1.22278,-0.5127816 -0.31556,-0.3418541 -0.49964,-0.8151918 -0.49964,-1.3542694 0,-0.5522258 0.18408,-1.0255636 0.49964,-1.3542694 0.3024,-0.3550023 0.74945,-0.5390782 1.22278,-0.5390782 0.46019,0 0.90723,0.1840759 1.22279,0.5390782 0.31556,0.3287058 0.51278,0.8020436 0.51278,1.3542694 0,0.5390776 -0.19722,1.0124153 -0.51278,1.3542694"
       id="path3804" />
    <path
       d="m 277.24125,3.9970666 c 0.72315,0 1.32797,0.6048201 1.32797,1.3542695 l 0,3.1161344 c 0,0.3812988 0.32871,0.6968571 0.71001,0.6968571 0.38129,0 0.69685,-0.3155583 0.69685,-0.6968571 l 0,-3.1161344 c 0,-1.5251951 -1.22279,-2.7611319 -2.73483,-2.7611319 -0.82834,0 -1.57779,0.341855 -2.06428,0.9072291 -0.49963,-0.5653741 -1.23593,-0.9072291 -2.06427,-0.9072291 -0.49964,0 -0.98612,0.144631 -1.40687,0.3944474 -0.10518,-0.2498164 -0.355,-0.3944474 -0.63111,-0.3944474 -0.3813,0 -0.69686,0.3024101 -0.69686,0.7100054 l 0,2.0379782 c 0,0 0,0 0,0.013148 l 0,3.1161344 c 0,0.3418541 0.24982,0.6048195 0.56538,0.6837089 0.0394,0 0.0789,0.013148 0.13148,0.013148 0.27611,0 0.53908,-0.1840757 0.65741,-0.4207439 0,0 0,0 0,0 0,-0.026296 0,-0.052593 0,-0.065741 0.0263,-0.026297 0.0263,-0.052593 0.0394,-0.07889 0,0 0,-0.026296 0,-0.039445 0,-0.026296 0.0131,-0.065741 0.0131,-0.092038 l 0,0 0,-3.1161344 c 0,-0.7494494 0.60482,-1.3542695 1.32798,-1.3542695 0.7363,0 1.34112,0.5916719 1.35427,1.3148247 0,0.013148 0,0.026296 0,0.039445 l 0,3.1161344 c 0,0.3812988 0.34185,0.6968571 0.71,0.6968571 0,0 0,0 0,0 0,0 0,0 0,0 0.3813,0 0.69686,-0.3155583 0.69686,-0.6968571 l 0,-3.1161344 c 0,-0.013148 0,-0.026296 0,-0.039445 0.0263,-0.7231528 0.61797,-1.3148247 1.36742,-1.3148247"
       id="path3806" />
    <path
       d="m 285.63209,9.1643276 c 0.93352,0 1.70927,-0.2761138 2.35353,-0.8677843 0.30241,-0.2761129 0.17093,-0.6705607 0,-0.854636 -0.17092,-0.2103717 -0.71,-0.2498164 -0.98612,0.039445 -0.3287,0.2498165 -0.89408,0.3681509 -1.36741,0.3287062 -0.46019,-0.039445 -0.98612,-0.2761135 -1.26224,-0.5916711 -0.23666,-0.22352 -0.38129,-0.5653749 -0.44704,-0.8677843 l 4.18115,0 c 0.36815,0 0.64426,-0.2103723 0.68371,-0.5259299 0.0131,-0.026296 0.0131,-0.092038 0.0131,-0.1183342 0,0 0,0 0,0 0,0 0,0 0,0 0,-0.026296 0,-0.052593 0,-0.065741 -0.10518,-1.7750115 -1.45945,-3.0503933 -3.16872,-3.0503933 -1.80131,0 -3.19503,1.498902 -3.20818,3.2870617 0.0131,1.7881598 1.40687,3.2739135 3.20818,3.2870617 m 0,-5.3250399 c 1.14389,0.092038 1.81445,0.8677848 1.94594,1.3937141 l -3.72096,0 c 0.10519,-0.5390775 0.65742,-1.3411212 1.77502,-1.3937141"
       id="path3808" />
  </g>
  <g
     transform="scale(0.99950913,1.0004911)"
     id="text3946"
     style="font-size:13.14824677px;font-style:normal;font-variant:normal;font-weight:bold;font-stretch:normal;line-height:125%;letter-spacing:0px;word-spacing:0px;fill:#000000;fill-opacity:1;stroke:none;font-family:Quicksand;-inkscape-font-specification:Quicksand Bold">
    <path
       d="m 464.85904,3.0240966 4.20744,5.8378215 c 0.0131,0.026296 0.0394,0.052593 0.0657,0.078889 0.13149,0.1577788 0.32871,0.2629649 0.53908,0.2629649 0.39445,0 0.72316,-0.3287065 0.72316,-0.7231535 l 0,-7.6391314 c 0,-0.38129877 -0.32871,-0.71000532 -0.72316,-0.71000532 -0.39445,0 -0.71,0.32870655 -0.71,0.71000532 l 0,5.4170777 -4.24689,-5.87726633 C 464.49089,0.06574136 464.04385,3.278533e-8 463.71515,0.22352 c -0.19723,0.14463057 -0.30241,0.38129938 -0.28927,0.60481936 0,0.0131482 0,0.0131482 0,0.0131482 l 0,7.63913144 c 0,0.394447 0.31556,0.7231535 0.72316,0.7231535 0.3813,0 0.71,-0.3287065 0.71,-0.7231535 l 0,-5.4565224"
       id="path3811" />
    <path
       d="m 478.97348,3.3396545 c 0,-0.394447 -0.31556,-0.7100053 -0.69686,-0.7100053 -0.34185,0 -0.60482,0.249817 -0.6837,0.5785228 -0.49964,-0.3550023 -1.09131,-0.5785228 -1.74872,-0.5785228 -0.89408,0 -1.66983,0.3812997 -2.2352,0.9861185 -0.56538,0.5916705 -0.89408,1.4068633 -0.89408,2.3140914 0,0.8940799 0.3287,1.7092727 0.89408,2.3140914 0.56537,0.5916705 1.34112,0.959822 2.2352,0.959822 0,0 0,0 0,0 0.65741,0 1.24908,-0.2103723 1.74872,-0.5653746 0.0789,0.3155576 0.34185,0.5653746 0.6837,0.5653746 0.3813,0 0.69686,-0.3155583 0.69686,-0.696857 l 0,-2.5770564 c 0,0 0,0 0,0 0,0 0,0 0,0 l 0,-2.5902046 m -1.90649,3.944474 c -0.31556,0.3287059 -0.7626,0.5127816 -1.22279,0.5127816 -0.47334,0 -0.92038,-0.1840757 -1.22279,-0.5127816 -0.31556,-0.3418541 -0.49963,-0.8151918 -0.49963,-1.3542694 0,-0.5522258 0.18407,-1.0255636 0.49963,-1.3542694 0.30241,-0.3550023 0.74945,-0.5390781 1.22279,-0.5390781 0.46019,0 0.90723,0.1840758 1.22279,0.5390781 0.31555,0.3287058 0.51278,0.8020436 0.51278,1.3542694 0,0.5390776 -0.19723,1.0124153 -0.51278,1.3542694"
       id="path3813" />
    <path
       d="m 484.43185,9.2037725 c 0,0 0,0 0,0 0.7889,0 1.5252,-0.2892618 2.09057,-0.696857 0.30241,-0.2629647 0.35501,-0.6837092 0.14463,-0.9729703 -0.26296,-0.3155576 -0.69685,-0.3681507 -0.98611,-0.1446307 -0.34186,0.2498164 -0.77575,0.4207439 -1.24909,0.4207439 -1.065,0 -1.94594,-0.8677853 -1.94594,-1.8801993 0,-1.012414 0.88094,-1.8933475 1.94594,-1.8933475 0.48649,0 0.90723,0.1709274 1.24909,0.4207439 0.30241,0.2366682 0.72315,0.1840751 0.98611,-0.1314825 0.21038,-0.2892611 0.15778,-0.7363021 -0.14463,-0.9729703 -0.56537,-0.4338917 -1.30167,-0.7231535 -2.09057,-0.7231535 -1.81445,0.013148 -3.33965,1.4726054 -3.33965,3.3002099 0,1.801308 1.5252,3.2739134 3.33965,3.2739134"
       id="path3815" />
    <path
       d="m 490.51045,5.5091152 c 0.0131,-0.7757458 0.63112,-1.4068624 1.40686,-1.4200106 0.7889,0.013148 1.42001,0.6442648 1.42001,1.4200106 l 0,2.9715038 c 0,0.4075952 0.31556,0.7231535 0.72316,0.7231535 0.40759,0 0.72315,-0.3155583 0.72315,-0.7231535 l 0,-2.9715038 c 0,-1.577788 -1.27538,-2.879466 -2.86632,-2.879466 -0.51278,0 -0.98612,0.1577791 -1.40686,0.3812991 l 0,-2.28779492 c 0,-0.40759524 -0.32871,-0.72315357073486 -0.7363,-0.72315357073486 -0.39445,0 -0.72315,0.31555833073486 -0.72315,0.72315357073486 l 0,7.75746562 c 0,0.065741 0.0131,0.1314825 0.0263,0.1840754 0.092,0.3024094 0.36815,0.5390781 0.69686,0.5390781 0.40759,0 0.7363,-0.3155583 0.7363,-0.7231535 l 0,-2.9715038"
       id="path3817" />
    <path
       d="m 499.8494,2.6296492 c -0.51278,0 -0.99926,0.1577792 -1.39371,0.4075956 -0.11834,-0.2498164 -0.36815,-0.4075956 -0.64427,-0.4075956 -0.39444,0 -0.69685,0.3155583 -0.69685,0.696857 l 0,2.0379783 c 0,0 0,0 0,0 l 0,3.142431 c 0,0.3812987 0.30241,0.696857 0.69685,0.696857 0.34186,0 0.63112,-0.249817 0.69686,-0.5653746 0.0263,-0.052593 0.0263,-0.092038 0.0263,-0.1314824 l 0,0 0,-3.142431 c 0,-0.7363011 0.57852,-1.3279729 1.31482,-1.3279729 0.74945,0 1.36742,0.5916718 1.36742,1.3279729 l 0,3.142431 c 0,0.3812987 0.32871,0.696857 0.69686,0.696857 0.3813,0 0.68371,-0.3155583 0.68371,-0.696857 l 0,-3.142431 c 0,-1.4857504 -1.22279,-2.7348353 -2.74799,-2.7348353"
       id="path3819" />
    <path
       d="m 510.73985,3.3396545 c 0,-0.394447 -0.31556,-0.7100053 -0.69686,-0.7100053 -0.34185,0 -0.60482,0.249817 -0.68371,0.5785228 -0.49963,-0.3550023 -1.0913,-0.5785228 -1.74871,-0.5785228 -0.89408,0 -1.66983,0.3812997 -2.23521,0.9861185 -0.56537,0.5916705 -0.89408,1.4068633 -0.89408,2.3140914 0,0.8940799 0.32871,1.7092727 0.89408,2.3140914 0.56538,0.5916705 1.34113,0.959822 2.23521,0.959822 0,0 0,0 0,0 0.65741,0 1.24908,-0.2103723 1.74871,-0.5653746 0.0789,0.3155576 0.34186,0.5653746 0.68371,0.5653746 0.3813,0 0.69686,-0.3155583 0.69686,-0.696857 l 0,-2.5770564 c 0,0 0,0 0,0 0,0 0,0 0,0 l 0,-2.5902046 m -1.9065,3.944474 c -0.31556,0.3287059 -0.7626,0.5127816 -1.22278,0.5127816 -0.47334,0 -0.92038,-0.1840757 -1.22279,-0.5127816 -0.31556,-0.3418541 -0.49963,-0.8151918 -0.49963,-1.3542694 0,-0.5522258 0.18407,-1.0255636 0.49963,-1.3542694 0.30241,-0.3550023 0.74945,-0.5390781 1.22279,-0.5390781 0.46018,0 0.90722,0.1840758 1.22278,0.5390781 0.31556,0.3287058 0.51278,0.8020436 0.51278,1.3542694 0,0.5390776 -0.19722,1.0124153 -0.51278,1.3542694"
       id="path3821" />
    <path
       d="m 520.18214,4.0365116 c 0.72315,0 1.32797,0.6048201 1.32797,1.3542694 l 0,3.1161345 c 0,0.3812987 0.32871,0.696857 0.71001,0.696857 0.3813,0 0.69686,-0.3155583 0.69686,-0.696857 l 0,-3.1161345 c 0,-1.5251951 -1.22279,-2.7611318 -2.73484,-2.7611318 -0.82834,0 -1.57779,0.3418549 -2.06427,0.907229 -0.49964,-0.5653741 -1.23594,-0.907229 -2.06428,-0.907229 -0.49963,0 -0.98612,0.1446309 -1.40686,0.3944474 -0.10519,-0.2498165 -0.355,-0.3944474 -0.63112,-0.3944474 -0.38129,0 -0.69685,0.30241 -0.69685,0.7100053 l 0,2.0379782 c 0,0 0,0 0,0.013148 l 0,3.1161345 c 0,0.341854 0.24981,0.6048194 0.56537,0.6837088 0.0394,0 0.0789,0.013148 0.13148,0.013148 0.27612,0 0.53908,-0.1840756 0.65742,-0.4207439 0,0 0,0 0,0 0,-0.026296 0,-0.052593 0,-0.065741 0.0263,-0.026297 0.0263,-0.052593 0.0394,-0.07889 0,0 0,-0.026296 0,-0.039445 0,-0.026297 0.0131,-0.065741 0.0131,-0.092038 l 0,0 0,-3.1161345 c 0,-0.7494493 0.60482,-1.3542694 1.32797,-1.3542694 0.7363,0 1.34112,0.5916718 1.35427,1.3148246 0,0.013148 0,0.026296 0,0.039445 l 0,3.1161345 c 0,0.3812987 0.34186,0.696857 0.71001,0.696857 0,0 0,0 0,0 0,0 0,0 0,0 0.3813,0 0.69685,-0.3155583 0.69685,-0.696857 l 0,-3.1161345 c 0,-0.013148 0,-0.026296 0,-0.039445 0.0263,-0.7231528 0.61797,-1.3148246 1.36742,-1.3148246"
       id="path3823" />
    <path
       d="m 528.57298,9.2037725 c 0.93353,0 1.70927,-0.2761137 2.35354,-0.8677842 0.30241,-0.2761129 0.17092,-0.6705608 0,-0.8546361 -0.17093,-0.2103717 -0.71001,-0.2498164 -0.98612,0.039445 -0.32871,0.2498164 -0.89408,0.3681508 -1.36742,0.3287061 -0.46019,-0.039445 -0.98612,-0.2761135 -1.26223,-0.5916711 -0.23667,-0.2235199 -0.3813,-0.5653749 -0.44704,-0.8677843 l 4.18114,0 c 0.36815,0 0.64427,-0.2103722 0.68371,-0.5259298 0.0131,-0.026296 0.0131,-0.092038 0.0131,-0.1183343 0,0 0,0 0,0 0,0 0,0 0,0 0,-0.026296 0,-0.052593 0,-0.065741 -0.10519,-1.7750115 -1.45946,-3.0503932 -3.16873,-3.0503932 -1.80131,0 -3.19502,1.4989019 -3.20817,3.2870617 0.0131,1.7881597 1.40686,3.2739134 3.20817,3.2870616 m 0,-5.3250399 c 1.1439,0.092038 1.81446,0.8677848 1.94594,1.3937142 l -3.72095,0 c 0.10518,-0.5390776 0.65741,-1.3411213 1.77501,-1.3937142"
       id="path3825" />
  </g>
  <g
     transform="scale(0.99950913,1.0004911)"
     id="text3011"
     style="font-size:13.14824677px;font-style:normal;font-variant:normal;font-weight:bold;font-stretch:normal;line-height:125%;letter-spacing:0px;word-spacing:0px;fill:#000000;fill-opacity:1;stroke:none;font-family:Quicksand;-inkscape-font-specification:Quicksand Bold">
    <path
       d="m 332.27648,154.92392 c 0,0 0.0131,-0.0131 0.0131,-0.0131 0,0 0,0.0131 0.0263,0.0131 l 4.26003,0 c 0.3813,0 0.72315,-0.32871 0.72315,-0.72315 0,-0.4076 -0.34185,-0.73631 -0.72315,-0.73631 l -3.56317,0 0,-2.41927 3.06354,0 c 0.39444,0 0.72315,-0.32871 0.72315,-0.7363 0,-0.3813 -0.32871,-0.72316 -0.72315,-0.72316 l -3.06354,0 0,-2.40613 3.56317,0 c 0.3813,0 0.72315,-0.3287 0.72315,-0.7363 0,-0.40759 -0.34185,-0.72315 -0.72315,-0.72315 l -4.26003,0 c -0.0263,0 -0.0263,0 -0.0263,0 0,0 -0.0131,0 -0.0131,0 -0.40759,0 -0.72315,0.31556 -0.72315,0.72315 l 0,7.75747 c 0,0.39444 0.31556,0.72315 0.72315,0.72315"
       id="path3888" />
    <path
       d="m 339.63622,151.6763 2.47187,0 c 0.42074,0 0.77574,-0.355 0.77574,-0.77574 0,-0.4339 -0.355,-0.7889 -0.77574,-0.7889 l -2.47187,0 c -0.42075,0 -0.77575,0.355 -0.77575,0.7889 0,0.42074 0.355,0.77574 0.77575,0.77574"
       id="path3890" />
    <path
       d="m 351.9062,145.72015 c 0,0 0,0 0,0 0,0 0,0 0,0 -0.0131,0 -0.0131,0 -0.0131,0 -0.23667,0 -0.44704,0.10518 -0.59167,0.30241 l -2.6165,3.62891 -2.6165,-3.62891 c -0.13148,-0.19723 -0.36815,-0.30241 -0.57852,-0.30241 -0.0263,0 -0.0263,0 -0.0395,0 -0.39445,0 -0.72315,0.3287 -0.72315,0.72315 l 0,7.75747 c 0,0.39444 0.3287,0.72315 0.72315,0.72315 0.4076,0 0.7363,-0.32871 0.7363,-0.72315 l 0,-5.53542 1.8802,2.62965 c 0.14463,0.19723 0.36815,0.30241 0.60482,0.30241 0,0 0.0131,0 0.0131,0 0,0 0.0131,0 0.0131,0 0.23667,0 0.44704,-0.10518 0.59167,-0.30241 l 1.89335,-2.62965 0,5.53542 c 0,0.39444 0.31556,0.72315 0.72315,0.72315 0.39445,0 0.7363,-0.32871 0.7363,-0.72315 l 0,-7.75747 c 0,-0.39445 -0.34185,-0.71 -0.7363,-0.72315"
       id="path3892" />
    <path
       d="m 361.23817,149.0598 c 0,-0.39445 -0.31556,-0.71 -0.69686,-0.71 -0.34185,0 -0.60482,0.24981 -0.68371,0.57852 -0.49963,-0.355 -1.0913,-0.57852 -1.74871,-0.57852 -0.89408,0 -1.66983,0.3813 -2.23521,0.98611 -0.56537,0.59168 -0.89408,1.40687 -0.89408,2.3141 0,0.89408 0.32871,1.70927 0.89408,2.31409 0.56538,0.59167 1.34113,0.95982 2.23521,0.95982 0,0 0,0 0,0 0.65741,0 1.24908,-0.21037 1.74871,-0.56537 0.0789,0.31555 0.34186,0.56537 0.68371,0.56537 0.3813,0 0.69686,-0.31556 0.69686,-0.69686 l 0,-2.57705 c 0,0 0,0 0,0 0,0 0,0 0,0 l 0,-2.59021 m -1.9065,3.94448 c -0.31556,0.3287 -0.7626,0.51278 -1.22278,0.51278 -0.47334,0 -0.92038,-0.18408 -1.22279,-0.51278 -0.31556,-0.34186 -0.49964,-0.8152 -0.49964,-1.35427 0,-0.55223 0.18408,-1.02557 0.49964,-1.35427 0.30241,-0.35501 0.74945,-0.53908 1.22279,-0.53908 0.46018,0 0.90722,0.18407 1.22278,0.53908 0.31556,0.3287 0.51278,0.80204 0.51278,1.35427 0,0.53907 -0.19722,1.01241 -0.51278,1.35427"
       id="path3894" />
    <path
       d="m 364.54023,148.36294 c -0.39445,0 -0.71001,0.30241 -0.71001,0.72316 l 0,5.12781 c 0,0.39445 0.31556,0.71001 0.71001,0.71001 0.40759,0 0.71,-0.31556 0.71,-0.71001 l 0,-5.12781 c 0,-0.42075 -0.30241,-0.72316 -0.71,-0.72316 m 0.71,-1.93279 c 0,-0.39444 -0.30241,-0.71 -0.71,-0.71 -0.39445,0 -0.71001,0.31556 -0.71001,0.71 l 0,0.27612 c 0,0.39444 0.31556,0.72315 0.71001,0.72315 0.40759,0 0.71,-0.32871 0.71,-0.72315 l 0,-0.27612"
       id="path3896" />
    <path
       d="m 367.33094,146.4433 0,7.75747 c 0,0.39444 0.32871,0.72315 0.72316,0.72315 0.40759,0 0.7363,-0.32871 0.7363,-0.72315 l 0,-7.75747 c 0,-0.39445 -0.32871,-0.72315 -0.7363,-0.72315 -0.39445,0 -0.72316,0.3287 -0.72316,0.72315"
       id="path3898" />
  </g>
  <g
     transform="scale(0.99950913,1.0004911)"
     id="text3053"
     style="font-size:13.14824677px;font-style:normal;font-variant:normal;font-weight:bold;font-stretch:normal;line-height:125%;letter-spacing:0px;word-spacing:0px;fill:#000000;fill-opacity:1;stroke:none;font-family:Quicksand;-inkscape-font-specification:Quicksand Bold">
    <path
       d="m 418.03915,114.70517 c 0.0131,0 0.0131,-0.0131 0.0394,-0.0131 0,0 0,0.0131 0.0131,0.0131 l 2.32724,0 c 1.55149,0 2.81373,-1.26223 2.81373,-2.82687 0,-0.99927 -0.53908,-1.8802 -1.32798,-2.37984 0.31556,-0.42074 0.49964,-0.93352 0.49964,-1.4989 0,-1.38056 -1.11761,-2.49816 -2.49817,-2.49816 l -1.81446,0 c -0.0131,0 -0.0131,0 -0.0131,0 -0.0263,0 -0.0263,0 -0.0394,0 -0.39445,0 -0.72315,0.31556 -0.72315,0.72315 l 0,7.75747 c 0,0.39444 0.3287,0.72315 0.72315,0.72315 m 0.7363,-7.74432 1.13075,0 c 0.57852,0 1.03871,0.46019 1.03871,1.03871 0,0.57853 -0.46019,1.06501 -1.03871,1.06501 l -1.13075,0 0,-2.10372 m 0,3.56318 1.64353,0 c 0.74945,0.0132 1.35427,0.60482 1.35427,1.35427 0,0.76259 -0.60482,1.35427 -1.35427,1.36741 l -1.64353,0 0,-2.72168"
       id="path3879" />
    <path
       d="m 425.07017,106.22455 0,7.75747 c 0,0.39444 0.32871,0.72315 0.72316,0.72315 0.40759,0 0.7363,-0.32871 0.7363,-0.72315 l 0,-7.75747 c 0,-0.39445 -0.32871,-0.72315 -0.7363,-0.72315 -0.39445,0 -0.72316,0.3287 -0.72316,0.72315"
       id="path3881" />
    <path
       d="m 431.10584,114.74461 c 0,0 0,0 0,0 0.86778,0 1.65668,-0.3813 2.19575,-0.99926 0.59167,-0.57852 0.92038,-1.39372 0.92038,-2.31409 l 0,0 c 0,-0.89408 -0.32871,-1.66983 -0.92038,-2.30095 -0.53907,-0.61796 -1.32797,-0.99926 -2.19575,-0.99926 -0.90723,0 -1.66983,0.3813 -2.2615,0.99926 -0.56538,0.63112 -0.90723,1.40687 -0.90723,2.30095 0,0.92037 0.34185,1.73557 0.90723,2.31409 0.59167,0.61796 1.35427,0.99926 2.2615,0.99926 m -1.26224,-4.68077 c 0.32871,-0.28926 0.7626,-0.49963 1.26224,-0.49963 0.46018,0 0.88093,0.21037 1.20963,0.49963 0.32871,0.355 0.51279,0.82834 0.51279,1.36742 l 0,0 c 0,0.56537 -0.18408,1.02556 -0.51279,1.39371 -0.3287,0.31556 -0.74945,0.48649 -1.20963,0.48649 -0.49964,0 -0.93353,-0.17093 -1.26224,-0.48649 -0.30241,-0.36815 -0.47333,-0.82834 -0.47333,-1.39371 0,-0.53908 0.17092,-1.01242 0.47333,-1.36742"
       id="path3883" />
    <path
       d="m 442.33444,111.4444 c 0,0 0,0 0,0 l 0,-2.6165 c 0,-0.3813 -0.30241,-0.69685 -0.69686,-0.69685 -0.34185,0 -0.63112,0.23667 -0.69686,0.55222 -0.47333,-0.34185 -1.07815,-0.55222 -1.76186,-0.55222 -0.86778,0 -1.66983,0.3813 -2.2352,0.97297 -0.56538,0.61796 -0.92038,1.43316 -0.92038,2.34038 0,0.92038 0.355,1.73557 0.92038,2.3141 0.56537,0.61796 1.36742,0.99926 2.2352,0.99926 0,0 0,0 0,0 0.64426,0 1.24908,-0.19722 1.72242,-0.52593 -0.17093,0.80205 -0.86779,1.40687 -1.72242,1.40687 -0.27611,0 -0.52593,-0.0657 -0.74945,-0.18408 -0.36815,-0.15778 -0.77575,-0.0263 -0.94668,0.32871 -0.18407,0.355 -0.0263,0.78889 0.31556,0.94667 0.4076,0.21037 0.89408,0.32871 1.38057,0.32871 1.74871,0 3.15558,-1.43316 3.15558,-3.15558 l 0,-2.44558 c 0,0 0,-0.0131 0,-0.0131 m -1.9065,1.35427 c -0.34185,0.35501 -0.74945,0.53908 -1.24908,0.53908 -0.46019,0 -0.89408,-0.18407 -1.20964,-0.53908 -0.31556,-0.30241 -0.52593,-0.80204 -0.52593,-1.35427 0,-0.52592 0.21037,-1.02556 0.52593,-1.34112 0.31556,-0.36815 0.74945,-0.56537 1.20964,-0.56537 0.49963,0 0.90723,0.19722 1.24908,0.56537 0.28926,0.31556 0.49964,0.8152 0.49964,1.34112 0,0.55223 -0.21038,1.05186 -0.49964,1.35427"
       id="path3885" />
  </g>
  <path
     d="m 160.00217,23.865531 4.99281,-5.064519 89.8707,0 4.99282,-5.064518 4.99281,5.064518 89.8707,0 4.99282,5.064519"
     id="path4112"
     style="fill:none;stroke:#000000;stroke-width:1.00570798px;stroke-linecap:round;stroke-linejoin:round;stroke-opacity:1" />
  <path
     d="m 385.00121,23.865531 4.99282,-5.064519 99.85634,0 4.9928,-5.064518 4.99282,5.064518 104.84915,0 4.99282,5.064519"
     id="path4114"
     style="fill:none;stroke:#000000;stroke-width:1.00570798px;stroke-linecap:round;stroke-linejoin:round;stroke-opacity:1" />
  <path
     d="m 0.50285271,131.13446 4.99281879,5.06452 339.5115085,0 4.99282,5.06452 4.99282,-5.06452 339.51151,0 4.99282,-5.06452"
     id="path4116"
     style="fill:none;stroke:#000000;stroke-width:1.00570798px;stroke-linecap:round;stroke-linejoin:round;stroke-opacity:1" />
  <path
     d="m 160.00217,90.895961 4.99282,5.064518 259.62645,0 4.99282,5.064521 4.99282,-5.064521 259.62645,0 4.99281,-5.064518"
     id="path4118"
     style="fill:none;stroke:#000000;stroke-width:1.00570798px;stroke-linecap:round;stroke-linejoin:round;stroke-opacity:1" />
  <g
     transform="scale(0.99950913,1.0004911)"
     id="text3891-0"
     style="font-size:52.59298706px;font-style:normal;font-variant:normal;font-weight:normal;font-stretch:normal;line-height:125%;letter-spacing:0px;word-spacing:0px;fill:#778899;fill-opacity:1;stroke:none;font-family:Quicksand;-inkscape-font-specification:Quicksand">
    <path
       d="m 36.869177,69.028711 c 0,0.631115 0.525931,1.209639 1.209639,1.209639 0.736301,0 1.262231,-0.578524 1.262231,-1.209639 l 0,-14.042327 c 0,-5.785223 -4.680781,-10.466005 -10.466004,-10.466005 -3.94447,0 -7.415613,2.208909 -9.256366,5.469671 -1.788159,-3.260762 -5.206709,-5.469671 -9.203772,-5.469671 -3.2081694,0 -6.0481958,1.420013 -7.9415414,3.681509 l 0,-2.47187 c 0,-0.683708 -0.5259307,-1.209639 -1.2622317,-1.209639 -0.63111525,0 -1.20963874,0.525931 -1.20963874,1.209639 l 0,8.835622 0,0.420744 0,14.042327 0,0.262965 c 0.1577788,0.473337 0.57852333,0.894081 1.05185974,0.946674 l 0.157779,0 0.1577789,0 c 0.1051859,0 0.157779,0 0.210372,-0.05259 0.1051858,0 0.262965,-0.105186 0.3155579,-0.157779 0.3681505,-0.210372 0.5785229,-0.578523 0.5785229,-0.999267 l 0,-14.042327 c 0,-4.365214 3.5237345,-7.994134 7.9415414,-7.994134 4.417806,0 7.941541,3.62892 7.941541,7.994134 l 0,14.042327 0,0.105186 0,0.157779 c 0.05259,0.05259 0.05259,0.105186 0.05259,0.157779 0.05259,0.05259 0.05259,0.105186 0.05259,0.105186 0.05259,0.05259 0.05259,0.05259 0.05259,0.105186 0.05259,0 0.05259,0.05259 0.105186,0.105186 l 0.157779,0.157779 c 0.05259,0.05259 0.105186,0.105186 0.157779,0.105186 0.105185,0.05259 0.210372,0.157779 0.315557,0.157779 0,0 0.05259,0.05259 0.105186,0.05259 l 0.105186,0 0.157779,0 c 0.210372,0 0.420744,-0.05259 0.631116,-0.157779 0.262965,-0.157779 0.52593,-0.368151 0.631116,-0.683709 l 0,-0.105186 c 0,0 0.05259,-0.05259 0.05259,-0.105186 l 0,-0.157779 0,-14.042327 c 0,-4.365214 3.576327,-7.994134 7.941541,-7.994134 4.417807,0 7.888948,3.62892 7.994134,7.994134 l 0,14.042327"
       id="path3828" />
    <path
       d="m 70.37995,44.467786 c -0.683708,0 -1.262232,0.525931 -1.262232,1.262232 l 0,3.786695 c -2.208903,-3.05039 -5.732639,-5.048927 -9.677109,-5.048927 -6.784489,0 -12.201573,5.837829 -12.201573,12.885282 0,7.047453 5.417084,12.885282 12.201573,12.885282 3.94447,0 7.468206,-2.05113 9.677109,-5.10152 l 0,3.839288 c 0,0.683708 0.578524,1.262232 1.262232,1.262232 0.683708,0 1.262232,-0.578524 1.262232,-1.262232 l 0,-23.2461 c 0,-0.736301 -0.578524,-1.262232 -1.262232,-1.262232 M 59.440609,67.713887 c -5.259294,0 -9.67711,-4.575596 -9.67711,-10.360819 0,-5.785223 4.417816,-10.413411 9.67711,-10.413411 5.311886,0 9.677109,4.628188 9.677109,10.413411 0,5.785223 -4.365223,10.360819 -9.677109,10.360819"
       id="path3830" />
    <path
       d="m 82.641511,68.976118 0,0 c 0,0.683708 0.578524,1.262232 1.262232,1.262232 l 0,0 c 0.736301,0 1.314825,-0.578524 1.314825,-1.262232 l 0,-23.2461 0,0 c 0,-0.736301 -0.578524,-1.262232 -1.314825,-1.262232 l 0,0 c -0.683708,0 -1.262232,0.525931 -1.262232,1.262232 l 0,23.2461 m 0,-30.451339 0,0 c 0,0.736301 0.578524,1.367417 1.262232,1.367417 l 0,0 c 0.736301,0 1.314825,-0.631116 1.314825,-1.367417 l 0,-1.209639 0,0 c 0,-0.683708 -0.578524,-1.262232 -1.314825,-1.262232 l 0,0 c -0.683708,0 -1.262232,0.578524 -1.262232,1.262232 l 0,1.209639"
       id="path3832" />
    <path
       d="m 96.644401,68.976118 0,0 c 0,0.683708 0.578524,1.262232 1.262232,1.262232 l 0,0 c 0.736301,0 1.314825,-0.578524 1.314825,-1.262232 l 0,-34.290627 0,0 c 0,-0.683708 -0.578524,-1.262232 -1.314825,-1.262232 l 0,0 c -0.683708,0 -1.262232,0.578524 -1.262232,1.262232 l 0,34.290627"
       id="path3834" />
    <path
       d="m 107.21806,51.778211 c 0,10.255623 8.20451,18.460139 18.46013,18.460139 1.57779,0 3.10299,-0.210372 4.523,-0.578523 0.68371,-0.105186 1.15705,-0.841488 0.89408,-1.525197 -0.0526,-0.736301 -0.78889,-1.051859 -1.4726,-0.89408 -1.31483,0.36815 -2.57706,0.420744 -3.94448,0.420744 -8.73042,0 -15.88308,-7.152655 -15.88308,-15.883083 0,-8.677834 7.15266,-15.830489 15.88308,-15.830489 8.67784,0 15.83049,7.152655 15.83049,15.830489 0,2.629647 -0.57852,5.101522 -1.73557,7.20524 -0.21037,0.525929 -1.4726,2.366684 -3.05039,2.734835 l -0.42074,0 c -0.52593,0 -0.7889,-0.157779 -0.94668,-0.368151 -0.15778,-0.315558 -0.36815,-0.841488 -0.31555,-1.157046 l -0.0526,0 0,-7.731169 0,-0.262965 0,-0.420744 c 0,-5.364479 -4.10226,-9.834888 -9.30896,-9.834888 -5.2067,0 -9.41414,4.470409 -9.41414,9.834888 0,5.417073 4.20744,9.940075 9.41414,9.940075 2.73484,0 5.04893,-1.209641 6.7845,-3.155579 l 0,1.788161 c 0,0.89408 0.31556,1.73557 0.84149,2.524464 0.57852,0.788894 1.57779,1.42001 2.9978,1.42001 0.31556,0 0.68371,0 1.05186,-0.105186 3.10298,-0.894079 4.62818,-3.839288 4.78596,-3.997067 1.26223,-2.471868 1.94594,-5.311894 1.94594,-8.414878 0,-10.203029 -8.20452,-18.407545 -18.40755,-18.407545 -10.25562,0 -18.46013,8.204516 -18.46013,18.407545 m 11.78082,0 c 0,-3.997063 2.99781,-7.257832 6.67931,-7.257832 3.62892,0 6.73191,3.260769 6.73191,7.257832 0,4.049656 -3.10299,7.20524 -6.73191,7.20524 -3.6815,0 -6.67931,-3.155584 -6.67931,-7.20524"
       id="path3836" />
    <path
       d="m 197.75524,69.028711 c 0,0.631115 0.52593,1.209639 1.20964,1.209639 0.7363,0 1.26223,-0.578524 1.26223,-1.209639 l 0,-14.042327 c 0,-5.785223 -4.68078,-10.466005 -10.466,-10.466005 -3.94447,0 -7.41562,2.208909 -9.25637,5.469671 -1.78816,-3.260762 -5.20671,-5.469671 -9.20377,-5.469671 -3.20817,0 -6.0482,1.420013 -7.94154,3.681509 l 0,-2.47187 c 0,-0.683708 -0.52593,-1.209639 -1.26224,-1.209639 -0.63111,0 -1.20963,0.525931 -1.20963,1.209639 l 0,8.835622 0,0.420744 0,14.042327 0,0.262965 c 0.15777,0.473337 0.57852,0.894081 1.05186,0.946674 l 0.15777,0 0.15778,0 c 0.10519,0 0.15778,0 0.21038,-0.05259 0.10518,0 0.26296,-0.105186 0.31555,-0.157779 0.36815,-0.210372 0.57853,-0.578523 0.57853,-0.999267 l 0,-14.042327 c 0,-4.365214 3.52373,-7.994134 7.94154,-7.994134 4.4178,0 7.94154,3.62892 7.94154,7.994134 l 0,14.042327 0,0.105186 0,0.157779 c 0.0526,0.05259 0.0526,0.105186 0.0526,0.157779 0.0526,0.05259 0.0526,0.105186 0.0526,0.105186 0.0526,0.05259 0.0526,0.05259 0.0526,0.105186 0.0526,0 0.0526,0.05259 0.10518,0.105186 l 0.15778,0.157779 c 0.0526,0.05259 0.10519,0.105186 0.15778,0.105186 0.10519,0.05259 0.21037,0.157779 0.31556,0.157779 0,0 0.0526,0.05259 0.10519,0.05259 l 0.10518,0 0.15778,0 c 0.21037,0 0.42074,-0.05259 0.63112,-0.157779 0.26296,-0.157779 0.52593,-0.368151 0.63111,-0.683709 l 0,-0.105186 c 0,0 0.0526,-0.05259 0.0526,-0.105186 l 0,-0.157779 0,-14.042327 c 0,-4.365214 3.57633,-7.994134 7.94155,-7.994134 4.4178,0 7.88894,3.62892 7.99413,7.994134 l 0,14.042327"
       id="path3838" />
    <path
       d="m 210.96511,68.976118 0,0 c 0,0.683708 0.57853,1.262232 1.26223,1.262232 l 0,0 c 0.7363,0 1.31483,-0.578524 1.31483,-1.262232 l 0,-23.2461 0,0 c 0,-0.736301 -0.57853,-1.262232 -1.31483,-1.262232 l 0,0 c -0.6837,0 -1.26223,0.525931 -1.26223,1.262232 l 0,23.2461 m 0,-30.451339 0,0 c 0,0.736301 0.57853,1.367417 1.26223,1.367417 l 0,0 c 0.7363,0 1.31483,-0.631116 1.31483,-1.367417 l 0,-1.209639 0,0 c 0,-0.683708 -0.57853,-1.262232 -1.31483,-1.262232 l 0,0 c -0.6837,0 -1.26223,0.578524 -1.26223,1.262232 l 0,1.209639"
       id="path3840" />
    <path
       d="m 237.11698,70.23835 0,0 c 0,0 0,0 0,0 l 0,0 c 3.05039,0 5.94301,-1.051862 8.09932,-2.734835 l 0,0 c 0.63111,-0.473337 0.7363,-1.262233 0.26296,-1.840755 l 0,0 c -0.42074,-0.473336 -1.15705,-0.631115 -1.73557,-0.210372 l 0,0 0,0 c -1.84075,1.420009 -4.15485,2.261499 -6.62671,2.261499 l 0,0 c -5.9956,0 -10.72897,-4.628189 -10.72897,-10.413412 l 0,0 c 0,-5.680037 4.73337,-10.360818 10.72897,-10.360818 l 0,0 c 2.47186,0 4.78596,0.841489 6.62671,2.314091 l 0,0 c 0.57852,0.420744 1.31483,0.262965 1.73557,-0.210372 l 0,0 c 0.47334,-0.578522 0.36815,-1.367418 -0.15778,-1.735568 l 0,0 c -2.26149,-1.78816 -5.15411,-2.840022 -8.2045,-2.840022 l 0,0 c -7.36301,0 -13.25344,5.68005 -13.25344,12.832689 l 0,0 c 0,7.257825 5.89043,12.937875 13.25344,12.937875"
       id="path3842" />
    <path
       d="m 274.63222,68.976118 c 0,0.683708 0.57852,1.262232 1.26223,1.262232 0.7363,0 1.31483,-0.578524 1.31483,-1.262232 l 0,-14.357885 c 0,-5.943002 -4.83857,-10.150447 -10.78157,-10.150447 -3.26076,0 -6.20597,1.472606 -8.15191,3.786695 l 0,-13.56899 c 0,-0.683708 -0.57852,-1.262232 -1.31482,-1.262232 -0.68371,0 -1.26224,0.578524 -1.26224,1.262232 l 0,19.511998 0,0.420744 0,14.357885 c 0,0.157779 0,0.262965 0.0526,0.420744 0.0526,0.157779 0.10518,0.262965 0.21037,0.420744 0.26296,0.262965 0.63111,0.420744 0.99927,0.420744 l 0.15777,0 0.10519,0 c 0.0526,0 0.10519,-0.05259 0.10519,-0.05259 0.36815,-0.105186 0.63111,-0.315558 0.78889,-0.631116 0.0526,-0.05259 0.0526,-0.105186 0.10519,-0.210372 0,-0.05259 0.0526,-0.105186 0.0526,-0.210372 l 0,-0.157779 0,-14.357885 c 0,-4.522993 3.68151,-7.57339 8.15191,-7.57339 4.523,0 8.20451,3.050397 8.20451,7.57339 l 0,14.357885"
       id="path3844" />
    <path
       d="m 310.41019,44.467786 c -0.68371,0 -1.26224,0.525931 -1.26224,1.262232 l 0,3.786695 c -2.2089,-3.05039 -5.73264,-5.048927 -9.67711,-5.048927 -6.78448,0 -12.20157,5.837829 -12.20157,12.885282 0,7.047453 5.41709,12.885282 12.20157,12.885282 3.94447,0 7.46821,-2.05113 9.67711,-5.10152 l 0,3.839288 c 0,0.683708 0.57853,1.262232 1.26224,1.262232 0.6837,0 1.26223,-0.578524 1.26223,-1.262232 l 0,-23.2461 c 0,-0.736301 -0.57853,-1.262232 -1.26223,-1.262232 m -10.93935,23.246101 c -5.25929,0 -9.67711,-4.575596 -9.67711,-10.360819 0,-5.785223 4.41782,-10.413411 9.67711,-10.413411 5.31189,0 9.67711,4.628188 9.67711,10.413411 0,5.785223 -4.36522,10.360819 -9.67711,10.360819"
       id="path3846" />
    <path
       d="m 333.29555,70.23835 c 4.36521,0 8.2045,-2.314095 10.41341,-5.837822 0.36815,-0.631115 0.15778,-1.367418 -0.42075,-1.788161 -0.52593,-0.315558 -1.31482,-0.210372 -1.68297,0.420744 -1.73557,2.892611 -4.89115,4.680776 -8.30969,4.680776 -5.31189,0 -9.72971,-4.260038 -9.99267,-9.887482 l 21.14238,0 c 0.68371,0 1.26223,-0.473338 1.26223,-1.157046 l 0,-0.157779 0,-0.05259 c -0.52593,-6.731895 -5.78523,-11.991201 -12.41194,-11.991201 -6.94227,0 -12.51714,5.785236 -12.51714,12.937875 0,7.047453 5.57487,12.832689 12.51714,12.832689 m 0,-23.2461 c 4.73336,0 8.83562,3.523735 9.6771,8.362285 l -19.51199,0 c 0.94667,-4.891143 4.99634,-8.362285 9.83489,-8.362285"
       id="path3848" />
    <path
       d="m 355.03615,68.976118 0,0 c 0,0.683708 0.57852,1.262232 1.26223,1.262232 l 0,0 c 0.7363,0 1.31482,-0.578524 1.31482,-1.262232 l 0,-34.290627 0,0 c 0,-0.683708 -0.57852,-1.262232 -1.31482,-1.262232 l 0,0 c -0.68371,0 -1.26223,0.578524 -1.26223,1.262232 l 0,34.290627"
       id="path3850" />
    <path
       d="m 367.29279,52.98785 0,0 11.2023,0 0,0 c 0.52593,0 0.99927,-0.420744 0.99927,-1.05186 l 0,0 c 0,-0.578522 -0.47334,-0.946673 -0.99927,-0.946673 l -11.2023,0 0,0 c -0.57853,0 -0.99927,0.368151 -0.99927,0.946673 l 0,0 c 0,0.631116 0.42074,1.05186 0.99927,1.05186"
       id="path3852" />
    <path
       d="m 387.55177,66.556841 0,0 c 2.10372,1.682974 5.36449,3.628916 9.51934,3.681509 l 0,0 c 2.52446,0 4.62818,-0.736303 6.41634,-2.051127 l 0,0 c 1.73557,-1.314823 2.94521,-3.050395 2.94521,-5.206705 l 0,0 c 0,-2.156311 -1.20964,-4.154847 -2.89262,-5.259299 l 0,0 c -1.78816,-0.999266 -3.78669,-1.735569 -6.25856,-2.103719 l -0.10519,0 0,0 c -2.36668,-0.368151 -4.10225,-0.999268 -5.2593,-1.788162 l 0,0 c -0.99926,-0.788894 -1.4726,-1.525198 -1.4726,-2.577056 l 0,0 c 0,-1.051859 0.57852,-2.103721 1.63038,-2.945208 l 0,0 c 1.10445,-0.89408 2.78743,-1.472603 4.89115,-1.472603 l 0,0 c 2.52446,0 4.41781,1.314826 6.31116,2.577056 l 0,0 c 0.57852,0.368151 1.36742,0.210371 1.73557,-0.368151 l 0,0 c 0.36815,-0.578522 0.21037,-1.367418 -0.36815,-1.788161 l 0,0 c -1.99854,-1.262231 -4.36523,-2.787429 -7.67858,-2.787429 l 0,0 c -2.62965,0 -4.78596,0.68371 -6.31116,1.735569 l 0,0 c -1.63038,1.209637 -2.78743,2.997802 -2.78743,5.048927 l 0,0 c 0,1.998531 1.15705,3.68151 2.78743,4.628182 l 0,0 c 1.4726,1.051859 3.52373,1.57779 5.83782,1.998534 l 0.10519,0.05259 0,0 c 2.52446,0.420743 4.36522,1.051861 5.46967,1.893347 l 0,0 c 1.31482,1.104452 1.78816,1.945942 1.84075,3.15558 l 0,0 c 0,1.157044 -0.68371,2.314092 -1.94594,3.155579 l 0,0 c -1.15704,0.946673 -2.89261,1.57779 -4.89114,1.57779 l 0,0 c -3.26077,0 -6.10079,-1.682977 -7.88895,-2.997801 l 0,0 c -0.57853,-0.473336 -1.36742,-0.36815 -1.78816,0.157779 l 0,0 c -0.42075,0.52593 -0.36815,1.209639 0.15777,1.682976"
       id="path3854" />
    <path
       d="m 426.48046,70.23835 0,0 c 0,0 0,0 0,0 l 0,0 c 3.05039,0 5.94301,-1.051862 8.09932,-2.734835 l 0,0 c 0.63111,-0.473337 0.7363,-1.262233 0.26296,-1.840755 l 0,0 c -0.42074,-0.473336 -1.15705,-0.631115 -1.73557,-0.210372 l 0,0 0,0 c -1.84075,1.420009 -4.15485,2.261499 -6.62671,2.261499 l 0,0 c -5.9956,0 -10.72897,-4.628189 -10.72897,-10.413412 l 0,0 c 0,-5.680037 4.73337,-10.360818 10.72897,-10.360818 l 0,0 c 2.47186,0 4.78596,0.841489 6.62671,2.314091 l 0,0 c 0.57852,0.420744 1.31483,0.262965 1.73557,-0.210372 l 0,0 c 0.47334,-0.578522 0.36815,-1.367418 -0.15778,-1.735568 l 0,0 c -2.26149,-1.78816 -5.15411,-2.840022 -8.2045,-2.840022 l 0,0 c -7.36302,0 -13.25344,5.68005 -13.25344,12.832689 l 0,0 c 0,7.257825 5.89042,12.937875 13.25344,12.937875"
       id="path3856" />
    <path
       d="m 463.99567,68.976118 c 0,0.683708 0.57852,1.262232 1.26223,1.262232 0.7363,0 1.31482,-0.578524 1.31482,-1.262232 l 0,-14.357885 c 0,-5.943002 -4.83856,-10.150447 -10.78156,-10.150447 -3.26076,0 -6.20597,1.472606 -8.15191,3.786695 l 0,-13.56899 c 0,-0.683708 -0.57852,-1.262232 -1.31483,-1.262232 -0.6837,0 -1.26223,0.578524 -1.26223,1.262232 l 0,19.511998 0,0.420744 0,14.357885 c 0,0.157779 0,0.262965 0.0526,0.420744 0.0526,0.157779 0.10518,0.262965 0.21037,0.420744 0.26296,0.262965 0.63111,0.420744 0.99926,0.420744 l 0.15778,0 0.10519,0 c 0.0526,0 0.10519,-0.05259 0.10519,-0.05259 0.36815,-0.105186 0.63111,-0.315558 0.78889,-0.631116 0.0526,-0.05259 0.0526,-0.105186 0.10519,-0.210372 0,-0.05259 0.0526,-0.105186 0.0526,-0.210372 l 0,-0.157779 0,-14.357885 c 0,-4.522993 3.68151,-7.57339 8.15191,-7.57339 4.52299,0 8.20451,3.050397 8.20451,7.57339 l 0,14.357885"
       id="path3858" />
    <path
       d="m 499.77365,44.467786 c -0.68371,0 -1.26223,0.525931 -1.26223,1.262232 l 0,3.786695 c -2.20891,-3.05039 -5.73264,-5.048927 -9.67711,-5.048927 -6.78449,0 -12.20157,5.837829 -12.20157,12.885282 0,7.047453 5.41708,12.885282 12.20157,12.885282 3.94447,0 7.4682,-2.05113 9.67711,-5.10152 l 0,3.839288 c 0,0.683708 0.57852,1.262232 1.26223,1.262232 0.68371,0 1.26223,-0.578524 1.26223,-1.262232 l 0,-23.2461 c 0,-0.736301 -0.57852,-1.262232 -1.26223,-1.262232 m -10.93934,23.246101 c -5.25929,0 -9.67711,-4.575596 -9.67711,-10.360819 0,-5.785223 4.41782,-10.413411 9.67711,-10.413411 5.31188,0 9.67711,4.628188 9.67711,10.413411 0,5.785223 -4.36523,10.360819 -9.67711,10.360819"
       id="path3860" />
    <path
       d="m 522.65901,70.23835 c 4.36521,0 8.20451,-2.314095 10.41341,-5.837822 0.36815,-0.631115 0.15778,-1.367418 -0.42074,-1.788161 -0.52593,-0.315558 -1.31483,-0.210372 -1.68298,0.420744 -1.73557,2.892611 -4.89115,4.680776 -8.30969,4.680776 -5.31189,0 -9.7297,-4.260038 -9.99267,-9.887482 l 21.14238,0 c 0.68371,0 1.26223,-0.473338 1.26223,-1.157046 l 0,-0.157779 0,-0.05259 c -0.52592,-6.731895 -5.78523,-11.991201 -12.41194,-11.991201 -6.94227,0 -12.51713,5.785236 -12.51713,12.937875 0,7.047453 5.57486,12.832689 12.51713,12.832689 m 0,-23.2461 c 4.73336,0 8.83562,3.523735 9.67711,8.362285 l -19.512,0 c 0.94667,-4.891143 4.99634,-8.362285 9.83489,-8.362285"
       id="path3862" />
    <path
       d="m 554.12931,33.475852 c -2.05112,0 -3.94447,0.473338 -5.2067,1.840755 -1.20964,1.420009 -1.63038,3.365953 -1.68298,5.9956 l 0,2.734835 -3.41854,0 c -0.68371,0 -1.26223,0.578524 -1.26223,1.262232 0,0.736301 0.57852,1.314825 1.26223,1.314825 l 3.41854,0 0,22.404612 c 0,0.683708 0.57853,1.262232 1.31483,1.262232 0.68371,0 1.26223,-0.578524 1.26223,-1.262232 l 0,-22.404612 3.62892,0 c 0.7363,0 1.31482,-0.578524 1.31482,-1.314825 0,-0.683708 -0.57852,-1.262232 -1.31482,-1.262232 l -3.62892,0 0,-2.734835 c 0,-2.366682 0.47334,-3.628917 1.05186,-4.260032 0.52593,-0.631115 1.47261,-0.999267 3.26076,-0.999267 0.68371,0 1.26224,-0.578523 1.26224,-1.262231 0,-0.736301 -0.57853,-1.314825 -1.26224,-1.314825"
       id="path3864" />
    <path
       d="m 573.18532,70.23835 c 4.36521,0 8.2045,-2.314095 10.41341,-5.837822 0.36815,-0.631115 0.15778,-1.367418 -0.42075,-1.788161 -0.52593,-0.315558 -1.31482,-0.210372 -1.68297,0.420744 -1.73557,2.892611 -4.89115,4.680776 -8.30969,4.680776 -5.31189,0 -9.72971,-4.260038 -9.99267,-9.887482 l 21.14238,0 c 0.68371,0 1.26223,-0.473338 1.26223,-1.157046 l 0,-0.157779 0,-0.05259 c -0.52593,-6.731895 -5.78523,-11.991201 -12.41194,-11.991201 -6.94227,0 -12.51714,5.785236 -12.51714,12.937875 0,7.047453 5.57487,12.832689 12.51714,12.832689 m 0,-23.2461 c 4.73336,0 8.83562,3.523735 9.67711,8.362285 l -19.512,0 c 0.94667,-4.891143 4.99634,-8.362285 9.83489,-8.362285"
       id="path3866" />
    <path
       d="m 593.45334,68.976118 c 0,0.736301 0.57852,1.262232 1.31482,1.262232 0.63112,0 1.20964,-0.525931 1.20964,-1.262232 l 0,-11.307492 c 0,-0.105186 0,-0.210372 0.10519,-0.420744 0.36815,-1.051859 1.36742,-3.681511 3.10298,-5.9956 1.78816,-2.31409 4.10226,-4.207439 7.46821,-4.207439 0.6837,0 1.26223,-0.578524 1.26223,-1.262232 0,-0.736301 -0.57853,-1.262232 -1.26223,-1.262232 -4.94374,0 -8.36229,3.260768 -10.30823,6.311159 -0.15778,0.210371 -0.26296,0.420744 -0.36815,0.631116 l 0,-5.680043 c 0,-0.736301 -0.57852,-1.262232 -1.20964,-1.262232 -0.7363,0 -1.31482,0.525931 -1.31482,1.262232 l 0,23.193507"
       id="path3868" />
    <path
       d="m 611.25372,67.608701 c 0,1.472602 1.15705,2.629649 2.62965,2.629649 1.4726,0 2.62965,-1.157047 2.62965,-2.629649 0,-1.472603 -1.15705,-2.62965 -2.62965,-2.62965 -1.4726,0 -2.62965,1.157047 -2.62965,2.62965"
       id="path3870" />
    <path
       d="m 621.69188,57.353068 0,0 c 0,6.99486 5.46968,12.885282 12.20157,12.885282 l 0,0 c 6.78449,0 12.20157,-5.890422 12.20157,-12.885282 l 0,0 c 0,-6.99486 -5.41708,-12.885282 -12.20157,-12.885282 l 0,0 c -6.73189,0 -12.20157,5.890422 -12.20157,12.885282 m 2.52446,0 0,0 c 0,-5.73263 4.41782,-10.413411 9.67711,-10.413411 l 0,0 c 5.2593,0 9.67711,4.680781 9.67711,10.413411 l 0,0 c 0,5.73263 -4.41781,10.360819 -9.67711,10.360819 l 0,0 c -5.25929,0 -9.67711,-4.628189 -9.67711,-10.360819"
       id="path3872" />
    <path
       d="m 654.7203,68.976118 c 0,0.736301 0.57853,1.262232 1.31483,1.262232 0.63111,0 1.20964,-0.525931 1.20964,-1.262232 l 0,-11.307492 c 0,-0.105186 0,-0.210372 0.10518,-0.420744 0.36815,-1.051859 1.36742,-3.681511 3.10299,-5.9956 1.78816,-2.31409 4.10226,-4.207439 7.4682,-4.207439 0.68371,0 1.26224,-0.578524 1.26224,-1.262232 0,-0.736301 -0.57853,-1.262232 -1.26224,-1.262232 -4.94373,0 -8.36228,3.260768 -10.30822,6.311159 -0.15778,0.210371 -0.26297,0.420744 -0.36815,0.631116 l 0,-5.680043 c 0,-0.736301 -0.57853,-1.262232 -1.20964,-1.262232 -0.7363,0 -1.31483,0.525931 -1.31483,1.262232 l 0,23.193507"
       id="path3874" />
    <path
       d="m 700.34229,45.730018 c 0,-0.683708 -0.57853,-1.262232 -1.20964,-1.262232 -0.7363,0 -1.31483,0.578524 -1.31483,1.262232 l 0,0 0,3.786695 c -2.15631,-3.05039 -5.68004,-5.048927 -9.62451,-5.048927 -6.7319,0 -12.09639,5.837829 -12.09639,12.780096 0,7.100046 5.36449,12.832689 12.09639,12.832689 3.94447,0 7.4682,-1.945944 9.62451,-5.048927 l 0,3.155579 c 0,5.311887 -4.26004,9.571924 -9.62451,9.571924 -1.57779,0 -2.89262,-0.315558 -4.20744,-0.946674 -0.63112,-0.36815 -1.36742,-0.105185 -1.68298,0.578523 -0.31556,0.578522 0,1.314825 0.52593,1.682976 1.68297,0.736301 3.47114,1.209638 5.36449,1.209638 6.73189,0 12.14898,-5.417084 12.14898,-12.096387 l 0,-22.457205 m -12.14898,21.878683 c -5.2593,0 -9.57193,-4.575596 -9.57193,-10.360819 0,-5.73263 4.31263,-10.255632 9.57193,-10.255632 5.31188,0 9.62451,4.523002 9.62451,10.255632 0,5.785223 -4.31263,10.360819 -9.62451,10.360819"
       id="path3876" />
  </g>
</svg>
