<?xml version="1.0" encoding="utf-8" standalone="no"?>
<!DOCTYPE svg PUBLIC "-//W3C//DTD SVG 1.1//EN"
  "http://www.w3.org/Graphics/SVG/1.1/DTD/svg11.dtd">
<!-- Created with matplotlib (http://matplotlib.org/) -->
<svg height="392pt" version="1.1" viewBox="0 0 511 392" width="511pt" xmlns="http://www.w3.org/2000/svg" xmlns:xlink="http://www.w3.org/1999/xlink">
 <defs>
  <style type="text/css">
*{stroke-linecap:butt;stroke-linejoin:round;}
  </style>
 </defs>
 <g id="figure_1">
  <g id="patch_1">
   <path d="
M0 392.536
L511.476 392.536
L511.476 0
L0 0
z
" style="fill:none;"/>
  </g>
  <g id="axes_1">
   <g id="patch_2">
    <path d="
M46.6019 367.362
L493.002 367.362
L493.002 21.7625
L46.6019 21.7625
z
" style="fill:none;"/>
   </g>
   <g id="line2d_1">
    <path clip-path="url(#pf2f40ab0d9)" d="
M46.6019 351.653
L63.3155 351.545
L67.601 351.373
L69.7438 351.397
L71.458 351.3
L71.8866 351.397
L72.3151 351.308
L73.1722 351.397
L74.8864 351.326
L75.7435 351.158
L77.0292 351.291
L79.172 351.273
L81.7433 351.185
L82.6004 351.282
L83.4575 351.14
L83.8861 350.769
L84.3146 350.972
L86.0288 350.928
L86.4574 350.804
L87.3145 350.884
L87.7431 350.795
L88.6002 350.963
L89.4573 350.822
L91.1715 350.919
L92.4571 350.855
L93.3143 350.728
L94.1714 350.855
L94.5999 350.728
L95.8856 350.791
L96.3141 350.153
L96.7427 350.632
L98.8855 350.728
L101.885 350.536
L102.314 350.6
L102.742 350.408
L105.742 350.153
L106.171 349.866
L106.599 350.025
L107.885 349.929
L108.314 349.77
L109.171 349.738
L109.599 349.482
L110.885 349.578
L111.314 349.387
L112.171 349.227
L112.599 348.876
L113.885 348.972
L114.313 349.195
L114.742 348.748
L115.171 348.748
L116.028 348.301
L116.456 348.301
L116.885 348.078
L117.313 348.078
L117.742 347.631
L118.17 347.631
L119.885 345.843
L120.313 345.843
L120.742 345.396
L121.17 345.619
L121.599 345.172
L122.027 344.502
L122.456 344.278
L122.884 343.831
L123.313 343.831
L123.742 343.161
L124.17 342.267
L124.599 342.714
L125.456 340.926
L125.884 341.15
L126.313 340.256
L126.741 340.703
L127.17 339.585
L127.599 339.138
L128.456 339.138
L128.884 338.244
L129.313 337.797
L129.741 337.127
L130.17 337.127
L130.598 336.009
L131.027 335.562
L131.456 334.222
L131.884 332.21
L132.313 331.763
L132.741 331.54
L133.17 330.199
L133.598 329.305
L134.027 330.646
L134.455 330.199
L135.313 330.199
L135.741 329.528
L136.17 330.869
L137.455 330.869
L137.884 328.89
L138.312 329.88
L138.741 329.88
L139.17 330.869
L139.598 329.88
L140.027 329.88
L140.884 327.9
L142.169 327.9
L142.598 325.921
L143.027 324.931
L143.455 324.931
L143.884 323.941
L144.312 321.962
L144.741 320.972
L145.169 320.972
L145.598 319.982
L146.026 316.023
L146.455 317.013
L146.884 316.023
L147.312 314.044
L147.741 314.044
L148.169 312.065
L148.598 308.106
L149.026 312.065
L149.455 309.095
L149.883 309.095
L150.312 305.137
L150.74 304.147
L151.169 302.167
L151.598 302.167
L152.026 300.188
L152.883 298.208
L153.312 295.239
L154.597 289.301
L155.026 282.373
L155.455 282.373
L155.883 280.393
L156.312 279.404
L156.74 276.435
L157.169 271.486
L157.597 260.599
L158.026 257.63
L158.454 263.568
L158.883 261.471
L159.74 253.082
L161.026 246.79
L161.454 246.79
L161.883 244.693
L162.311 246.79
L162.74 242.596
L163.169 244.693
L163.597 236.304
L164.026 232.109
L164.454 232.109
L164.883 236.304
L165.311 230.012
L165.74 234.206
L166.168 232.109
L166.597 227.915
L167.026 225.817
L167.454 225.817
L167.883 219.526
L168.74 219.526
L169.168 215.331
L169.597 213.234
L170.025 209.039
L170.454 209.039
L170.883 206.942
L171.311 198.553
L171.74 200.65
L172.168 198.553
L172.597 185.969
L173.025 188.067
L173.882 179.678
L174.74 188.067
L175.168 181.775
L176.025 177.58
L176.454 179.678
L176.882 175.483
L177.311 173.386
L177.739 173.386
L178.168 162.899
L178.596 177.58
L179.025 169.191
L179.454 167.094
L179.882 146.121
L180.311 141.927
L180.739 154.51
L181.168 148.536
L181.596 139.575
L182.025 136.588
L182.453 136.588
L182.882 130.614
L183.311 130.614
L183.739 139.575
L184.168 136.588
L184.596 130.614
L185.025 133.601
L185.453 124.64
L187.168 112.692
L187.596 121.653
L188.025 115.679
L188.453 121.653
L188.882 121.653
L189.31 118.666
L189.739 124.64
L191.025 115.679
L191.453 109.705
L191.882 112.692
L192.31 112.692
L192.739 106.718
L193.167 109.705
L194.024 103.731
L194.453 97.7571
L194.882 103.731
L195.31 94.7701
L195.739 97.7571
L196.167 97.7571
L196.596 73.861
L197.024 94.7701
L197.453 88.796
L198.31 88.796
L198.739 91.7831
L199.167 88.796
L199.596 97.7571
L200.024 85.809
L200.453 85.809
L200.881 91.7831
L201.31 85.809
L201.738 85.809
L202.596 52.9519
L203.024 70.8739
L203.453 83.353
L203.881 73.9937
L204.31 70.8739
L204.738 70.8739
L205.167 64.6344
L205.595 70.8739
L206.024 83.353
L206.453 67.7542
L206.881 80.2333
L207.738 73.9937
L208.167 67.7542
L208.595 67.7542
L209.024 70.8739
L209.881 58.3949
L210.309 77.1135
L211.167 83.353
L211.595 89.5926
L212.024 73.9937
L212.452 86.4728
L212.881 70.8739
L213.738 70.8739
L214.166 64.6344
L214.595 61.5146
L215.024 64.6344
L215.452 64.6344
L215.881 58.3949
L216.309 55.2751
L216.738 70.8739
L217.166 64.6344
L217.595 61.5146
L218.023 61.5146
L218.452 55.2751
L219.309 67.7542
L219.738 67.7542
L220.166 73.9937
L221.023 67.7542
L221.452 70.8739
L221.88 67.7542
L222.309 70.8739
L222.738 77.1135
L223.166 73.9937
L223.595 77.1135
L224.023 70.8739
L224.452 61.5146
L224.88 39.6762
L225.309 67.7542
L225.737 86.6808
L226.166 67.7542
L226.595 63.9689
L227.023 71.5395
L227.452 67.7542
L227.88 71.5395
L228.309 63.9689
L228.737 63.9689
L229.166 60.1835
L229.594 71.5395
L230.023 71.5395
L230.452 75.3248
L230.88 71.5395
L232.166 71.5395
L232.594 67.7542
L233.023 71.5395
L233.451 71.5395
L233.88 75.3248
L234.309 63.9689
L234.737 71.5395
L235.166 75.3248
L235.594 63.9689
L236.023 63.9689
L236.451 71.5395
L236.88 75.3248
L237.308 71.5395
L237.737 79.1101
L238.165 71.5395
L238.594 79.1101
L239.023 71.5395
L239.451 67.7542
L239.88 71.5395
L240.308 71.5395
L240.737 82.8955
L241.165 75.3248
L241.594 82.8955
L242.022 37.4716
L242.451 65.5738
L242.88 65.5738
L243.308 77.7474
L243.737 62.5304
L244.165 68.6172
L244.594 68.6172
L245.022 74.704
L245.451 74.704
L246.308 68.6172
L246.737 74.704
L247.165 47.3134
L247.594 56.4436
L248.022 74.704
L249.736 85.782
L250.165 80.243
L250.594 88.5515
L251.022 91.321
L251.879 85.782
L252.736 85.782
L253.165 77.4735
L253.593 83.0125
L254.022 83.0125
L254.879 94.0905
L255.308 91.321
L255.736 94.0905
L256.165 77.4735
L256.593 83.0125
L257.45 77.4735
L257.879 77.4735
L258.308 83.0125
L258.736 77.4735
L259.165 83.0125
L259.593 77.4735
L260.022 88.5515
L260.45 83.0125
L260.879 96.86
L261.307 88.5515
L261.736 94.0905
L262.165 96.86
L262.593 102.399
L263.022 105.168
L263.879 105.168
L264.307 110.707
L264.736 113.477
L265.164 113.477
L265.593 124.555
L266.022 116.246
L266.45 119.016
L266.879 119.016
L267.307 121.785
L267.736 127.324
L268.164 124.555
L268.593 138.402
L269.021 130.094
L269.45 113.477
L270.307 132.863
L271.164 132.863
L271.593 135.073
L272.021 130.653
L272.45 137.283
L272.878 135.073
L273.307 137.283
L274.164 132.863
L274.593 132.863
L275.021 130.653
L275.45 132.863
L275.878 143.913
L276.307 141.703
L276.735 137.283
L277.164 143.913
L277.592 143.913
L278.021 137.283
L278.021 137.283" style="fill:none;stroke:#0000ff;stroke-linecap:square;"/>
   </g>
   <g id="line2d_2">
    <path clip-path="url(#pf2f40ab0d9)" d="
M46.6019 351.632
L74.2787 351.479
L86.7779 351.202
L94.8131 350.822
L101.063 350.318
L105.973 349.715
L110.437 348.937
L114.008 348.097
L117.133 347.155
L120.258 345.968
L122.936 344.709
L125.615 343.181
L127.847 341.662
L130.079 339.881
L132.311 337.797
L134.543 335.366
L136.775 332.536
L138.56 329.949
L140.346 327.041
L142.131 323.784
L143.917 320.143
L145.703 316.09
L147.935 310.394
L150.167 303.951
L152.399 296.714
L154.631 288.653
L156.863 279.757
L159.095 270.038
L161.773 257.351
L164.898 241.312
L168.469 221.76
L179.183 162.089
L182.307 146.383
L184.986 134.057
L187.218 124.684
L189.45 116.166
L191.682 108.508
L193.914 101.693
L196.146 95.6836
L198.378 90.4305
L200.163 86.7341
L201.949 83.4534
L203.735 80.5567
L205.52 78.0128
L207.306 75.7913
L209.091 73.864
L210.877 72.2045
L213.109 70.47
L215.341 69.0745
L217.573 67.9818
L219.805 67.162
L222.037 66.5903
L224.269 66.2475
L226.501 66.1195
L228.733 66.1967
L230.965 66.4742
L233.197 66.9512
L235.429 67.6311
L237.661 68.5211
L239.893 69.6323
L242.125 70.9792
L244.357 72.5802
L246.589 74.4567
L248.821 76.6335
L251.053 79.1383
L253.285 82.0013
L255.517 85.2546
L257.749 88.9319
L259.981 93.067
L262.213 97.6932
L264.445 102.841
L266.677 108.539
L268.909 114.806
L271.141 121.658
L273.819 130.655
L276.498 140.479
L279.623 152.922
L282.747 166.296
L286.765 184.549
L301.05 250.789
L304.175 263.789
L307.299 275.785
L309.978 285.187
L312.656 293.741
L314.888 300.217
L317.12 306.113
L319.352 311.447
L321.584 316.249
L323.816 320.548
L326.048 324.383
L328.28 327.788
L330.512 330.803
L332.744 333.463
L334.976 335.804
L337.208 337.859
L339.887 339.991
L342.565 341.806
L345.243 343.347
L347.922 344.653
L351.047 345.925
L354.171 346.969
L357.743 347.935
L361.76 348.788
L366.224 349.51
L371.581 350.142
L377.831 350.649
L385.866 351.06
L396.579 351.359
L412.203 351.548
L441.666 351.638
L493.002 351.653
L493.002 351.653" style="fill:none;stroke:#ff0000;stroke-linecap:square;"/>
   </g>
   <g id="line2d_3">
    <path clip-path="url(#pf2f40ab0d9)" d="
M46.6019 288.817
L493.002 288.817" style="fill:none;stroke:#008000;stroke-dasharray:6.000000,6.000000;stroke-dashoffset:0.0;"/>
   </g>
   <g id="matplotlib.axis_1">
    <g id="xtick_1">
     <g id="line2d_4">
      <defs>
       <path d="
M0 0
L0 -4" id="m93b0483c22" style="stroke:#000000;stroke-width:0.5;"/>
      </defs>
      <g>
       <use style="stroke:#000000;stroke-width:0.5;" x="46.601875" xlink:href="#m93b0483c22" y="367.3625"/>
      </g>
     </g>
     <g id="line2d_5">
      <defs>
       <path d="
M0 0
L0 4" id="m741efc42ff" style="stroke:#000000;stroke-width:0.5;"/>
      </defs>
      <g>
       <use style="stroke:#000000;stroke-width:0.5;" x="46.601875" xlink:href="#m741efc42ff" y="21.7625"/>
      </g>
     </g>
     <g id="text_1">
      <!-- 2004 -->
      <defs>
       <path d="
M25.0938 62.7031
C15.2031 62.7031 5 50.5 5 30.5938
C5 10.4062 15.2969 -1.20312 25.2031 -1.20312
C34.2031 -1.20312 44.9062 8.59375 44.9062 30.0938
C44.9062 51.2969 34.7031 62.7031 25.0938 62.7031
M34.7969 48.4062
L12.9062 20
C12 23.5 11.5 27.4062 11.5 31.7969
C11.5 47.7969 18.7969 56.5938 25 56.5938
C28.4062 56.5938 32.0938 53.9062 34.7969 48.4062
M37.0938 41.7969
C38 38.2969 38.4062 34.0938 38.4062 29.2031
C38.4062 11.7969 30.9062 5.20312 25.4062 5.20312
C21.7031 5.20312 17.9062 8.20312 15.2031 13.7031
z
" id="Inconsolata-30"/>
       <path d="
M7.70312 52.5938
L12.7969 48.5
C13.4062 49.4062 13.0938 50 13.7031 50.7969
C15.2031 53.0938 18.9062 56.5 24.2969 56.5
C31 56.5 36.2969 51.4062 36.2969 44.7031
C36.2969 37.0938 29.9062 31.5938 25.4062 27.5
C18.2969 21.0938 12.5 14.7031 7.29688 4.40625
L7.29688 0
L43.9062 0
L43.9062 6.90625
C43.2031 7.20312 42.7031 6.70312 42.5 6.5
C42.0938 6.09375 41.9062 6.09375 41.5 6.09375
L15.2969 6.09375
C20.5 15.0938 27.7969 21.2969 32.2969 25.5
C36.7969 29.7969 43.2031 36.2031 43.2031 45.2031
C43.2031 54.9062 35.2969 62.7031 25.2031 62.7031
C18.0938 62.7031 11.4062 58.9062 7.70312 52.5938" id="Inconsolata-32"/>
       <path d="
M31.2969 62.2969
L4.79688 22.4062
L4.79688 17.2031
L29.9062 17.2031
L29.9062 0
L37.0938 0
L37.0938 17.0938
L45.2031 17.0938
L45.2031 23.2969
L37.0938 23.2969
L37.0938 62.2969
z

M30 51.2031
L30 23.2969
L11.7031 23.2969
z
" id="Inconsolata-34"/>
      </defs>
      <g transform="translate(35.3275 383.33125)scale(0.12 -0.12)">
       <use xlink:href="#Inconsolata-32"/>
       <use x="49.9999847412" xlink:href="#Inconsolata-30"/>
       <use x="99.9999694824" xlink:href="#Inconsolata-30"/>
       <use x="149.999954224" xlink:href="#Inconsolata-34"/>
      </g>
     </g>
    </g>
    <g id="xtick_2">
     <g id="line2d_6">
      <g>
       <use style="stroke:#000000;stroke-width:0.5;" x="91.241875" xlink:href="#m93b0483c22" y="367.3625"/>
      </g>
     </g>
     <g id="line2d_7">
      <g>
       <use style="stroke:#000000;stroke-width:0.5;" x="91.241875" xlink:href="#m741efc42ff" y="21.7625"/>
      </g>
     </g>
     <g id="text_2">
      <!-- 2006 -->
      <defs>
       <path d="
M28.7031 63
C21.2031 63 13.2031 58.4062 9.29688 47.5
C7.20312 41.5938 6.70312 34.2969 6.70312 28.2969
C6.70312 21 7.40625 13.2031 11.4062 7.20312
C15 1.70312 20.5938 -1.09375 26.0938 -1.09375
C35.5938 -1.09375 43.9062 6.90625 43.9062 19.7969
C43.9062 32.7031 35.5938 40.2031 26.7969 40.2031
C21.4062 40.2031 16.2969 37.2969 13.5938 32.7031
C14 54 24.2031 56.7969 28.7031 56.7969
C32.7969 56.7969 35.5938 54.5938 36 54.2031
C36.5938 53.5 36.5938 52.5938 37.5 51.9062
L42.2969 57.2969
C38.7031 60.9062 33.7031 63 28.7031 63
M26.0938 34
C31.0938 34 37.0938 30.0938 37.0938 19.4062
C37.0938 9.70312 31.7031 5.09375 26.4062 5.09375
C18.7969 5.09375 13.0938 14 13.9062 25.7031
C16.7031 30.7969 21.5 34 26.0938 34" id="Inconsolata-36"/>
      </defs>
      <g transform="translate(80.0453125 383.33125)scale(0.12 -0.12)">
       <use xlink:href="#Inconsolata-32"/>
       <use x="49.9999847412" xlink:href="#Inconsolata-30"/>
       <use x="99.9999694824" xlink:href="#Inconsolata-30"/>
       <use x="149.999954224" xlink:href="#Inconsolata-36"/>
      </g>
     </g>
    </g>
    <g id="xtick_3">
     <g id="line2d_8">
      <g>
       <use style="stroke:#000000;stroke-width:0.5;" x="135.881875" xlink:href="#m93b0483c22" y="367.3625"/>
      </g>
     </g>
     <g id="line2d_9">
      <g>
       <use style="stroke:#000000;stroke-width:0.5;" x="135.881875" xlink:href="#m741efc42ff" y="21.7625"/>
      </g>
     </g>
     <g id="text_3">
      <!-- 2008 -->
      <defs>
       <path d="
M25.7969 63
C16.2031 63 8.90625 56.0938 8.90625 47.7031
C8.90625 41.5938 12.7969 36 18.4062 33.0938
C11 29.5938 6 22.7969 6 15.5938
C6 6.29688 14.2031 -1.09375 24.9062 -1.09375
C35.7969 -1.09375 44.0938 6.5 44.0938 16
C44.0938 23.4062 39.0938 30 32.0938 33.2969
C38.0938 36.4062 42 42.2969 42 48.2969
C42 56.5 34.9062 63 25.7969 63
M23.7031 30.2031
C31.7031 27.7031 37 22.2031 37 16.0938
C37 10.0938 31.9062 5.20312 25.2031 5.20312
C18.4062 5.20312 13.2031 10.2969 13.2031 16.5
C13.2031 22.4062 17.7969 27.7969 23.7031 30.2031
M25.2031 57.2031
C30.7969 57.2031 35.2031 53 35.2031 47.7969
C35.2031 43 31.5 38.4062 26.5938 35.7969
C26.5938 35.7969 15.5938 40 15.5938 48.2969
C15.5938 53.2031 19.7969 57.2031 25.2031 57.2031" id="Inconsolata-38"/>
      </defs>
      <g transform="translate(124.6740625 383.33125)scale(0.12 -0.12)">
       <use xlink:href="#Inconsolata-32"/>
       <use x="49.9999847412" xlink:href="#Inconsolata-30"/>
       <use x="99.9999694824" xlink:href="#Inconsolata-30"/>
       <use x="149.999954224" xlink:href="#Inconsolata-38"/>
      </g>
     </g>
    </g>
    <g id="xtick_4">
     <g id="line2d_10">
      <g>
       <use style="stroke:#000000;stroke-width:0.5;" x="180.521875" xlink:href="#m93b0483c22" y="367.3625"/>
      </g>
     </g>
     <g id="line2d_11">
      <g>
       <use style="stroke:#000000;stroke-width:0.5;" x="180.521875" xlink:href="#m741efc42ff" y="21.7625"/>
      </g>
     </g>
     <g id="text_4">
      <!-- 2010 -->
      <defs>
       <path d="
M29.9062 62.2969
L25.0938 62.2969
L8.79688 53.7969
L10.4062 49.9062
L22.9062 53.5938
L22.9062 -0.09375
L29.9062 -0.09375
z
" id="Inconsolata-31"/>
      </defs>
      <g transform="translate(169.2653125 383.33125)scale(0.12 -0.12)">
       <use xlink:href="#Inconsolata-32"/>
       <use x="49.9999847412" xlink:href="#Inconsolata-30"/>
       <use x="99.9999694824" xlink:href="#Inconsolata-31"/>
       <use x="149.999954224" xlink:href="#Inconsolata-30"/>
      </g>
     </g>
    </g>
    <g id="xtick_5">
     <g id="line2d_12">
      <g>
       <use style="stroke:#000000;stroke-width:0.5;" x="225.161875" xlink:href="#m93b0483c22" y="367.3625"/>
      </g>
     </g>
     <g id="line2d_13">
      <g>
       <use style="stroke:#000000;stroke-width:0.5;" x="225.161875" xlink:href="#m741efc42ff" y="21.7625"/>
      </g>
     </g>
     <g id="text_5">
      <!-- 2012 -->
      <g transform="translate(213.9653125 383.33125)scale(0.12 -0.12)">
       <use xlink:href="#Inconsolata-32"/>
       <use x="49.9999847412" xlink:href="#Inconsolata-30"/>
       <use x="99.9999694824" xlink:href="#Inconsolata-31"/>
       <use x="149.999954224" xlink:href="#Inconsolata-32"/>
      </g>
     </g>
    </g>
    <g id="xtick_6">
     <g id="line2d_14">
      <g>
       <use style="stroke:#000000;stroke-width:0.5;" x="269.801875" xlink:href="#m93b0483c22" y="367.3625"/>
      </g>
     </g>
     <g id="line2d_15">
      <g>
       <use style="stroke:#000000;stroke-width:0.5;" x="269.801875" xlink:href="#m741efc42ff" y="21.7625"/>
      </g>
     </g>
     <g id="text_6">
      <!-- 2014 -->
      <g transform="translate(258.5275 383.33125)scale(0.12 -0.12)">
       <use xlink:href="#Inconsolata-32"/>
       <use x="49.9999847412" xlink:href="#Inconsolata-30"/>
       <use x="99.9999694824" xlink:href="#Inconsolata-31"/>
       <use x="149.999954224" xlink:href="#Inconsolata-34"/>
      </g>
     </g>
    </g>
    <g id="xtick_7">
     <g id="line2d_16">
      <g>
       <use style="stroke:#000000;stroke-width:0.5;" x="314.441875" xlink:href="#m93b0483c22" y="367.3625"/>
      </g>
     </g>
     <g id="line2d_17">
      <g>
       <use style="stroke:#000000;stroke-width:0.5;" x="314.441875" xlink:href="#m741efc42ff" y="21.7625"/>
      </g>
     </g>
     <g id="text_7">
      <!-- 2016 -->
      <g transform="translate(303.2453125 383.33125)scale(0.12 -0.12)">
       <use xlink:href="#Inconsolata-32"/>
       <use x="49.9999847412" xlink:href="#Inconsolata-30"/>
       <use x="99.9999694824" xlink:href="#Inconsolata-31"/>
       <use x="149.999954224" xlink:href="#Inconsolata-36"/>
      </g>
     </g>
    </g>
    <g id="xtick_8">
     <g id="line2d_18">
      <g>
       <use style="stroke:#000000;stroke-width:0.5;" x="359.081875" xlink:href="#m93b0483c22" y="367.3625"/>
      </g>
     </g>
     <g id="line2d_19">
      <g>
       <use style="stroke:#000000;stroke-width:0.5;" x="359.081875" xlink:href="#m741efc42ff" y="21.7625"/>
      </g>
     </g>
     <g id="text_8">
      <!-- 2018 -->
      <g transform="translate(347.8740625 383.33125)scale(0.12 -0.12)">
       <use xlink:href="#Inconsolata-32"/>
       <use x="49.9999847412" xlink:href="#Inconsolata-30"/>
       <use x="99.9999694824" xlink:href="#Inconsolata-31"/>
       <use x="149.999954224" xlink:href="#Inconsolata-38"/>
      </g>
     </g>
    </g>
    <g id="xtick_9">
     <g id="line2d_20">
      <g>
       <use style="stroke:#000000;stroke-width:0.5;" x="403.721875" xlink:href="#m93b0483c22" y="367.3625"/>
      </g>
     </g>
     <g id="line2d_21">
      <g>
       <use style="stroke:#000000;stroke-width:0.5;" x="403.721875" xlink:href="#m741efc42ff" y="21.7625"/>
      </g>
     </g>
     <g id="text_9">
      <!-- 2020 -->
      <g transform="translate(392.4653125 383.33125)scale(0.12 -0.12)">
       <use xlink:href="#Inconsolata-32"/>
       <use x="49.9999847412" xlink:href="#Inconsolata-30"/>
       <use x="99.9999694824" xlink:href="#Inconsolata-32"/>
       <use x="149.999954224" xlink:href="#Inconsolata-30"/>
      </g>
     </g>
    </g>
    <g id="xtick_10">
     <g id="line2d_22">
      <g>
       <use style="stroke:#000000;stroke-width:0.5;" x="448.361875" xlink:href="#m93b0483c22" y="367.3625"/>
      </g>
     </g>
     <g id="line2d_23">
      <g>
       <use style="stroke:#000000;stroke-width:0.5;" x="448.361875" xlink:href="#m741efc42ff" y="21.7625"/>
      </g>
     </g>
     <g id="text_10">
      <!-- 2022 -->
      <g transform="translate(437.1653125 383.33125)scale(0.12 -0.12)">
       <use xlink:href="#Inconsolata-32"/>
       <use x="49.9999847412" xlink:href="#Inconsolata-30"/>
       <use x="99.9999694824" xlink:href="#Inconsolata-32"/>
       <use x="149.999954224" xlink:href="#Inconsolata-32"/>
      </g>
     </g>
    </g>
    <g id="xtick_11">
     <g id="line2d_24">
      <g>
       <use style="stroke:#000000;stroke-width:0.5;" x="493.001875" xlink:href="#m93b0483c22" y="367.3625"/>
      </g>
     </g>
     <g id="line2d_25">
      <g>
       <use style="stroke:#000000;stroke-width:0.5;" x="493.001875" xlink:href="#m741efc42ff" y="21.7625"/>
      </g>
     </g>
     <g id="text_11">
      <!-- 2024 -->
      <g transform="translate(481.7275 383.33125)scale(0.12 -0.12)">
       <use xlink:href="#Inconsolata-32"/>
       <use x="49.9999847412" xlink:href="#Inconsolata-30"/>
       <use x="99.9999694824" xlink:href="#Inconsolata-32"/>
       <use x="149.999954224" xlink:href="#Inconsolata-34"/>
      </g>
     </g>
    </g>
   </g>
   <g id="matplotlib.axis_2">
    <g id="ytick_1">
     <g id="line2d_26">
      <defs>
       <path d="
M0 0
L4 0" id="m728421d6d4" style="stroke:#000000;stroke-width:0.5;"/>
      </defs>
      <g>
       <use style="stroke:#000000;stroke-width:0.5;" x="46.601875" xlink:href="#m728421d6d4" y="351.653409091"/>
      </g>
     </g>
     <g id="line2d_27">
      <defs>
       <path d="
M0 0
L-4 0" id="mcb0005524f" style="stroke:#000000;stroke-width:0.5;"/>
      </defs>
      <g>
       <use style="stroke:#000000;stroke-width:0.5;" x="493.001875" xlink:href="#mcb0005524f" y="351.653409091"/>
      </g>
     </g>
     <g id="text_12">
      <!-- 0 -->
      <g transform="translate(33.813125 354.635596591)scale(0.12 -0.12)">
       <use xlink:href="#Inconsolata-30"/>
      </g>
     </g>
    </g>
    <g id="ytick_2">
     <g id="line2d_28">
      <g>
       <use style="stroke:#000000;stroke-width:0.5;" x="46.601875" xlink:href="#m728421d6d4" y="288.817045455"/>
      </g>
     </g>
     <g id="line2d_29">
      <g>
       <use style="stroke:#000000;stroke-width:0.5;" x="493.001875" xlink:href="#mcb0005524f" y="288.817045455"/>
      </g>
     </g>
     <g id="text_13">
      <!-- 20 -->
      <g transform="translate(28.08875 291.799232955)scale(0.12 -0.12)">
       <use xlink:href="#Inconsolata-32"/>
       <use x="49.9999847412" xlink:href="#Inconsolata-30"/>
      </g>
     </g>
    </g>
    <g id="ytick_3">
     <g id="line2d_30">
      <g>
       <use style="stroke:#000000;stroke-width:0.5;" x="46.601875" xlink:href="#m728421d6d4" y="225.980681818"/>
      </g>
     </g>
     <g id="line2d_31">
      <g>
       <use style="stroke:#000000;stroke-width:0.5;" x="493.001875" xlink:href="#mcb0005524f" y="225.980681818"/>
      </g>
     </g>
     <g id="text_14">
      <!-- 40 -->
      <g transform="translate(27.78875 228.962869318)scale(0.12 -0.12)">
       <use xlink:href="#Inconsolata-34"/>
       <use x="49.9999847412" xlink:href="#Inconsolata-30"/>
      </g>
     </g>
    </g>
    <g id="ytick_4">
     <g id="line2d_32">
      <g>
       <use style="stroke:#000000;stroke-width:0.5;" x="46.601875" xlink:href="#m728421d6d4" y="163.144318182"/>
      </g>
     </g>
     <g id="line2d_33">
      <g>
       <use style="stroke:#000000;stroke-width:0.5;" x="493.001875" xlink:href="#mcb0005524f" y="163.144318182"/>
      </g>
     </g>
     <g id="text_15">
      <!-- 60 -->
      <g transform="translate(28.0175 166.126505682)scale(0.12 -0.12)">
       <use xlink:href="#Inconsolata-36"/>
       <use x="49.9999847412" xlink:href="#Inconsolata-30"/>
      </g>
     </g>
    </g>
    <g id="ytick_5">
     <g id="line2d_34">
      <g>
       <use style="stroke:#000000;stroke-width:0.5;" x="46.601875" xlink:href="#m728421d6d4" y="100.307954545"/>
      </g>
     </g>
     <g id="line2d_35">
      <g>
       <use style="stroke:#000000;stroke-width:0.5;" x="493.001875" xlink:href="#mcb0005524f" y="100.307954545"/>
      </g>
     </g>
     <g id="text_16">
      <!-- 80 -->
      <g transform="translate(27.933125 103.290142045)scale(0.12 -0.12)">
       <use xlink:href="#Inconsolata-38"/>
       <use x="49.9999847412" xlink:href="#Inconsolata-30"/>
      </g>
     </g>
    </g>
    <g id="ytick_6">
     <g id="line2d_36">
      <g>
       <use style="stroke:#000000;stroke-width:0.5;" x="46.601875" xlink:href="#m728421d6d4" y="37.4715909091"/>
      </g>
     </g>
     <g id="line2d_37">
      <g>
       <use style="stroke:#000000;stroke-width:0.5;" x="493.001875" xlink:href="#mcb0005524f" y="37.4715909091"/>
      </g>
     </g>
     <g id="text_17">
      <!-- 100 -->
      <g transform="translate(22.26875 40.4537784091)scale(0.12 -0.12)">
       <use xlink:href="#Inconsolata-31"/>
       <use x="49.9999847412" xlink:href="#Inconsolata-30"/>
       <use x="99.9999694824" xlink:href="#Inconsolata-30"/>
      </g>
     </g>
    </g>
    <g id="text_18">
     <!-- Normalized weekly search queries -->
     <defs>
      <path d="
M5 0
L11.7031 0
L11.7031 49
L39.0938 -0.09375
L44.7031 -0.09375
L44.7031 59.7031
C44.7031 60.4062 44.7969 60.5938 45.0938 61.0938
C45.2031 61.2969 45.4062 61.7969 45.2969 62.2969
L37.9062 62.2969
L37.9062 16.0938
L11.7969 62.2969
L5 62.2969
z
" id="Inconsolata-4e"/>
      <path id="Inconsolata-20"/>
      <path d="
M4.5 45.5938
L23.0938 0.09375
L21.5938 -3.20312
C20.7969 -5.09375 19.9062 -7 18.5 -8.5
C16.5938 -10.5938 14.2031 -11.5 12.0938 -11.5
C8.70312 -11.5 7 -9.20312 6.70312 -8.79688
C6.40625 -8.29688 6.5 -7.59375 5.90625 -7.09375
L2.20312 -13.5938
C4.79688 -16.0938 8.29688 -17.4062 12.0938 -17.4062
C16.2031 -17.4062 20.5 -15.9062 23.5 -12.5
C25.5 -10.2031 26.5 -7.79688 27.5 -5.20312
L41.7031 32.5
C43.4062 36.7969 44.9062 41.2031 46.2969 45.7031
L38.7969 45.7031
C38 41.5 36.7031 37.5 35.2969 33.5
L26.5938 9
L13.2031 42.7031
C13.0938 43 13.0938 43.2031 13.0938 43.5
C13.0938 44.2031 13.5938 44.7031 13.5 45.5938
z
" id="Inconsolata-79"/>
      <path d="
M6.90625 0
L14.2969 0
L14.2969 26.2969
C14.2969 29.2969 14.5938 31.5938 16.5 34.0938
C18.2969 36.4062 22.7031 40.5 27.5 40.5
C29.7969 40.5 32.0938 39.5 33.7031 37.5938
C36.2031 34.5938 36.2031 30.7031 36.2031 27.5
L36.2031 0
L43.2969 0
L43.2969 27.7031
C43.2969 31.2031 43.2031 35 41.5938 38.7031
C39.2969 43.7969 34.7031 46.7031 29.5 46.7031
C23.2969 46.7031 17.5938 42.7031 14.2969 37.5938
L14.2969 64.0938
C14.2969 64.4062 14.2969 64.7031 14.5938 65
C14.9062 65.2969 15.2969 65.5938 15.2969 66.0938
C15.2969 66.2031 15.2969 66.2969 15.2031 66.4062
L6.90625 66.4062
z
" id="Inconsolata-68"/>
      <path d="
M10.5938 45.7031
L10.5938 39.7969
L21.5938 39.7969
L21.5938 5.70312
L10 5.70312
L10 0
L39.5938 0
L39.5938 5.70312
L28.9062 5.70312
L28.9062 45.7031
z

M25.4062 65.5
C22.5 65.5 20.2031 63.2031 20.2031 60.4062
C20.2031 57.5938 22.5 55.2969 25.4062 55.2969
C28.2969 55.2969 30.5938 57.5938 30.5938 60.4062
C30.5938 63.2031 28.2969 65.5 25.4062 65.5" id="Inconsolata-69"/>
      <path d="
M6.20312 45.5938
L6.20312 20.0938
C6.20312 16.2031 6.20312 12.2031 8 8.09375
C10.5938 2.09375 16.2031 -1.20312 22.2031 -1.20312
C27.9062 -1.20312 33.2969 1.90625 36.2969 6.90625
L36.2031 3.5
C36.2031 2.29688 36.2031 1.09375 36.4062 0
L44 0
C43.5 1.29688 43.4062 2.79688 43.4062 4.09375
L43.4062 45.5938
L36.2031 45.5938
L36.2031 20.5
C36.2031 17 35.9062 14.2969 34.4062 11.5
C32.2969 7.59375 28.2031 4.70312 23.7969 4.70312
C20.2969 4.70312 16.9062 6.70312 15.0938 10.2969
C13.5 13.5 13.5 17.0938 13.5 20.0938
L13.5 45.5938
z
" id="Inconsolata-75"/>
      <path d="
M6.59375 66.4062
L6.59375 -0.09375
L13.7969 -0.09375
L13.7969 17.2031
L19.9062 22.7969
L38.5 -0.5
C38.5 -0.5 42.4062 -0.09375 47.0938 -0.09375
C47.4062 -0.09375 47.5938 -0.09375 47.7969 -0.09375
L25.4062 27.2031
L44.7031 45.2969
L42.0938 45.2969
C40.2969 45.2969 38.5 45.4062 36.7031 45.9062
L13.7969 24.5938
L13.7969 63.7969
C13.7969 64.2031 13.9062 64.5 14.2031 65
C14.5 65.2969 14.9062 65.7031 14.7969 66.4062
z
" id="Inconsolata-6b"/>
      <path d="
M37.0938 39
C34.9062 43.7031 30 46.7969 23.7031 46.7969
C15 46.7969 4.40625 40.5938 4.40625 23.2031
C4.40625 6.29688 13.7969 -1.09375 22.5938 -1.09375
C28.4062 -1.09375 33.7969 2.20312 36.7031 7.29688
L36.7031 3.29688
C36.7031 2.20312 36.7969 1.09375 37.0938 0
L44.2969 0
C43.9062 1.29688 43.9062 2.79688 43.9062 4.20312
L43.7969 63.5938
C43.7969 64.2031 43.7969 64.4062 44.2031 65
C44.4062 65.2969 44.7969 65.7969 44.7031 66.5
L37.0938 66.5
z

M24 40.9062
C28 40.9062 33.9062 38.7969 35.7031 32
C36.2969 29.9062 36.5 27.4062 36.5 22.2969
C36.5 18.7969 36.2969 16.2969 35.5 13.9062
C33.7969 8.5 29 5.29688 24.2969 5.29688
C19.0938 5.29688 11.4062 9.29688 11.4062 24.2969
C11.4062 37.4062 18.7031 40.9062 24 40.9062" id="Inconsolata-64"/>
      <path d="
M25.7969 46.7031
C14.9062 46.7031 4.79688 38.9062 4.79688 22.2969
C4.79688 7 14.2969 -1.09375 26.7031 -1.09375
C33.2969 -1.09375 39.2031 1.29688 43.0938 6
L39.0938 9.90625
C36.2031 6.5 31.7969 4.70312 27.2969 4.70312
C21.2031 4.70312 12.2969 8.09375 11.7969 21.7969
L44.2031 21.7969
C44.5 24.9062 44.4062 27.9062 43.9062 30.5
C41.7969 42.7969 33.2969 46.7031 25.7969 46.7031
M12 27.2969
C13.5 38.0938 20.4062 41.2031 25.2969 41.2031
C32.7031 41.2031 38 34.7031 37.0938 27.2969
z
" id="Inconsolata-65"/>
      <path d="
M37.2969 39
C37.2969 38.9062 34.0938 46.7969 24 46.7969
C14 46.7969 4.20312 38.7031 4.20312 23.2031
C4.20312 8.40625 12.9062 -1.09375 23 -1.09375
C28.7969 -1.09375 34.0938 2.20312 37 7.29688
L37 -16.7031
L44.0938 -16.7031
L44.0938 45.5938
L37.2969 45.5938
z

M24.2969 40.9062
C28.4062 40.9062 33.5938 38.7969 35.5938 33.2031
C36.5 30.5938 36.7031 27.7969 36.7031 22.2031
C36.7031 18.7969 36.5 16.2969 35.7969 13.9062
C34 8.5 29.2969 5.29688 24.5938 5.29688
C18 5.29688 11.4062 11.2969 11.4062 24.2031
C11.4062 36.2031 18.2031 40.9062 24.2969 40.9062" id="Inconsolata-71"/>
      <path d="
M45.5938 38.0938
C42 43.4062 35.9062 46.5938 28.5 46.5938
C15.0938 46.5938 5.59375 36.5 5.59375 22.7969
C5.59375 9 15.0938 -1.20312 28.0938 -1.20312
C34.4062 -1.20312 40.5938 1.40625 44.9062 6.09375
L40.7969 10.9062
C37.7031 7.40625 33.2031 5.40625 28.7031 5.40625
C19.7969 5.40625 13 12.7969 13 23.5
C13 33.9062 19.7031 40.4062 28.0938 40.4062
C35.9062 40.4062 39.5938 35 39.9062 34.4062
C40.2969 33.7031 39.7031 32.7031 40.5 32.0938
z
" id="Inconsolata-63"/>
      <path d="
M43.2031 39.5938
C39 44.2031 32.9062 46.7031 26.0938 46.7031
C15.5 46.7031 8.59375 40.7969 8.59375 34
C8.59375 26 17.2031 23.0938 19.7031 22.2031
C23.5938 20.7969 28.5938 19.5938 32 18
C35.7969 16.2031 36.5 13.7969 36.5 12.2031
C36.5 7.90625 31.2969 5 24.7969 5
C17 5 12 9.70312 10.5 11.2969
C10.2031 11.7031 10.2031 12 10.2031 12.4062
C10.2031 12.5 10.2969 13.0938 9.79688 13.2969
L5.59375 6.20312
C11 1.20312 18 -1.09375 24.9062 -1.09375
C37.4062 -1.09375 43.9062 6.29688 43.9062 13.2031
C43.9062 16.2969 42.5938 20.5 37.2031 23.5
C32.0938 26.4062 24.7031 27.4062 20.4062 29.5
C16.7031 31.2969 15.9062 33.5 15.9062 35.0938
C15.9062 38.7031 20.4062 41.2969 25.5 41.2969
C32.0938 41.2969 36.5 37.2969 38.2031 35
C38.5 34.7031 38.4062 34.4062 38.4062 34.0938
C38.4062 33.5 38.7969 33.2969 39 33.2969
z
" id="Inconsolata-73"/>
      <path d="
M9 40.2969
L12.5 35.7031
C16.2969 39.5938 21.4062 40.7969 25.7031 40.7969
C31.0938 40.7969 33.7969 38.5 35.0938 36.4062
C36.5938 33.9062 36.5 30.9062 36.5 28.5
L36.5 26.9062
L35.0938 26.9062
C28.2969 26.9062 21.0938 26.9062 15.2969 24.7969
C8.09375 22.2031 4.90625 16.7969 4.90625 11.7969
C4.90625 5.09375 10.7031 -1.20312 20.2031 -1.20312
C25.7969 -1.20312 31.5938 0.90625 36.5938 5
L36.5938 0
L43.4062 0
L43.4062 28.2969
C43.4062 32 43.2969 35.5 41.2031 39.0938
C38.2031 44 32.4062 46.5938 25.2969 46.5938
C19.2031 46.5938 13.2969 44.7031 9 40.2969
M36.7969 21.4062
L36.7969 18.2969
C36.7969 16 36.7969 13 33.7031 9.70312
C32 8 27.7031 4.29688 21.7031 4.29688
C15.5938 4.29688 12.0938 8.20312 12.0938 12.2031
C12.0938 15.5938 14.4062 19.2969 20.0938 20.7031
C24.2969 21.7031 30.4062 21.4062 35.2031 21.4062
z
" id="Inconsolata-61"/>
      <path d="
M1.5 45.7031
L10.7031 -0.09375
L17.2031 -0.09375
L25.2031 29.5
L33.7031 -0.09375
L40.4062 -0.09375
C43.5 15 46.0938 30.2969 48 45.5938
L41.4062 45.5938
C41.5938 40.0938 41.0938 35 37.0938 9
L27.5 41.4062
L23.0938 41.4062
L15.2031 8.90625
L8.59375 41.9062
C8.40625 42.5938 8.40625 42.9062 8.70312 43.7031
C8.79688 44.2031 9.09375 44.9062 8.79688 45.7031
z
" id="Inconsolata-77"/>
      <path d="
M46 22.5938
C46 38.4062 36 46.5938 25.5938 46.5938
C14 46.5938 4 36.5938 4 22.4062
C4 8.5 13.9062 -1.29688 25.4062 -1.29688
C36.2031 -1.29688 46 7.40625 46 22.5938
M25.0938 40.5
C31.7031 40.5 38.7031 34.7969 38.7031 22.2969
C38.7031 10.7969 32.0938 5 25.5 5
C18.2031 5 11.5938 11.7969 11.5938 23.0938
C11.5938 34.2969 18.0938 40.5 25.0938 40.5" id="Inconsolata-6f"/>
      <path d="
M3.70312 0
L10.2969 0
L10.2969 30.4062
C10.2969 32.5938 10.5 34.5938 11.7969 37
C13.4062 40 15.4062 41.2031 17.2969 41.2031
C18.9062 41.2031 20.7031 40.2031 21.5 37.7031
C22.0938 35.7969 22 33.5938 22 31.7031
L22 0
L28.7031 0
L28.7031 30.2031
C28.7031 32.5938 28.9062 34.5 30.5938 37.4062
C31.4062 38.5938 33.0938 41.5 35.9062 41.5
C37.4062 41.5 38.7969 40.5938 39.5 38.9062
C40.4062 37 40.2031 34.4062 40.2031 32.2969
L40.2031 -0.09375
L47 -0.09375
L47 32.4062
C47 36.2031 47.0938 40 45.0938 43.0938
C43.4062 45.7031 40.5 46.7031 38 46.7031
C33.5938 46.7031 29.5 44.0938 27.7031 40.0938
C27 43.9062 23.7969 46.7031 19.7031 46.7031
C15.9062 46.7031 12.4062 44.2969 10.2969 41.0938
L10.4062 45.5938
L3.70312 45.5938
z
" id="Inconsolata-6d"/>
      <path d="
M9.90625 45.5938
L9.90625 -0.09375
L17.0938 -0.09375
L17.0938 22.0938
C17.0938 24.9062 17.2031 27.9062 20.2969 32.7969
C24.5 39.4062 29.9062 40.5 33.2031 40.5
C37 40.5 39.4062 38.7031 40.7031 37.0938
C41.2969 36.2969 41.5938 35.5 42.4062 34.7969
L45.7969 41.7031
C42.9062 44.7031 38.7031 46.7031 33.5938 46.7031
C26.9062 46.7031 20.0938 43.2969 17.0938 36.7969
L17.4062 45.5938
z
" id="Inconsolata-72"/>
      <path d="
M7 45.7031
L7 39.4062
L33.2969 39.4062
L5 4.79688
L5 -0.09375
L44.9062 -0.09375
L44.9062 6.70312
C43.7031 6.90625 43.2969 6.09375 41.9062 6.09375
L14.7031 6.09375
L42.5938 40.7969
L42.5938 45.7031
z
" id="Inconsolata-7a"/>
      <path d="
M8.40625 66.4062
L8.40625 60.5938
L21.4062 60.5938
L21.4062 5.70312
L7.79688 5.70312
L7.79688 0
L42.0938 0
L42.0938 5.70312
L28.5938 5.70312
L28.5938 66.4062
z
" id="Inconsolata-6c"/>
     </defs>
     <g transform="translate(15.18 290.196875)rotate(-90.0)scale(0.12 -0.12)">
      <use xlink:href="#Inconsolata-4e"/>
      <use x="49.9999847412" xlink:href="#Inconsolata-6f"/>
      <use x="99.9999694824" xlink:href="#Inconsolata-72"/>
      <use x="149.999954224" xlink:href="#Inconsolata-6d"/>
      <use x="199.999938965" xlink:href="#Inconsolata-61"/>
      <use x="249.999923706" xlink:href="#Inconsolata-6c"/>
      <use x="299.999908447" xlink:href="#Inconsolata-69"/>
      <use x="349.999893188" xlink:href="#Inconsolata-7a"/>
      <use x="399.99987793" xlink:href="#Inconsolata-65"/>
      <use x="449.999862671" xlink:href="#Inconsolata-64"/>
      <use x="499.999847412" xlink:href="#Inconsolata-20"/>
      <use x="549.999832153" xlink:href="#Inconsolata-77"/>
      <use x="599.999816895" xlink:href="#Inconsolata-65"/>
      <use x="649.999801636" xlink:href="#Inconsolata-65"/>
      <use x="699.999786377" xlink:href="#Inconsolata-6b"/>
      <use x="749.999771118" xlink:href="#Inconsolata-6c"/>
      <use x="799.999755859" xlink:href="#Inconsolata-79"/>
      <use x="849.999740601" xlink:href="#Inconsolata-20"/>
      <use x="899.999725342" xlink:href="#Inconsolata-73"/>
      <use x="949.999710083" xlink:href="#Inconsolata-65"/>
      <use x="999.999694824" xlink:href="#Inconsolata-61"/>
      <use x="1049.99967957" xlink:href="#Inconsolata-72"/>
      <use x="1099.99966431" xlink:href="#Inconsolata-63"/>
      <use x="1149.99964905" xlink:href="#Inconsolata-68"/>
      <use x="1199.99963379" xlink:href="#Inconsolata-20"/>
      <use x="1249.99961853" xlink:href="#Inconsolata-71"/>
      <use x="1299.99960327" xlink:href="#Inconsolata-75"/>
      <use x="1349.99958801" xlink:href="#Inconsolata-65"/>
      <use x="1399.99957275" xlink:href="#Inconsolata-72"/>
      <use x="1449.9995575" xlink:href="#Inconsolata-69"/>
      <use x="1499.99954224" xlink:href="#Inconsolata-65"/>
      <use x="1549.99952698" xlink:href="#Inconsolata-73"/>
     </g>
    </g>
   </g>
   <g id="patch_3">
    <path d="
M46.6019 21.7625
L493.002 21.7625" style="fill:none;stroke:#000000;"/>
   </g>
   <g id="patch_4">
    <path d="
M493.002 367.362
L493.002 21.7625" style="fill:none;stroke:#000000;"/>
   </g>
   <g id="patch_5">
    <path d="
M46.6019 367.362
L493.002 367.362" style="fill:none;stroke:#000000;"/>
   </g>
   <g id="patch_6">
    <path d="
M46.6019 367.362
L46.6019 21.7625" style="fill:none;stroke:#000000;"/>
   </g>
   <g id="text_19">
    <!-- facebook -->
    <defs>
     <path d="
M34.2969 67
C27.9062 67 21.9062 64.2969 18.7031 59.0938
C16.2969 55.2969 16.2031 51.5 16.2031 47.4062
L16.2031 42.9062
L6.20312 42.9062
L6.20312 37.2031
L16.2031 37.2031
L16.2031 0
L23.0938 0
L23.0938 37.2031
L38 37.2031
L38 42.9062
L23.0938 42.9062
L23.0938 46.5
C23.0938 49.7969 23 53.2969 24.7031 56.2969
C26.5938 59.7031 30.2031 61.4062 33.9062 61.4062
C38.2969 61.4062 42 59.0938 43.9062 56.2031
C44.2031 55.7031 44.2031 55.4062 44.2031 55
C44.2031 54.2969 44.7031 54.0938 45 54.0938
L48.2969 60.7969
C45 64.7031 40 67 34.2969 67" id="Inconsolata-66"/>
     <path d="
M5.90625 66.5
L5.90625 0
L10.5938 0
L13.0938 6
C16.0938 1.5 21.0938 -1.20312 26.5938 -1.20312
C36 -1.20312 45.7031 6.79688 45.7031 23.4062
C45.7031 39.2969 36.2969 46.7031 27.2969 46.7031
C21.5 46.7031 16.0938 43.5938 13.2031 38.5938
L13.2031 64.2031
C13.2031 64.7969 13.2969 65 13.7969 65.4062
C14 65.5 14.5 65.9062 14.4062 66.5
z

M24.7969 40.5
C29.0938 40.5 38.2031 38 38.2031 21.7969
C38.2031 7.90625 29.2031 5.29688 24.7031 5.29688
C21.5938 5.29688 14.7031 6.5 13.5 15.2969
C13.2031 17.5938 13.2031 20.2969 13.2031 24.2969
C13.2031 28.4062 13.4062 31.4062 14.4062 33.9062
C16.0938 38 20.2969 40.5 24.7969 40.5" id="Inconsolata-62"/>
    </defs>
    <g transform="translate(241.607125 16.7625)scale(0.144 -0.144)">
     <use xlink:href="#Inconsolata-66"/>
     <use x="49.9999847412" xlink:href="#Inconsolata-61"/>
     <use x="99.9999694824" xlink:href="#Inconsolata-63"/>
     <use x="149.999954224" xlink:href="#Inconsolata-65"/>
     <use x="199.999938965" xlink:href="#Inconsolata-62"/>
     <use x="249.999923706" xlink:href="#Inconsolata-6f"/>
     <use x="299.999908447" xlink:href="#Inconsolata-6f"/>
     <use x="349.999893188" xlink:href="#Inconsolata-6b"/>
    </g>
   </g>
  </g>
 </g>
 <defs>
  <clipPath id="pf2f40ab0d9">
   <rect height="345.6" width="446.4" x="46.601875" y="21.7625"/>
  </clipPath>
 </defs>
</svg>
